<svg width="224" height="202" xmlns="http://www.w3.org/2000/svg" xmlns:xlink="http://www.w3.org/1999/xlink" overflow="hidden"><defs><clipPath id="clip0"><path d="M848 199 1072 199 1072 401 848 401Z" fill-rule="evenodd" clip-rule="evenodd"/></clipPath></defs><g clip-path="url(#clip0)" transform="translate(-848 -199)"><path d="M853 384.295 853 384.295C853.004 382.275 853.524 380.292 854.513 378.535L949.853 210.129C951.979 206.337 955.989 203.993 960.332 204L960.332 204C964.682 204.011 968.693 206.348 970.848 210.129L1065.49 378.572C1066.48 380.315 1067 382.287 1067 384.295L1067 384.295C1067 390.761 1061.76 396 1055.3 396L864.696 396C858.239 396 853 390.76 853 384.295Z" fill="#FDB62F" fill-rule="evenodd"/><path d="M1065.49 378.581 1005.63 272C985.876 324.984 947.646 369.026 898 396L1055.32 396C1061.77 396 1067 390.763 1067 384.301L1067 384.301C1067 382.293 1066.48 380.323 1065.49 378.581Z" fill="#FFA230" fill-rule="evenodd"/><path d="M934.299 340.65 926.896 340.65 926.896 351.943 920.418 351.943 926.896 322.656 919.493 321 912.09 354.879C911.841 356.004 912.116 357.183 912.83 358.079 913.552 358.986 914.644 359.498 915.791 359.471L926.896 359.471 926.896 367 934.299 367 934.299 359.471 938 359.471 938 351.942 934.299 351.942 934.299 340.65Z" fill="#DE4C3C" fill-rule="evenodd"/><path d="M960 322C951.716 322 945 328.716 945 337L945 352C945 360.284 951.716 367 960 367 968.284 367 975 360.284 975 352L975 337C975 328.716 968.284 322 960 322ZM967.5 352C967.5 356.144 964.144 359.501 960 359.501 955.856 359.501 952.499 356.145 952.499 352L952.499 337C952.499 332.857 955.856 329.5 960 329.5 964.143 329.5 967.5 332.856 967.5 337L967.5 352Z" fill="#DE4C3C" fill-rule="evenodd"/><path d="M1008 351.943 1004.3 351.943 1004.3 340.65 996.896 340.65 996.896 351.943 990.418 351.943 996.896 322.656 989.493 321 982.09 354.879C981.841 356.004 982.116 357.183 982.83 358.079 983.552 358.986 984.644 359.498 985.791 359.471L996.896 359.471 996.896 367 1004.3 367 1004.3 359.471 1008 359.471 1008 351.943Z" fill="#DE4C3C" fill-rule="evenodd"/><path d="M956 252 964 252 964 289 956 289Z" fill="#DE4C3C" fill-rule="evenodd"/><path d="M956 296 964 296 964 304 956 304Z" fill="#DE4C3C" fill-rule="evenodd"/><path d="M974.098 208.021C969.795 200.42 960.156 197.754 952.564 202.057 950.077 203.468 948.017 205.528 946.607 208.021L850.999 376.961C849.73 379.227 849.045 381.772 849.001 384.369 848.898 392.899 855.724 399.896 864.245 400 864.308 400 864.371 400 864.43 400L1055.57 400C1064.07 400.022 1070.98 393.14 1071 384.629 1071.01 381.954 1070.32 379.324 1069 376.998L974.098 208.021ZM1055.57 392.591 864.43 392.591C859.997 392.584 856.409 388.98 856.412 384.543 856.416 383.172 856.767 381.824 857.437 380.627L953.044 211.651C955.309 207.621 960.407 206.191 964.433 208.458 965.769 209.21 966.871 210.314 967.623 211.651L1062.56 380.628C1064.73 384.502 1063.35 389.399 1059.48 391.566 1058.29 392.236 1056.94 392.588 1055.57 392.591Z" fill-rule="evenodd"/><path d="M934.299 340.65 926.896 340.65 926.896 351.943 920.418 351.943 926.896 322.656 919.493 321 912.09 354.879C911.841 356.004 912.116 357.183 912.83 358.079 913.552 358.986 914.644 359.498 915.791 359.471L926.896 359.471 926.896 367 934.299 367 934.299 359.471 938 359.471 938 351.942 934.299 351.942 934.299 340.65Z" fill-rule="evenodd"/><path d="M960 322C951.716 322 945 328.716 945 337L945 352C945 360.284 951.716 367 960 367 968.284 367 975 360.284 975 352L975 337C975 328.716 968.284 322 960 322ZM967.5 352C967.5 356.144 964.144 359.501 960 359.501 955.856 359.501 952.499 356.145 952.499 352L952.499 337C952.499 332.857 955.856 329.5 960 329.5 964.143 329.5 967.5 332.856 967.5 337L967.5 352Z" fill-rule="evenodd"/><path d="M1004.3 340.65 996.896 340.65 996.896 351.943 990.418 351.943 996.896 322.656 989.493 321 982.09 354.879C981.841 356.004 982.116 357.183 982.83 358.079 983.552 358.986 984.644 359.498 985.791 359.471L996.896 359.471 996.896 367 1004.3 367 1004.3 359.471 1008 359.471 1008 351.942 1004.3 351.942 1004.3 340.65Z" fill-rule="evenodd"/><path d="M956 252 964 252 964 289 956 289Z" fill-rule="evenodd"/><path d="M956 296 964 296 964 304 956 304Z" fill-rule="evenodd"/></g></svg>