<svg xmlns="http://www.w3.org/2000/svg" xmlns:xlink="http://www.w3.org/1999/xlink" width="52" height="51" overflow="hidden"><defs><clipPath id="clip0"><path fill-rule="evenodd" d="M199 205 251 205 251 256 199 256Z" clip-rule="evenodd"/></clipPath></defs><g clip-path="url(#clip0)" transform="translate(-199 -205)"><path fill="#42D31A" fill-rule="evenodd" d="M200 230C200 216.193 211.193 205 225 205 238.807 205 250 216.193 250 230 250 243.807 238.807 255 225 255 211.193 255 200 243.807 200 230Z"/><path fill="#FFF" fill-rule="evenodd" d="M225.995 230.287C224.219 230.287 222.776 231.748 222.776 233.547 222.776 235.346 224.219 236.807 225.995 236.807 227.771 236.807 229.214 235.346 229.214 233.547 229.214 231.748 227.771 230.287 225.995 230.287ZM222.594 218 222.594 226.931C223.91 224.66 227.715 224.699 227.715 224.699 235.992 225.471 234.959 234.262 234.959 234.262 234.921 241.783 227.242 242 227.242 242 224.275 242 222.594 240.003 222.594 240.003L222.594 241.362 217 241.362 217 218.013C217.346 218.07 222.594 218 222.594 218Z"/></g></svg>