<svg xmlns="http://www.w3.org/2000/svg" xmlns:xlink="http://www.w3.org/1999/xlink" width="82" height="82" overflow="hidden"><defs><clipPath id="clip0"><path fill-rule="evenodd" d="M589 67 671 67 671 149 589 149Z" clip-rule="evenodd"/></clipPath></defs><g clip-path="url(#clip0)" transform="translate(-589 -67)"><path fill="#6D788F" fill-rule="evenodd" d="M590 72.5168C590 70.0222 592.022 68 594.517 68L665.483 68C667.978 68 670 70.0222 670 72.5168L670 143.483C670 145.978 667.978 148 665.483 148L594.517 148C592.022 148 590 145.978 590 143.483Z"/><path fill="#FFF" fill-rule="evenodd" d="M637.804 105.649C636.079 105.641 634.669 107.043 634.668 108.769 634.667 110.491 636.077 111.9 637.8 111.896 639.522 111.893 640.924 110.475 640.912 108.751 640.901 107.05 639.506 105.657 637.804 105.649ZM622.183 105.649C620.459 105.643 619.051 107.048 619.054 108.774 619.055 110.478 620.442 111.879 622.143 111.896 623.867 111.913 625.291 110.512 625.297 108.794 625.304 107.065 623.906 105.656 622.183 105.649ZM637.782 104.087C640.341 104.081 642.456 106.166 642.473 108.715 642.491 111.327 640.4 113.448 637.796 113.458 635.222 113.47 633.109 111.361 633.106 108.78 633.104 106.196 635.197 104.094 637.782 104.087ZM622.165 104.087C624.743 104.078 626.863 106.188 626.86 108.76 626.856 111.372 624.752 113.467 622.139 113.458 619.59 113.45 617.495 111.343 617.492 108.783 617.488 106.198 619.581 104.095 622.165 104.087ZM612.127 103.152C612.68 103.26 613.154 103.353 613.662 103.453 613.456 104.63 613.198 105.77 613.064 106.925 612.694 110.105 612.326 113.286 612.056 116.475 611.885 118.486 612.97 119.93 614.884 120.575 618.443 121.776 622.089 122.533 625.842 122.754 625.954 122.761 626.066 122.756 626.23 122.756 626.38 122.001 626.528 121.244 626.67 120.534 625.541 120.259 624.442 120.047 623.378 119.721 621.312 119.089 619.5 117.988 617.907 116.529 617.474 116.132 617.38 115.799 617.594 115.422 617.803 115.052 618.166 114.948 618.701 115.124 621.28 115.974 623.892 116.679 626.583 117.093 629.402 117.528 632.201 117.425 634.966 116.806 637.022 116.346 639.044 115.728 641.08 115.18 641.127 115.167 641.172 115.146 641.218 115.13 641.788 114.951 642.164 115.042 642.369 115.427 642.615 115.892 642.396 116.225 642.054 116.535 640.985 117.501 639.813 118.309 638.521 118.946 636.888 119.749 635.166 120.245 633.277 120.427 633.43 121.213 633.577 121.966 633.739 122.799 634.754 122.705 635.756 122.642 636.748 122.516 639.593 122.154 642.371 121.5 645.084 120.574 647.034 119.909 648.008 118.493 647.928 116.424 647.911 115.99 647.88 115.555 647.852 115.069 648.374 115.038 648.856 115.008 649.334 114.978 650.023 118.195 648.725 120.912 645.894 121.938 641.878 123.392 637.719 124.16 633.458 124.383 632.651 124.424 632.445 124.263 632.284 123.485 632.044 122.323 631.814 121.16 631.584 119.996 631.455 119.347 631.76 118.994 632.423 118.917 633.46 118.796 634.493 118.636 635.52 118.403 631.823 119.106 628.134 119.111 624.445 118.312 624.44 118.372 624.435 118.432 624.429 118.491 625.436 118.633 626.442 118.801 627.453 118.909 628.245 118.994 628.511 119.307 628.354 120.098 628.118 121.277 627.887 122.456 627.646 123.634 627.53 124.203 627.275 124.414 626.696 124.388 622.317 124.186 618.048 123.394 613.931 121.881 611.711 121.065 610.321 118.985 610.49 116.573 610.703 113.527 611.05 110.487 611.4 107.453 611.564 106.036 611.871 104.636 612.127 103.152ZM612.839 100.01C613.349 100.127 613.829 100.238 614.35 100.358 614.23 100.89 614.122 101.372 614.005 101.898 613.495 101.791 613.024 101.692 612.481 101.576 612.606 101.031 612.717 100.545 612.839 100.01ZM627.472 91.5923C628.04 91.5793 628.374 91.8396 628.419 92.2913 628.463 92.7157 628.194 92.9916 627.681 93.1687 626.441 93.5982 625.211 94.0551 623.981 94.508 623.832 94.5628 623.698 94.6592 623.564 94.7788 627.858 93.5735 632.145 93.8053 636.431 94.8192 636.447 94.7659 636.462 94.7124 636.477 94.6592 635.441 94.2568 634.409 93.8455 633.368 93.4576 633.019 93.3274 632.648 93.2572 632.288 93.1608 631.768 93.0217 631.502 92.7026 631.555 92.2835 631.608 91.8591 631.953 91.5598 632.469 91.5975 634.655 91.7551 636.845 91.8968 639.023 92.1274 640.101 92.2418 641.165 92.5074 642.223 92.7561 644.222 93.2234 645.609 94.4481 646.176 96.4099 647.774 101.933 648.762 107.574 649.284 113.381 648.781 113.427 648.292 113.471 647.748 113.52 647.651 112.64 647.557 111.789 647.459 110.939 646.918 106.234 646.012 101.598 644.745 97.0347 644.341 95.5821 643.381 94.637 641.922 94.2856 640.554 93.9574 639.162 93.7259 637.78 93.4512 637.787 93.4862 637.792 93.5202 637.797 93.554 638.838 94.3507 639.881 95.1447 640.916 95.9478 641.108 96.0962 641.276 96.2784 641.449 96.4488 641.755 96.7508 641.822 97.1049 641.583 97.4629 641.346 97.817 641.006 97.8794 640.596 97.7453 639.225 97.2963 637.87 96.7484 636.465 96.4579 634.434 96.0402 632.372 95.677 630.307 95.5442 627.863 95.388 625.45 95.871 623.093 96.5297 621.861 96.8746 620.658 97.3288 619.447 97.748 619.05 97.886 618.709 97.8624 618.438 97.5201 618.162 97.1713 618.198 96.7417 618.622 96.402 619.723 95.5195 620.855 94.6772 621.977 93.8208 622.075 93.7454 622.189 93.6867 622.271 93.5136 621.659 93.5957 621.042 93.6517 620.437 93.7649 619.608 93.9211 618.779 94.0903 617.965 94.3076 616.567 94.6811 615.66 95.591 615.24 96.9735 615.06 97.5618 614.909 98.1593 614.732 98.8023 614.235 98.6746 613.758 98.5538 613.287 98.4327 613.487 95.6393 615.176 93.3795 617.525 92.7899 619.831 92.2107 622.177 91.867 624.548 91.7003 625.52 91.6315 626.497 91.6157 627.472 91.5923ZM650.185 83C650.463 83.0821 650.743 83.1548 651.017 83.2473 652.546 83.7629 653.484 84.8757 654.092 86.3127 654.717 87.7889 654.951 89.351 654.953 90.9337 654.973 101.978 654.967 113.022 654.968 124.067 654.968 124.16 654.959 124.254 654.952 124.37 654.442 124.37 653.959 124.37 653.407 124.37 653.407 124.167 653.407 123.964 653.407 123.759 653.407 113.09 653.407 102.42 653.407 91.7486 653.407 90.2633 653.303 88.7898 652.817 87.3737 652.675 86.9622 652.491 86.5575 652.27 86.1825 651.634 85.0996 650.681 84.5581 649.411 84.5608 645.216 84.5685 641.021 84.5645 636.825 84.5645 630.321 84.5645 623.818 84.5645 617.313 84.5645 617.136 84.5645 616.957 84.5645 616.71 84.5645 616.71 84.0284 616.71 83.5153 616.71 83.0012 627.869 83 639.027 83 650.185 83ZM613.587 83C614.108 83 614.628 83 615.149 83 615.149 83.4986 615.149 83.9971 615.149 84.5282 614.631 84.5282 614.14 84.5282 613.587 84.5282 613.587 84.0205 613.587 83.5102 613.587 83ZM612.026 83C612.026 83.5012 612.026 84.0023 612.026 84.562 611.525 84.562 611.059 84.5581 610.593 84.562 608.245 84.5828 606.564 86.2516 606.563 88.6024 606.558 101.554 606.558 114.505 606.563 127.456 606.564 129.708 608.268 131.417 610.519 131.418 623.482 131.425 636.445 131.425 649.41 131.418 651.695 131.417 653.379 129.722 653.406 127.441 653.411 126.969 653.407 126.499 653.407 125.992 653.92 125.992 654.413 125.992 654.908 125.992 655.574 130.466 652.519 133.008 649.243 132.999 636.426 132.964 623.608 132.962 610.792 133 607.548 133.009 605.363 130.717 605.068 128.327 605.063 128.283 605.023 128.244 605 128.202 605 114.73 605 101.257 605 87.785 605.029 87.7108 605.07 87.6405 605.085 87.5636 605.442 85.6319 606.529 84.2639 608.309 83.4608 608.775 83.2512 609.289 83.1509 609.782 83.0012 610.529 83 611.277 83 612.026 83Z"/></g></svg>