<svg width="31" height="31" xmlns="http://www.w3.org/2000/svg" xmlns:xlink="http://www.w3.org/1999/xlink" overflow="hidden"><defs><clipPath id="clip0"><path d="M975 902 1006 902 1006 933 975 933Z" fill-rule="evenodd" clip-rule="evenodd"/></clipPath></defs><g clip-path="url(#clip0)" transform="translate(-975 -902)"><path d="M976.364 920.727 976.364 930.273C976.364 931.024 976.975 931.636 977.727 931.636L1002.27 931.636C1003.03 931.636 1003.64 931.024 1003.64 930.273L1003.64 920.727 998.864 920.727C998.111 920.727 997.5 921.339 997.5 922.091 997.5 923.595 996.276 924.818 994.773 924.818L985.227 924.818C983.724 924.818 982.5 923.595 982.5 922.091 982.5 921.339 981.889 920.727 981.136 920.727ZM981.818 909.818 987.273 909.818C987.65 909.818 987.955 910.123 987.955 910.5 987.955 910.877 987.65 911.182 987.273 911.182L982.191 911.182 976.931 919.364 981.136 919.364C982.64 919.364 983.864 920.587 983.864 922.091 983.864 922.843 984.475 923.455 985.227 923.455L994.773 923.455C995.525 923.455 996.136 922.843 996.136 922.091 996.136 920.587 997.36 919.364 998.864 919.364L1003.07 919.364 997.809 911.182 992.727 911.182C992.35 911.182 992.045 910.877 992.045 910.5 992.045 910.123 992.35 909.818 992.727 909.818L998.182 909.818C998.414 909.818 998.629 909.936 998.756 910.131L1004.89 919.677C1004.96 919.786 1005 919.915 1005 920.045L1005 930.273C1005 931.777 1003.78 933 1002.27 933L977.727 933C976.224 933 975 931.777 975 930.273L975 920.045C975 919.915 975.037 919.786 975.108 919.677L981.244 910.131C981.371 909.936 981.586 909.818 981.818 909.818ZM990 903C990.377 903 990.682 903.305 990.682 903.682L990.682 918.4 993.609 915.472C993.875 915.206 994.307 915.206 994.573 915.472 994.839 915.739 994.839 916.17 994.573 916.437L990.482 920.527C990.349 920.661 990.174 920.727 990 920.727 989.826 920.727 989.651 920.661 989.518 920.527L985.427 916.437C985.161 916.17 985.161 915.739 985.427 915.472 985.693 915.206 986.125 915.206 986.391 915.472L989.318 918.4 989.318 903.682C989.318 903.305 989.623 903 990 903Z" fill-rule="evenodd"/></g></svg>