<svg width="22" height="16" xmlns="http://www.w3.org/2000/svg" xmlns:xlink="http://www.w3.org/1999/xlink" overflow="hidden"><defs><clipPath id="clip0"><path d="M1249 874 1271 874 1271 890 1249 890Z" fill-rule="evenodd" clip-rule="evenodd"/></clipPath></defs><g clip-path="url(#clip0)" transform="translate(-1249 -874)"><path d="M1269.22 883.453C1269.65 883.453 1270 883.086 1270 882.634L1270 877.274C1270 875.469 1268.6 874 1266.88 874L1253.13 874C1251.4 874 1250 875.469 1250 877.274L1250 886.726C1250 888.531 1251.4 890 1253.13 890L1266.88 890C1268.6 890 1270 888.531 1270 886.726 1270 886.274 1269.65 885.908 1269.22 885.908 1268.79 885.908 1268.44 886.274 1268.44 886.726 1268.44 887.629 1267.74 888.363 1266.88 888.363L1253.13 888.363C1252.26 888.363 1251.56 887.629 1251.56 886.726L1251.56 877.447 1258.35 881.868C1258.86 882.2 1259.43 882.366 1260 882.366 1260.57 882.366 1261.14 882.2 1261.65 881.868L1268.44 877.447 1268.44 882.634C1268.44 883.086 1268.79 883.453 1269.22 883.453ZM1260.83 880.478C1260.32 880.81 1259.68 880.81 1259.17 880.478L1252.21 875.944C1252.47 875.751 1252.79 875.637 1253.13 875.637L1266.88 875.637C1267.21 875.637 1267.53 875.751 1267.79 875.944L1260.83 880.478Z" fill-rule="evenodd"/></g></svg>