<svg xmlns="http://www.w3.org/2000/svg" xmlns:xlink="http://www.w3.org/1999/xlink" width="82" height="82" overflow="hidden"><defs><clipPath id="clip0"><path fill-rule="evenodd" d="M199 67 281 67 281 149 199 149Z" clip-rule="evenodd"/></clipPath></defs><g clip-path="url(#clip0)" transform="translate(-199 -67)"><path fill="#FFF" fill-rule="evenodd" d="M200 72.5168C200 70.0222 202.022 68 204.517 68L275.483 68C277.978 68 280 70.0222 280 72.5168L280 143.483C280 145.978 277.978 148 275.483 148L204.517 148C202.022 148 200 145.978 200 143.483Z"/><path fill="#FFF" fill-rule="evenodd" d="M238.385 123.431C239.614 123.461 240.619 123.875 241.4 124.672 242.182 125.47 242.585 126.475 242.611 127.686 242.585 128.9 242.182 129.914 241.4 130.729 240.619 131.544 239.614 131.968 238.385 132 237.153 131.968 236.138 131.544 235.34 130.729 234.541 129.914 234.128 128.9 234.1 127.686 234.128 126.475 234.541 125.47 235.34 124.672 236.138 123.875 237.153 123.461 238.385 123.431ZM240.557 82.0068C244.763 82.0486 248.045 83.0877 250.403 85.124 252.76 87.1602 253.959 89.9426 253.998 93.4709 254.03 95.2733 253.717 96.9575 253.059 98.5234 252.401 100.089 251.207 101.714 249.478 103.399L243.785 108.717C243.164 109.276 242.674 109.783 242.317 110.239 241.96 110.694 241.765 111.29 241.73 112.026L241.73 114.804C241.728 116.226 241.439 117.208 240.865 117.751 240.29 118.294 239.444 118.553 238.326 118.527L234.863 118.527 234.863 113.09C234.835 111.653 234.906 110.435 235.076 109.434 235.246 108.433 235.684 107.583 236.389 106.885L242.317 101.035C243.512 99.9294 244.571 98.7721 245.494 97.5632 246.418 96.3542 246.904 94.9901 246.954 93.4709 246.973 91.7006 246.422 90.366 245.304 89.4674 244.185 88.5686 242.387 88.091 239.911 88.0343 238.524 87.9974 237.292 88.2633 236.213 88.8321 235.135 89.4009 234.078 90.3168 233.043 91.5799 232.373 92.3592 231.601 92.7507 230.725 92.7544 229.849 92.7581 229.018 92.4848 228.23 91.9345L226 90.3981C227.909 87.0753 230.078 84.8272 232.508 83.654 234.938 82.4807 237.621 81.9316 240.557 82.0068Z"/><path fill="#6D788F" fill-rule="evenodd" d="M200 72.5168C200 70.0222 202.022 68 204.517 68L275.483 68C277.978 68 280 70.0222 280 72.5168L280 143.483C280 145.978 277.978 148 275.483 148L204.517 148C202.022 148 200 145.978 200 143.483Z"/><path fill="#FFF" fill-rule="evenodd" d="M227.747 126.419C228.036 126.419 228.326 126.53 228.546 126.751 228.988 127.193 228.988 127.909 228.546 128.351L224.229 132.669C224.008 132.889 223.718 133 223.429 133 223.139 133 222.85 132.889 222.629 132.669 222.187 132.227 222.187 131.51 222.629 131.069L226.947 126.751C227.167 126.53 227.457 126.419 227.747 126.419ZM224.017 122.69C224.307 122.69 224.596 122.801 224.817 123.021 225.259 123.463 225.259 124.18 224.817 124.621L218.76 130.678C218.54 130.899 218.25 131.01 217.961 131.01 217.671 131.01 217.381 130.899 217.161 130.678 216.719 130.236 216.719 129.52 217.161 129.078L223.217 123.021C223.438 122.801 223.728 122.69 224.017 122.69ZM220.449 119.122C220.739 119.122 221.028 119.232 221.249 119.453 221.691 119.895 221.691 120.612 221.249 121.053L216.931 125.371C216.71 125.592 216.421 125.703 216.131 125.703 215.842 125.703 215.552 125.592 215.331 125.371 214.89 124.929 214.89 124.213 215.331 123.771L219.649 119.453C219.87 119.232 220.16 119.122 220.449 119.122ZM226.181 112.616 223.429 116.833 231.167 124.571 235.384 121.819 231.583 118.018 231.135 118.465C230.693 118.906 229.977 118.906 229.535 118.465 229.093 118.023 229.093 117.306 229.535 116.865L229.982 116.417ZM253.479 91.4725C252.698 91.4725 251.918 91.7697 251.323 92.3643 250.747 92.9402 250.43 93.7061 250.43 94.5205 250.43 95.3352 250.747 96.1008 251.323 96.6768 252.512 97.8658 254.447 97.8659 255.635 96.6768 256.211 96.1008 256.529 95.3352 256.529 94.5205 256.529 93.7059 256.211 92.9402 255.635 92.3643 255.041 91.7699 254.26 91.4725 253.479 91.4725ZM253.479 89.211C254.84 89.211 256.2 89.7288 257.235 90.7643 258.239 91.7677 258.791 93.1017 258.791 94.5205 258.791 95.9395 258.239 97.2734 257.235 98.2767 256.2 99.3123 254.84 99.83 253.479 99.83 252.119 99.83 250.759 99.3123 249.723 98.2767 248.72 97.2734 248.167 95.9395 248.167 94.5205 248.167 93.1017 248.72 91.7677 249.723 90.7643 250.759 89.7288 252.119 89.211 253.479 89.211ZM257.653 85.2585C251.204 85.4254 245.789 88.9844 243.231 91.5424L239.464 95.3093C239.456 95.3179 239.448 95.3263 239.439 95.3345L235.519 99.2546 233.919 97.6545 235.399 96.1746 226.082 97.6299 220.013 103.699 227.558 104.016 230.719 100.855C231.161 100.413 231.878 100.413 232.319 100.855 232.761 101.296 232.761 102.013 232.319 102.455L228.81 105.964C228.808 105.966 228.806 105.968 228.804 105.97L225.769 109.004 226.778 110.013C226.79 110.025 226.802 110.036 226.813 110.048L231.582 114.818 245.266 101.134C245.708 100.693 246.424 100.693 246.866 101.134 247.307 101.576 247.307 102.293 246.866 102.734L233.182 116.417 237.952 121.187C237.964 121.198 237.975 121.21 237.987 121.222L238.995 122.231 242.03 119.196C242.032 119.194 242.034 119.192 242.036 119.19L245.545 115.681C245.987 115.239 246.704 115.239 247.146 115.681 247.587 116.123 247.587 116.839 247.146 117.281L243.984 120.442 244.301 127.987 250.37 121.918 251.826 112.601 250.345 114.081C249.904 114.523 249.187 114.523 248.745 114.081 248.304 113.639 248.304 112.923 248.745 112.481L252.677 108.549C252.678 108.548 252.678 108.548 252.679 108.548L256.458 104.769C259.606 101.62 264.27 94.1448 262.261 85.7389 260.685 85.3621 259.142 85.22 257.653 85.2585ZM258.734 83.0083C260.352 83.0542 261.946 83.2911 263.492 83.7203 263.875 83.8265 264.174 84.1253 264.28 84.5079 265.424 88.631 265.201 93.0973 263.636 97.4235 262.424 100.776 260.39 104.036 258.058 106.368L254.54 109.886 252.549 122.632C252.512 122.868 252.4 123.087 252.231 123.257L244.079 131.408C243.863 131.625 243.574 131.74 243.279 131.74 243.141 131.74 243.002 131.715 242.868 131.663 242.45 131.499 242.168 131.105 242.149 130.656L241.811 122.615 239.796 124.631C239.354 125.072 238.637 125.072 238.196 124.631L237.019 123.454 231.634 126.968C231.186 127.26 230.594 127.198 230.216 126.82L221.18 117.784C220.801 117.406 220.74 116.814 221.032 116.366L224.545 110.981 223.369 109.805C222.927 109.363 222.927 108.646 223.369 108.204L225.384 106.189 217.344 105.851C216.895 105.832 216.5 105.55 216.337 105.132 216.174 104.713 216.274 104.238 216.591 103.921L224.743 95.7692C224.912 95.5997 225.131 95.4884 225.368 95.4514L238.113 93.4606 241.631 89.9425C243.964 87.61 247.224 85.5767 250.577 84.3638 253.28 83.3855 256.039 82.9317 258.734 83.0083Z"/></g></svg>