<svg width="179" height="201" xmlns="http://www.w3.org/2000/svg" xmlns:xlink="http://www.w3.org/1999/xlink" overflow="hidden"><defs><clipPath id="clip0"><path d="M1030 531 1209 531 1209 732 1030 732Z" fill-rule="evenodd" clip-rule="evenodd"/></clipPath><linearGradient x1="1119.5" y1="584" x2="1119.5" y2="691" gradientUnits="userSpaceOnUse" spreadMethod="reflect" id="fill1"><stop offset="0" stop-color="#FFFFFF"/><stop offset="0.0354" stop-color="#FFFFFF"/><stop offset="0.35398" stop-color="#FFFFFF"/><stop offset="1" stop-color="#FFFFFF"/></linearGradient></defs><g clip-path="url(#clip0)" transform="translate(-1030 -531)"><path d="M1120 531 1209 581.83 1209 680.17 1120 731 1031 680.17 1031 581.83Z" fill="#6D788F" fill-rule="evenodd"/><path d="M1139.28 685.254C1138.29 685.408 1137.56 685.698 1137.09 686.125 1136.61 686.551 1136.37 687.059 1136.38 687.647 1136.39 688.36 1136.67 688.911 1137.2 689.299 1137.73 689.686 1138.43 689.883 1139.28 689.887 1140.13 689.883 1140.82 689.686 1141.36 689.299 1141.89 688.911 1142.16 688.36 1142.18 687.647 1142.18 687.059 1141.95 686.551 1141.47 686.125 1140.99 685.698 1140.26 685.408 1139.28 685.254ZM1130.48 685.254C1129.49 685.408 1128.76 685.698 1128.29 686.125 1127.81 686.551 1127.57 687.059 1127.58 687.647 1127.59 688.36 1127.87 688.911 1128.4 689.299 1128.93 689.686 1129.63 689.883 1130.48 689.887 1131.33 689.883 1132.02 689.686 1132.56 689.299 1133.09 688.911 1133.37 688.36 1133.38 687.647 1133.38 687.059 1133.15 686.551 1132.67 686.125 1132.2 685.698 1131.46 685.408 1130.48 685.254ZM1101.89 684.538C1101.25 684.547 1100.68 684.712 1100.18 685.033 1099.68 685.355 1099.26 685.779 1098.91 686.306 1099.06 687.622 1099.41 688.552 1099.96 689.097 1100.5 689.641 1101.12 689.905 1101.82 689.887 1102.58 689.882 1103.2 689.649 1103.69 689.19 1104.18 688.731 1104.43 688.079 1104.45 687.236 1104.43 686.39 1104.2 685.731 1103.73 685.258 1103.27 684.786 1102.66 684.546 1101.89 684.538ZM1090.05 683.425 1089.51 686.519 1091.95 686.519 1092.48 683.425ZM1108.47 680.438 1108.47 689.583 1111.03 689.583C1112.34 689.585 1113.41 689.21 1114.22 688.457 1115.03 687.703 1115.44 686.555 1115.47 685.01 1115.44 683.473 1115.03 682.326 1114.22 681.57 1113.41 680.814 1112.34 680.436 1111.03 680.438ZM1139.28 680.133C1138.47 680.143 1137.85 680.33 1137.4 680.695 1136.96 681.061 1136.73 681.549 1136.72 682.16 1136.74 682.728 1136.98 683.197 1137.45 683.568 1137.92 683.939 1138.53 684.192 1139.28 684.325 1140.03 684.192 1140.64 683.939 1141.11 683.568 1141.58 683.197 1141.82 682.728 1141.83 682.16 1141.83 681.549 1141.6 681.061 1141.15 680.695 1140.71 680.33 1140.08 680.143 1139.28 680.133ZM1130.48 680.133C1129.67 680.143 1129.05 680.33 1128.6 680.695 1128.16 681.061 1127.93 681.549 1127.93 682.16 1127.94 682.728 1128.18 683.197 1128.65 683.568 1129.12 683.939 1129.73 684.192 1130.48 684.325 1131.23 684.192 1131.84 683.939 1132.31 683.568 1132.78 683.197 1133.02 682.728 1133.03 682.16 1133.03 681.549 1132.8 681.061 1132.35 680.695 1131.91 680.33 1131.28 680.143 1130.48 680.133ZM1144.95 679.478 1152.24 679.478 1152.24 680.027C1152.24 680.131 1152.2 680.224 1152.12 680.307 1152.04 680.39 1151.91 680.434 1151.74 680.438L1146.07 680.438 1146.07 684.309 1152.09 684.309 1152.09 684.828C1152.09 684.931 1152.05 685.025 1151.97 685.108 1151.89 685.19 1151.76 685.234 1151.59 685.239L1146.07 685.239 1146.07 690.543 1144.95 690.543ZM1117.86 679.478 1125.33 679.478 1125.33 680.362 1121.3 690.543 1120.1 690.543 1124.1 680.438 1118.52 680.438C1118.31 680.435 1118.15 680.381 1118.04 680.276 1117.92 680.172 1117.87 680.038 1117.86 679.874ZM1107.35 679.478 1111.03 679.478C1112.72 679.48 1114.06 679.945 1115.06 680.875 1116.06 681.804 1116.57 683.188 1116.59 685.026 1116.57 686.856 1116.06 688.233 1115.06 689.156 1114.06 690.079 1112.72 690.541 1111.03 690.543L1107.35 690.543ZM1139.28 679.173C1140.44 679.181 1141.34 679.444 1141.98 679.964 1142.62 680.484 1142.95 681.216 1142.96 682.16 1142.94 682.818 1142.75 683.366 1142.37 683.806 1142 684.246 1141.53 684.567 1140.97 684.767 1141.69 684.992 1142.27 685.364 1142.68 685.881 1143.09 686.398 1143.3 686.987 1143.31 687.647 1143.29 688.661 1142.92 689.445 1142.2 690.002 1141.48 690.558 1140.5 690.84 1139.28 690.848 1138.05 690.84 1137.08 690.558 1136.36 690.002 1135.64 689.445 1135.27 688.661 1135.25 687.647 1135.26 686.987 1135.47 686.398 1135.88 685.881 1136.29 685.364 1136.86 684.992 1137.59 684.767 1137.03 684.567 1136.56 684.246 1136.19 683.806 1135.81 683.366 1135.61 682.818 1135.6 682.16 1135.61 681.216 1135.94 680.484 1136.58 679.964 1137.22 679.444 1138.12 679.181 1139.28 679.173ZM1130.48 679.173C1131.64 679.181 1132.54 679.444 1133.18 679.964 1133.82 680.484 1134.15 681.216 1134.16 682.16 1134.14 682.818 1133.95 683.366 1133.57 683.806 1133.2 684.246 1132.73 684.567 1132.17 684.767 1132.9 684.992 1133.47 685.364 1133.88 685.881 1134.29 686.398 1134.5 686.987 1134.51 687.647 1134.49 688.661 1134.12 689.445 1133.4 690.002 1132.68 690.558 1131.7 690.84 1130.48 690.848 1129.25 690.84 1128.28 690.558 1127.56 690.002 1126.84 689.445 1126.47 688.661 1126.45 687.647 1126.46 686.987 1126.67 686.398 1127.08 685.881 1127.49 685.364 1128.06 684.992 1128.79 684.767 1128.23 684.567 1127.76 684.246 1127.39 683.806 1127.01 683.366 1126.82 682.818 1126.8 682.16 1126.81 681.216 1127.14 680.484 1127.78 679.964 1128.42 679.444 1129.32 679.181 1130.48 679.173ZM1102.06 679.173C1102.55 679.174 1103.01 679.23 1103.46 679.343 1103.9 679.456 1104.28 679.623 1104.6 679.844L1104.96 680.103 1104.72 680.53C1104.66 680.641 1104.57 680.716 1104.46 680.755 1104.35 680.793 1104.21 680.769 1104.05 680.682 1103.76 680.513 1103.45 680.379 1103.12 680.282 1102.79 680.185 1102.44 680.135 1102.06 680.133 1101.19 680.136 1100.46 680.554 1099.86 681.387 1099.26 682.22 1098.94 683.453 1098.88 685.087 1099.17 684.663 1099.59 684.306 1100.12 684.016 1100.65 683.726 1101.24 683.575 1101.89 683.563 1102.99 683.575 1103.87 683.905 1104.53 684.553 1105.2 685.202 1105.54 686.096 1105.56 687.236 1105.53 688.373 1105.18 689.257 1104.49 689.887 1103.8 690.518 1102.91 690.838 1101.82 690.848 1101.07 690.853 1100.39 690.668 1099.78 690.294 1099.18 689.92 1098.69 689.325 1098.33 688.511 1097.97 687.696 1097.78 686.631 1097.77 685.315 1097.78 683.954 1097.98 682.818 1098.36 681.908 1098.74 680.997 1099.25 680.314 1099.9 679.858 1100.54 679.402 1101.26 679.173 1102.06 679.173ZM1089.09 679.021 1090.81 679.021 1090.3 681.932 1092.74 681.932 1093.24 679.021 1094.96 679.021 1094.45 681.932 1096.26 681.932 1096.26 683.014C1096.26 683.118 1096.22 683.211 1096.14 683.294 1096.06 683.377 1095.93 683.421 1095.76 683.425L1094.2 683.425 1093.66 686.519 1095.65 686.519 1095.65 687.601C1095.66 687.705 1095.62 687.799 1095.53 687.881 1095.45 687.964 1095.33 688.008 1095.15 688.013L1093.41 688.013 1092.89 691 1091.17 691 1091.69 688.013 1089.26 688.013 1088.74 691 1087.02 691 1087.54 688.013 1086.38 688.013C1086.18 688.009 1086.02 687.955 1085.9 687.851 1085.79 687.746 1085.73 687.612 1085.73 687.449L1085.73 686.519 1087.8 686.519 1088.33 683.425 1086.99 683.425C1086.78 683.422 1086.62 683.368 1086.51 683.263 1086.4 683.159 1086.34 683.025 1086.34 682.862L1086.34 681.932 1088.59 681.932ZM1119.49 661.276C1118.85 661.285 1118.28 661.45 1117.78 661.771 1117.28 662.093 1116.86 662.517 1116.51 663.044 1116.66 664.36 1117.01 665.29 1117.55 665.835 1118.1 666.38 1118.72 666.643 1119.42 666.626 1120.18 666.62 1120.8 666.387 1121.29 665.928 1121.78 665.469 1122.03 664.818 1122.05 663.974 1122.03 663.128 1121.8 662.469 1121.33 661.996 1120.87 661.524 1120.26 661.284 1119.49 661.276ZM1176.01 657.603 1171.76 663.821 1176.01 663.821ZM1167.21 657.603 1162.96 663.821 1167.21 663.821ZM1085.62 657.603 1081.36 663.821 1085.62 663.821ZM1142.48 656.872C1141.62 656.875 1140.93 657.288 1140.43 658.11 1139.93 658.932 1139.68 660.145 1139.67 661.749 1139.68 663.352 1139.93 664.565 1140.43 665.387 1140.93 666.21 1141.62 666.622 1142.48 666.626 1143.34 666.622 1144.02 666.21 1144.52 665.387 1145.02 664.565 1145.28 663.352 1145.29 661.749 1145.28 660.145 1145.02 658.932 1144.52 658.11 1144.02 657.288 1143.34 656.875 1142.48 656.872ZM1175.84 656.216 1177.12 656.216 1177.12 663.806 1178.73 663.806 1178.73 664.355C1178.73 664.458 1178.69 664.552 1178.61 664.635 1178.53 664.718 1178.4 664.761 1178.23 664.766L1177.12 664.766 1177.12 667.281 1176 667.281 1176 664.766 1170.55 664.766 1170.55 663.76ZM1167.04 656.216 1168.32 656.216 1168.32 663.806 1169.93 663.806 1169.93 664.355C1169.93 664.458 1169.89 664.552 1169.81 664.635 1169.73 664.718 1169.6 664.761 1169.43 664.766L1168.32 664.766 1168.32 667.281 1167.2 667.281 1167.2 664.766 1161.76 664.766 1161.76 663.76ZM1108.29 656.216 1111.7 656.216 1111.7 667.281 1110.57 667.281 1110.57 657.176 1108.95 657.176C1108.74 657.173 1108.58 657.119 1108.46 657.014 1108.35 656.91 1108.29 656.776 1108.29 656.612ZM1085.45 656.216 1086.73 656.216 1086.73 663.806 1088.34 663.806 1088.34 664.355C1088.34 664.458 1088.3 664.552 1088.22 664.635 1088.14 664.718 1088.01 664.761 1087.84 664.766L1086.73 664.766 1086.73 667.281 1085.6 667.281 1085.6 664.766 1080.16 664.766 1080.16 663.76ZM1151.99 656.064 1153.79 656.064 1153.79 660.468 1158.01 656.064 1160.32 656.064 1155.19 661.52 1160.83 667.433 1158.51 667.433 1153.79 662.617 1153.79 666.397C1153.78 666.767 1153.7 667.033 1153.53 667.195 1153.35 667.357 1153.12 667.437 1152.83 667.433L1151.99 667.433ZM1127.82 656.064 1129.65 656.064 1132.75 661.063 1135.85 656.064 1137.67 656.064 1133.67 662.861 1133.67 666.397C1133.67 666.767 1133.58 667.033 1133.41 667.195 1133.24 667.357 1133.01 667.437 1132.72 667.433L1131.82 667.433 1131.82 662.861ZM1093.6 656.064 1095.53 656.064 1098.86 662.008 1099.16 662.648 1099.46 662.008 1102.79 656.064 1104.27 656.064C1104.39 656.067 1104.5 656.11 1104.59 656.195 1104.67 656.28 1104.72 656.389 1104.72 656.521L1104.72 666.397C1104.72 666.767 1104.63 667.033 1104.46 667.195 1104.29 667.357 1104.06 667.437 1103.77 667.433L1102.96 667.433 1102.96 659.188 1100 664.72 1098.32 664.72 1095.36 659.188 1095.36 666.397C1095.36 666.767 1095.27 667.033 1095.1 667.195 1094.93 667.357 1094.7 667.437 1094.4 667.433L1093.6 667.433ZM1142.48 655.911C1143.69 655.909 1144.65 656.39 1145.34 657.355 1146.03 658.321 1146.39 659.785 1146.4 661.749 1146.39 663.712 1146.03 665.176 1145.34 666.142 1144.65 667.107 1143.69 667.588 1142.48 667.586 1141.26 667.588 1140.31 667.107 1139.62 666.142 1138.92 665.176 1138.57 663.712 1138.56 661.749 1138.57 659.785 1138.92 658.321 1139.62 657.355 1140.31 656.39 1141.26 655.909 1142.48 655.911ZM1119.66 655.911C1120.15 655.912 1120.61 655.968 1121.05 656.081 1121.5 656.194 1121.88 656.361 1122.2 656.582L1122.56 656.841 1122.32 657.268C1122.26 657.379 1122.17 657.454 1122.06 657.493 1121.95 657.531 1121.81 657.507 1121.65 657.42 1121.36 657.251 1121.04 657.117 1120.72 657.02 1120.39 656.923 1120.04 656.873 1119.66 656.872 1118.79 656.874 1118.06 657.292 1117.46 658.125 1116.86 658.958 1116.54 660.191 1116.48 661.825 1116.77 661.401 1117.18 661.044 1117.71 660.754 1118.24 660.464 1118.84 660.313 1119.49 660.301 1120.59 660.313 1121.47 660.643 1122.13 661.291 1122.8 661.94 1123.14 662.834 1123.16 663.974 1123.13 665.111 1122.78 665.995 1122.09 666.626 1121.4 667.256 1120.51 667.576 1119.42 667.586 1118.67 667.591 1117.99 667.406 1117.38 667.032 1116.77 666.658 1116.29 666.063 1115.93 665.249 1115.57 664.434 1115.38 663.369 1115.37 662.053 1115.38 660.692 1115.58 659.556 1115.96 658.646 1116.34 657.736 1116.85 657.052 1117.49 656.596 1118.14 656.14 1118.86 655.912 1119.66 655.911ZM1075.25 655.911C1076.33 655.928 1077.16 656.211 1077.73 656.761 1078.29 657.311 1078.58 658.029 1078.58 658.914 1078.58 659.573 1078.45 660.202 1078.17 660.8 1077.89 661.398 1077.46 661.989 1076.88 662.572L1073.18 666.321 1078.78 666.321 1078.78 666.869C1078.78 666.973 1078.74 667.067 1078.66 667.149 1078.58 667.232 1078.45 667.276 1078.28 667.281L1071.89 667.281 1071.89 666.26 1076.04 661.87C1076.49 661.402 1076.84 660.926 1077.09 660.444 1077.33 659.961 1077.45 659.451 1077.46 658.914 1077.45 658.315 1077.25 657.828 1076.86 657.453 1076.46 657.077 1075.93 656.883 1075.25 656.872 1074.78 656.875 1074.34 656.983 1073.94 657.195 1073.54 657.408 1073.16 657.707 1072.8 658.091 1072.67 658.238 1072.52 658.306 1072.38 658.295 1072.23 658.284 1072.1 658.226 1071.98 658.121L1071.68 657.862 1071.88 657.588C1072.27 657.071 1072.75 656.664 1073.32 656.367 1073.89 656.069 1074.53 655.917 1075.25 655.911ZM1065.98 655.759C1066.69 655.756 1067.37 655.819 1068.01 655.946 1068.65 656.073 1069.22 656.28 1069.74 656.567L1070.04 656.734 1069.71 657.603C1069.64 657.785 1069.54 657.898 1069.41 657.942 1069.29 657.987 1069.12 657.97 1068.92 657.893 1068.47 657.727 1068 657.586 1067.53 657.468 1067.05 657.35 1066.52 657.288 1065.95 657.283 1065.18 657.293 1064.51 657.503 1063.92 657.912 1063.34 658.321 1062.89 658.867 1062.56 659.55 1062.23 660.233 1062.07 660.991 1062.06 661.825 1062.07 662.651 1062.23 663.394 1062.56 664.053 1062.89 664.712 1063.35 665.235 1063.94 665.621 1064.53 666.008 1065.22 666.205 1066.01 666.214 1066.66 666.206 1067.23 666.127 1067.72 665.976 1068.22 665.825 1068.66 665.65 1069.05 665.452 1069.27 665.347 1069.46 665.328 1069.63 665.397 1069.79 665.465 1069.92 665.61 1070.03 665.833L1070.31 666.488 1070.04 666.671C1069.47 667.056 1068.85 667.331 1068.18 667.496 1067.51 667.662 1066.78 667.742 1065.97 667.738 1064.81 667.729 1063.8 667.474 1062.94 666.973 1062.08 666.472 1061.41 665.778 1060.93 664.891 1060.46 664.004 1060.21 662.977 1060.21 661.81 1060.23 659.944 1060.76 658.474 1061.8 657.401 1062.83 656.328 1064.23 655.781 1065.98 655.759ZM1144.19 639.096 1144.19 642.678 1146.68 642.678C1147.48 642.691 1148.1 642.57 1148.53 642.314 1148.95 642.058 1149.17 641.59 1149.17 640.91 1149.17 640.228 1148.95 639.752 1148.53 639.483 1148.1 639.214 1147.48 639.085 1146.68 639.096ZM1165.09 638.014C1164.45 638.023 1163.88 638.188 1163.38 638.51 1162.88 638.831 1162.45 639.255 1162.11 639.782 1162.26 641.098 1162.61 642.028 1163.15 642.573 1163.7 643.118 1164.32 643.381 1165.01 643.364 1165.77 643.358 1166.4 643.125 1166.89 642.666 1167.37 642.207 1167.63 641.556 1167.64 640.712 1167.63 639.866 1167.39 639.207 1166.93 638.734 1166.47 638.262 1165.85 638.022 1165.09 638.014ZM1134.41 634.341 1130.16 640.559 1134.41 640.559ZM1144.19 634.296 1144.19 637.572 1146.38 637.572C1147.12 637.581 1147.68 637.46 1148.08 637.21 1148.47 636.96 1148.67 636.527 1148.67 635.911 1148.67 635.297 1148.47 634.871 1148.08 634.635 1147.68 634.398 1147.12 634.285 1146.38 634.296ZM1153.57 632.954 1159.47 632.954 1159.47 633.503C1159.47 633.607 1159.43 633.7 1159.35 633.783 1159.27 633.866 1159.14 633.91 1158.97 633.914L1154.56 633.914 1154.13 637.603C1154.37 637.393 1154.66 637.222 1155.01 637.09 1155.36 636.958 1155.71 636.891 1156.06 636.886 1157.21 636.895 1158.12 637.224 1158.8 637.873 1159.47 638.522 1159.82 639.438 1159.83 640.62 1159.82 641.781 1159.47 642.686 1158.8 643.335 1158.12 643.984 1157.21 644.313 1156.06 644.324 1155.38 644.324 1154.74 644.22 1154.14 644.011 1153.54 643.802 1153.03 643.485 1152.61 643.059L1152.32 642.739 1152.63 642.373C1152.75 642.23 1152.88 642.158 1153.02 642.156 1153.16 642.154 1153.29 642.211 1153.42 642.327 1153.72 642.624 1154.11 642.869 1154.57 643.063 1155.03 643.256 1155.53 643.357 1156.06 643.364 1156.86 643.355 1157.49 643.109 1157.97 642.626 1158.45 642.143 1158.69 641.475 1158.71 640.62 1158.69 639.765 1158.45 639.091 1157.97 638.599 1157.49 638.107 1156.86 637.856 1156.06 637.847 1155.62 637.851 1155.2 637.953 1154.79 638.153 1154.39 638.354 1154.06 638.627 1153.8 638.974L1152.89 638.807ZM1134.25 632.954 1135.52 632.954 1135.52 640.544 1137.13 640.544 1137.13 641.093C1137.14 641.197 1137.1 641.29 1137.01 641.373 1136.93 641.456 1136.81 641.5 1136.63 641.504L1135.52 641.504 1135.52 644.019 1134.4 644.019 1134.4 641.504 1128.96 641.504 1128.96 640.498ZM1099.49 632.954 1102.9 632.954 1102.9 644.019 1101.77 644.019 1101.77 633.914 1100.15 633.914C1099.94 633.911 1099.78 633.857 1099.66 633.753 1099.55 633.648 1099.49 633.514 1099.49 633.351ZM1142.4 632.802 1147.05 632.802C1148.14 632.814 1148.98 633.087 1149.57 633.623 1150.16 634.159 1150.46 634.886 1150.47 635.804 1150.46 636.356 1150.34 636.834 1150.11 637.239 1149.88 637.644 1149.55 637.958 1149.13 638.182 1149.7 638.378 1150.14 638.71 1150.47 639.176 1150.8 639.643 1150.96 640.256 1150.97 641.017 1150.97 641.975 1150.66 642.737 1150.06 643.303 1149.45 643.868 1148.55 644.158 1147.35 644.171L1142.4 644.171ZM1069.6 632.802 1071.39 632.802 1071.39 637.572 1076.68 637.572 1076.68 632.802 1078.48 632.802 1078.48 643.135C1078.47 643.505 1078.38 643.771 1078.21 643.933 1078.04 644.095 1077.81 644.175 1077.52 644.171L1076.68 644.171 1076.68 639.096 1071.39 639.096 1071.39 643.135C1071.39 643.505 1071.3 643.771 1071.13 643.933 1070.96 644.095 1070.73 644.175 1070.44 644.171L1069.6 644.171ZM1165.26 632.65C1165.74 632.65 1166.21 632.706 1166.65 632.819 1167.1 632.932 1167.48 633.099 1167.8 633.32L1168.16 633.579 1167.92 634.006C1167.86 634.117 1167.77 634.192 1167.66 634.231 1167.54 634.269 1167.41 634.245 1167.25 634.158 1166.95 633.989 1166.64 633.855 1166.32 633.758 1165.99 633.661 1165.64 633.612 1165.26 633.61 1164.39 633.612 1163.66 634.03 1163.06 634.863 1162.46 635.696 1162.13 636.93 1162.08 638.563 1162.37 638.139 1162.78 637.782 1163.31 637.492 1163.84 637.202 1164.43 637.051 1165.09 637.039 1166.19 637.051 1167.07 637.381 1167.73 638.029 1168.39 638.678 1168.73 639.572 1168.75 640.712 1168.73 641.849 1168.38 642.733 1167.69 643.364 1167 643.994 1166.11 644.314 1165.01 644.324 1164.27 644.329 1163.59 644.144 1162.98 643.77 1162.37 643.396 1161.89 642.801 1161.53 641.987 1161.16 641.172 1160.98 640.107 1160.97 638.791 1160.98 637.43 1161.17 636.294 1161.56 635.384 1161.94 634.474 1162.45 633.791 1163.09 633.334 1163.74 632.878 1164.46 632.65 1165.26 632.65ZM1124.05 632.65C1125.13 632.666 1125.96 632.949 1126.52 633.499 1127.09 634.049 1127.37 634.767 1127.38 635.652 1127.38 636.311 1127.24 636.94 1126.97 637.538 1126.69 638.136 1126.26 638.727 1125.68 639.31L1121.98 643.059 1127.58 643.059 1127.58 643.607C1127.58 643.711 1127.54 643.805 1127.46 643.888 1127.37 643.97 1127.25 644.014 1127.07 644.019L1120.69 644.019 1120.69 642.998 1124.84 638.609C1125.29 638.14 1125.64 637.664 1125.88 637.182 1126.13 636.699 1126.25 636.189 1126.25 635.652 1126.24 635.053 1126.04 634.566 1125.65 634.191 1125.26 633.815 1124.73 633.621 1124.05 633.61 1123.57 633.613 1123.13 633.721 1122.73 633.934 1122.33 634.146 1121.96 634.445 1121.6 634.829 1121.46 634.976 1121.32 635.044 1121.17 635.033 1121.03 635.022 1120.9 634.964 1120.78 634.859L1120.48 634.6 1120.67 634.326C1121.07 633.809 1121.55 633.402 1122.12 633.105 1122.69 632.807 1123.33 632.656 1124.05 632.65ZM1092.85 632.65C1093.93 632.666 1094.76 632.949 1095.32 633.499 1095.89 634.049 1096.18 634.767 1096.18 635.652 1096.18 636.311 1096.04 636.94 1095.77 637.538 1095.49 638.136 1095.06 638.727 1094.48 639.31L1090.78 643.059 1096.38 643.059 1096.38 643.607C1096.38 643.711 1096.34 643.805 1096.26 643.888 1096.18 643.97 1096.05 644.014 1095.88 644.019L1089.49 644.019 1089.49 642.998 1093.64 638.609C1094.09 638.14 1094.44 637.664 1094.68 637.182 1094.93 636.699 1095.05 636.189 1095.05 635.652 1095.05 635.053 1094.85 634.566 1094.45 634.191 1094.06 633.815 1093.53 633.621 1092.85 633.61 1092.37 633.613 1091.94 633.721 1091.54 633.934 1091.14 634.146 1090.76 634.445 1090.4 634.829 1090.26 634.976 1090.12 635.044 1089.98 635.033 1089.83 635.022 1089.7 634.964 1089.58 634.859L1089.28 634.6 1089.48 634.326C1089.87 633.809 1090.35 633.402 1090.92 633.105 1091.49 632.807 1092.13 632.656 1092.85 632.65ZM1084.05 632.65C1085.13 632.666 1085.96 632.949 1086.53 633.499 1087.09 634.049 1087.38 634.767 1087.38 635.652 1087.38 636.311 1087.24 636.94 1086.97 637.538 1086.69 638.136 1086.26 638.727 1085.68 639.31L1081.98 643.059 1087.58 643.059 1087.58 643.607C1087.58 643.711 1087.54 643.805 1087.46 643.888 1087.38 643.97 1087.25 644.014 1087.08 644.019L1080.69 644.019 1080.69 642.998 1084.84 638.609C1085.29 638.14 1085.64 637.664 1085.88 637.182 1086.13 636.699 1086.25 636.189 1086.26 635.652 1086.25 635.053 1086.05 634.566 1085.65 634.191 1085.26 633.815 1084.73 633.621 1084.05 633.61 1083.58 633.613 1083.14 633.721 1082.74 633.934 1082.34 634.146 1081.96 634.445 1081.6 634.829 1081.46 634.976 1081.32 635.044 1081.18 635.033 1081.03 635.022 1080.9 634.964 1080.78 634.859L1080.48 634.6 1080.68 634.326C1081.07 633.809 1081.55 633.402 1082.12 633.105 1082.69 632.807 1083.33 632.656 1084.05 632.65ZM1114.51 632.497C1115.13 632.501 1115.75 632.589 1116.39 632.762 1117.02 632.935 1117.57 633.172 1118.04 633.473L1118.52 633.793 1118.14 634.417C1118.03 634.604 1117.88 634.73 1117.7 634.793 1117.52 634.856 1117.3 634.832 1117.03 634.722 1116.64 634.54 1116.25 634.379 1115.85 634.24 1115.46 634.102 1115.02 634.029 1114.53 634.021 1113.9 634.019 1113.43 634.134 1113.1 634.364 1112.78 634.595 1112.61 634.953 1112.61 635.439 1112.63 635.885 1112.89 636.257 1113.39 636.555 1113.89 636.853 1114.52 637.187 1115.29 637.557 1115.89 637.856 1116.44 638.144 1116.94 638.422 1117.44 638.701 1117.84 639.036 1118.14 639.43 1118.44 639.823 1118.59 640.342 1118.6 640.986 1118.58 641.845 1118.38 642.53 1117.98 643.042 1117.58 643.555 1117.07 643.923 1116.46 644.147 1115.84 644.371 1115.21 644.481 1114.56 644.476 1113.73 644.477 1112.99 644.357 1112.35 644.116 1111.71 643.875 1111.13 643.508 1110.6 643.013L1110.13 642.571 1110.53 642.129C1110.74 641.886 1110.96 641.747 1111.18 641.714 1111.4 641.68 1111.64 641.747 1111.9 641.916 1112.15 642.106 1112.48 642.32 1112.9 642.56 1113.32 642.799 1113.84 642.93 1114.45 642.952 1115.04 642.962 1115.57 642.824 1116.03 642.537 1116.5 642.25 1116.74 641.753 1116.77 641.047 1116.77 640.686 1116.64 640.383 1116.39 640.137 1116.13 639.891 1115.81 639.671 1115.41 639.478 1115.01 639.284 1114.6 639.086 1114.16 638.883 1113.65 638.645 1113.13 638.383 1112.61 638.096 1112.1 637.808 1111.66 637.461 1111.32 637.054 1110.97 636.647 1110.79 636.144 1110.77 635.545 1110.78 634.764 1110.98 634.151 1111.35 633.705 1111.72 633.26 1112.19 632.945 1112.76 632.762 1113.32 632.579 1113.91 632.491 1114.51 632.497ZM1145.79 615.834 1145.79 619.416 1148.28 619.416C1149.08 619.429 1149.7 619.308 1150.13 619.052 1150.55 618.796 1150.77 618.328 1150.77 617.648 1150.77 616.966 1150.55 616.49 1150.13 616.221 1149.7 615.952 1149.08 615.823 1148.28 615.834ZM1168.01 611.079 1163.76 617.297 1168.01 617.297ZM1145.79 611.034 1145.79 614.31 1147.98 614.31C1148.72 614.319 1149.28 614.199 1149.68 613.948 1150.07 613.698 1150.27 613.265 1150.27 612.649 1150.27 612.035 1150.07 611.61 1149.68 611.373 1149.28 611.136 1148.72 611.023 1147.98 611.034ZM1061.79 611.034 1061.79 615.057 1063.83 615.057C1064.7 615.079 1065.37 614.955 1065.84 614.686 1066.32 614.416 1066.56 613.869 1066.57 613.045 1066.56 612.221 1066.32 611.675 1065.84 611.405 1065.37 611.136 1064.7 611.012 1063.83 611.034ZM1134.48 610.348C1133.62 610.351 1132.94 610.764 1132.43 611.586 1131.93 612.408 1131.68 613.621 1131.67 615.225 1131.68 616.828 1131.93 618.041 1132.43 618.863 1132.94 619.686 1133.62 620.099 1134.48 620.102 1135.34 620.099 1136.02 619.686 1136.52 618.863 1137.02 618.041 1137.28 616.828 1137.29 615.225 1137.28 613.621 1137.02 612.408 1136.52 611.586 1136.02 610.764 1135.34 610.351 1134.48 610.348ZM1091.17 610.348C1090.35 610.365 1089.7 610.62 1089.23 611.115 1088.76 611.611 1088.52 612.244 1088.52 613.015 1088.53 613.84 1088.77 614.491 1089.24 614.968 1089.71 615.444 1090.32 615.687 1091.07 615.697 1091.73 615.692 1092.32 615.539 1092.83 615.238 1093.34 614.937 1093.74 614.521 1094.03 613.99 1093.92 612.752 1093.61 611.834 1093.1 611.237 1092.59 610.641 1091.95 610.344 1091.17 610.348ZM1082.48 610.348C1081.62 610.351 1080.94 610.764 1080.44 611.586 1079.94 612.408 1079.68 613.621 1079.67 615.225 1079.68 616.828 1079.94 618.041 1080.44 618.863 1080.94 619.686 1081.62 620.099 1082.48 620.102 1083.34 620.099 1084.03 619.686 1084.53 618.863 1085.03 618.041 1085.28 616.828 1085.29 615.225 1085.28 613.621 1085.03 612.408 1084.53 611.586 1084.03 610.764 1083.34 610.351 1082.48 610.348ZM1167.84 609.692 1169.12 609.692 1169.12 617.282 1170.73 617.282 1170.73 617.831C1170.73 617.935 1170.69 618.028 1170.61 618.111 1170.53 618.194 1170.4 618.238 1170.23 618.242L1169.12 618.242 1169.12 620.757 1168 620.757 1168 618.242 1162.56 618.242 1162.56 617.237ZM1155.49 609.692 1158.89 609.692 1158.89 620.757 1157.77 620.757 1157.77 610.653 1156.14 610.653C1155.94 610.649 1155.78 610.595 1155.66 610.491 1155.55 610.386 1155.49 610.252 1155.49 610.089ZM1114.69 609.692 1118.1 609.692 1118.1 620.757 1116.97 620.757 1116.97 610.653 1115.34 610.653C1115.14 610.649 1114.98 610.595 1114.86 610.491 1114.75 610.386 1114.69 610.252 1114.69 610.089ZM1071.49 609.692 1074.9 609.692 1074.9 620.757 1073.77 620.757 1073.77 610.653 1072.15 610.653C1071.94 610.649 1071.78 610.595 1071.67 610.491 1071.55 610.386 1071.5 610.252 1071.49 610.089ZM1143.99 609.54 1148.65 609.54C1149.74 609.552 1150.58 609.825 1151.17 610.361 1151.76 610.897 1152.06 611.624 1152.07 612.542 1152.06 613.094 1151.94 613.572 1151.71 613.977 1151.48 614.382 1151.15 614.696 1150.73 614.92 1151.3 615.116 1151.74 615.448 1152.07 615.914 1152.39 616.381 1152.56 616.995 1152.57 617.755 1152.57 618.713 1152.26 619.475 1151.66 620.041 1151.05 620.607 1150.15 620.896 1148.95 620.909L1143.99 620.909ZM1060 609.54 1064.42 609.54C1065.69 609.542 1066.66 609.839 1067.34 610.43 1068.01 611.021 1068.35 611.892 1068.36 613.045 1068.36 613.854 1068.19 614.527 1067.85 615.063 1067.51 615.599 1067.02 615.993 1066.37 616.246L1069.15 620.909 1067.05 620.909 1064.42 616.551 1061.79 616.551 1061.79 619.873C1061.79 620.243 1061.7 620.509 1061.53 620.671 1061.36 620.834 1061.13 620.913 1060.84 620.909L1060 620.909ZM1175.25 609.388C1176.35 609.393 1177.2 609.656 1177.78 610.176 1178.37 610.696 1178.66 611.439 1178.67 612.405 1178.66 612.982 1178.51 613.49 1178.23 613.931 1177.94 614.372 1177.54 614.717 1177.02 614.966 1177.68 615.214 1178.17 615.586 1178.5 616.082 1178.83 616.578 1179 617.171 1179 617.861 1178.99 618.841 1178.67 619.617 1178.02 620.188 1177.38 620.758 1176.45 621.049 1175.25 621.062 1174.57 621.058 1173.92 620.944 1173.3 620.719 1172.69 620.494 1172.17 620.182 1171.75 619.782L1171.43 619.446 1171.69 619.157C1171.81 619.017 1171.94 618.934 1172.07 618.907 1172.21 618.88 1172.35 618.923 1172.49 619.035 1172.9 619.359 1173.34 619.617 1173.79 619.808 1174.25 620 1174.73 620.097 1175.25 620.102 1176.05 620.093 1176.68 619.889 1177.15 619.49 1177.62 619.091 1177.86 618.548 1177.88 617.861 1177.86 617.17 1177.62 616.606 1177.15 616.172 1176.68 615.737 1176.05 615.513 1175.25 615.499L1174.43 615.499C1174.22 615.496 1174.06 615.442 1173.94 615.337 1173.83 615.233 1173.77 615.099 1173.77 614.935L1173.77 614.569 1175.25 614.569C1175.94 614.557 1176.49 614.353 1176.91 613.956 1177.32 613.559 1177.53 613.042 1177.54 612.405 1177.53 611.773 1177.32 611.274 1176.91 610.908 1176.49 610.542 1175.94 610.355 1175.25 610.348 1174.88 610.351 1174.52 610.429 1174.16 610.582 1173.79 610.735 1173.4 610.947 1173 611.216 1172.84 611.311 1172.69 611.343 1172.55 611.31 1172.41 611.277 1172.29 611.205 1172.21 611.095L1171.93 610.729 1172.27 610.454C1172.69 610.11 1173.16 609.846 1173.68 609.664 1174.19 609.481 1174.72 609.389 1175.25 609.388ZM1134.48 609.388C1135.69 609.385 1136.65 609.866 1137.34 610.832 1138.03 611.797 1138.39 613.261 1138.4 615.225 1138.39 617.188 1138.03 618.653 1137.34 619.618 1136.65 620.583 1135.69 621.064 1134.48 621.062 1133.26 621.064 1132.31 620.583 1131.62 619.618 1130.92 618.653 1130.57 617.188 1130.56 615.225 1130.57 613.261 1130.92 611.797 1131.62 610.832 1132.31 609.866 1133.26 609.385 1134.48 609.388ZM1125.65 609.388C1126.73 609.404 1127.56 609.687 1128.12 610.237 1128.69 610.787 1128.97 611.505 1128.98 612.39 1128.98 613.049 1128.84 613.678 1128.57 614.276 1128.29 614.874 1127.86 615.465 1127.28 616.048L1123.58 619.797 1129.18 619.797 1129.18 620.346C1129.18 620.449 1129.14 620.543 1129.06 620.626 1128.97 620.709 1128.85 620.752 1128.67 620.757L1122.29 620.757 1122.29 619.736 1126.44 615.347C1126.89 614.878 1127.24 614.402 1127.48 613.92 1127.73 613.438 1127.85 612.928 1127.85 612.39 1127.84 611.792 1127.64 611.305 1127.25 610.929 1126.86 610.553 1126.33 610.359 1125.65 610.348 1125.17 610.351 1124.73 610.459 1124.33 610.672 1123.93 610.884 1123.56 611.183 1123.2 611.567 1123.06 611.714 1122.92 611.782 1122.77 611.771 1122.63 611.76 1122.5 611.702 1122.38 611.598L1122.08 611.338 1122.27 611.064C1122.67 610.547 1123.15 610.141 1123.72 609.843 1124.29 609.545 1124.93 609.394 1125.65 609.388ZM1091.17 609.388C1092.41 609.381 1093.38 609.829 1094.09 610.731 1094.81 611.633 1095.17 613.029 1095.19 614.92 1095.18 616.435 1094.99 617.643 1094.63 618.544 1094.26 619.445 1093.77 620.093 1093.15 620.486 1092.53 620.879 1091.84 621.071 1091.07 621.062 1090.44 621.059 1089.88 620.981 1089.4 620.826 1088.92 620.671 1088.52 620.455 1088.2 620.178L1087.88 619.904 1088.09 619.538C1088.17 619.391 1088.28 619.303 1088.41 619.273 1088.54 619.243 1088.68 619.28 1088.83 619.385 1089.11 619.582 1089.44 619.749 1089.82 619.886 1090.19 620.024 1090.62 620.096 1091.1 620.102 1091.61 620.11 1092.09 619.96 1092.53 619.651 1092.98 619.343 1093.34 618.827 1093.62 618.104 1093.9 617.38 1094.05 616.4 1094.08 615.164 1093.8 615.58 1093.4 615.932 1092.87 616.221 1092.34 616.51 1091.74 616.66 1091.07 616.673 1089.98 616.662 1089.11 616.336 1088.44 615.695 1087.77 615.054 1087.43 614.161 1087.41 613.015 1087.41 611.957 1087.74 611.093 1088.4 610.424 1089.05 609.755 1089.97 609.409 1091.17 609.388ZM1082.48 609.388C1083.7 609.385 1084.65 609.866 1085.34 610.832 1086.04 611.797 1086.39 613.261 1086.4 615.225 1086.39 617.188 1086.04 618.653 1085.34 619.618 1084.65 620.583 1083.7 621.064 1082.48 621.062 1081.27 621.064 1080.31 620.583 1079.62 619.618 1078.93 618.653 1078.57 617.188 1078.56 615.225 1078.57 613.261 1078.93 611.797 1079.62 610.832 1080.31 609.866 1081.27 609.385 1082.48 609.388ZM1106.78 609.235C1107.49 609.233 1108.17 609.295 1108.81 609.422 1109.44 609.549 1110.02 609.756 1110.53 610.043L1110.84 610.211 1110.5 611.079C1110.44 611.261 1110.34 611.374 1110.21 611.418 1110.08 611.463 1109.92 611.446 1109.71 611.369 1109.26 611.203 1108.8 611.062 1108.32 610.944 1107.85 610.826 1107.32 610.765 1106.75 610.759 1105.58 610.785 1104.65 611.214 1103.94 612.047 1103.24 612.88 1102.88 613.965 1102.86 615.301 1102.86 616.128 1103.03 616.87 1103.36 617.529 1103.69 618.189 1104.15 618.711 1104.74 619.098 1105.33 619.484 1106.02 619.681 1106.81 619.69 1107.28 619.689 1107.71 619.649 1108.1 619.57 1108.5 619.491 1108.86 619.379 1109.18 619.233L1109.18 616.124 1107.15 616.124C1106.94 616.12 1106.78 616.067 1106.66 615.962 1106.55 615.858 1106.49 615.724 1106.49 615.56L1106.49 614.6 1110.4 614.6C1110.6 614.6 1110.75 614.65 1110.85 614.75 1110.95 614.851 1111.01 615.004 1111.01 615.21L1111.01 620.071C1110.42 620.472 1109.77 620.764 1109.06 620.946 1108.34 621.128 1107.58 621.217 1106.77 621.214 1105.61 621.205 1104.6 620.951 1103.74 620.449 1102.88 619.948 1102.21 619.254 1101.73 618.367 1101.25 617.48 1101.01 616.453 1101 615.286 1101.03 613.42 1101.56 611.951 1102.59 610.877 1103.63 609.804 1105.02 609.257 1106.78 609.235ZM1159.15 586.796 1157.23 592.136 1161.06 592.136ZM1144.51 585.988 1144.51 590.435 1146.76 590.435C1147.72 590.459 1148.46 590.322 1148.99 590.024 1149.51 589.726 1149.78 589.122 1149.79 588.211 1149.78 587.301 1149.51 586.696 1148.99 586.398 1148.46 586.1 1147.72 585.964 1146.76 585.988ZM1066.12 585.988 1066.12 590.603 1068.23 590.603C1069.19 590.624 1069.93 590.473 1070.46 590.151 1070.98 589.828 1071.25 589.21 1071.26 588.295 1071.25 587.381 1070.98 586.763 1070.46 586.44 1069.93 586.118 1069.19 585.967 1068.23 585.988ZM1163.85 584.337 1165.87 584.337 1169.3 589.862 1172.72 584.337 1174.74 584.337 1170.32 591.85 1170.32 595.758C1170.32 596.167 1170.22 596.461 1170.03 596.64 1169.84 596.819 1169.59 596.907 1169.26 596.903L1168.27 596.903 1168.27 591.85ZM1158.19 584.337 1160.11 584.337 1164.84 596.903 1162.78 596.903 1161.67 593.821 1156.63 593.821 1155.52 596.903 1153.45 596.903ZM1142.53 584.337 1147.42 584.337C1148.82 584.339 1149.89 584.667 1150.64 585.32 1151.39 585.973 1151.76 586.937 1151.77 588.211 1151.77 589.105 1151.58 589.848 1151.2 590.441 1150.83 591.034 1150.28 591.47 1149.57 591.749L1152.64 596.903 1150.32 596.903 1147.42 592.086 1144.51 592.086 1144.51 595.758C1144.51 596.167 1144.41 596.461 1144.22 596.64 1144.03 596.819 1143.78 596.907 1143.45 596.903L1142.53 596.903ZM1112.93 584.337 1121.41 584.337 1121.41 585.533C1121.42 585.648 1121.37 585.751 1121.28 585.843 1121.19 585.934 1121.05 585.982 1120.86 585.988L1114.91 585.988 1114.91 589.643 1121.25 589.643 1121.25 590.805C1121.25 590.92 1121.2 591.023 1121.11 591.115 1121.03 591.206 1120.88 591.255 1120.69 591.26L1114.91 591.26 1114.91 595.252 1121.68 595.252 1121.68 596.448C1121.68 596.563 1121.64 596.666 1121.55 596.758 1121.46 596.85 1121.32 596.898 1121.13 596.903L1112.93 596.903ZM1103.33 584.337 1105.31 584.337 1105.31 595.252 1111.18 595.252 1111.18 596.448C1111.18 596.563 1111.13 596.666 1111.04 596.758 1110.96 596.85 1110.81 596.898 1110.62 596.903L1103.33 596.903ZM1092.13 584.337 1094.11 584.337 1094.11 589.205 1098.78 584.337 1101.34 584.337 1095.66 590.367 1101.89 596.903 1099.34 596.903 1094.11 591.58 1094.11 595.758C1094.11 596.167 1094.01 596.461 1093.82 596.64 1093.64 596.819 1093.38 596.907 1093.06 596.903L1092.13 596.903ZM1075.28 584.337 1077.3 584.337 1077.3 595.758C1077.29 596.167 1077.2 596.461 1077.01 596.64 1076.82 596.819 1076.56 596.907 1076.24 596.903L1075.28 596.903ZM1064.13 584.337 1068.89 584.337C1070.29 584.343 1071.36 584.685 1072.11 585.362 1072.86 586.04 1073.23 587.018 1073.24 588.295 1073.23 589.573 1072.86 590.551 1072.11 591.229 1071.36 591.906 1070.29 592.248 1068.89 592.254L1066.12 592.254 1066.12 595.758C1066.11 596.167 1066.02 596.461 1065.83 596.64 1065.64 596.819 1065.38 596.907 1065.06 596.903L1064.13 596.903ZM1135.46 584C1136.24 583.997 1136.99 584.066 1137.7 584.206 1138.4 584.347 1139.04 584.576 1139.61 584.893L1139.94 585.078 1139.57 586.038C1139.5 586.239 1139.39 586.364 1139.25 586.413 1139.11 586.462 1138.93 586.444 1138.7 586.358 1138.2 586.175 1137.69 586.019 1137.16 585.889 1136.64 585.759 1136.06 585.69 1135.43 585.685 1134.14 585.713 1133.1 586.187 1132.32 587.108 1131.54 588.029 1131.15 589.228 1131.12 590.704 1131.13 591.618 1131.31 592.439 1131.68 593.167 1132.04 593.896 1132.55 594.473 1133.2 594.901 1133.86 595.328 1134.62 595.546 1135.49 595.556 1136.01 595.555 1136.49 595.51 1136.92 595.423 1137.36 595.336 1137.75 595.211 1138.11 595.05L1138.11 591.614 1135.86 591.614C1135.63 591.61 1135.46 591.55 1135.33 591.435 1135.2 591.32 1135.14 591.171 1135.14 590.991L1135.14 589.93 1139.46 589.93C1139.68 589.929 1139.84 589.985 1139.96 590.096 1140.07 590.207 1140.13 590.376 1140.13 590.603L1140.13 595.977C1139.48 596.42 1138.76 596.742 1137.97 596.943 1137.19 597.144 1136.34 597.243 1135.44 597.24 1134.16 597.23 1133.05 596.948 1132.1 596.395 1131.15 595.841 1130.41 595.074 1129.88 594.093 1129.35 593.113 1129.08 591.977 1129.08 590.688 1129.1 588.625 1129.69 587.001 1130.83 585.815 1131.97 584.629 1133.52 584.024 1135.46 584ZM1085.86 584C1086.65 583.997 1087.39 584.066 1088.1 584.206 1088.81 584.347 1089.44 584.576 1090.01 584.893L1090.35 585.078 1089.98 586.038C1089.9 586.239 1089.8 586.364 1089.65 586.413 1089.51 586.462 1089.33 586.444 1089.1 586.358 1088.61 586.175 1088.09 586.019 1087.57 585.889 1087.04 585.759 1086.46 585.69 1085.83 585.685 1084.98 585.696 1084.23 585.928 1083.59 586.38 1082.94 586.831 1082.44 587.435 1082.08 588.19 1081.72 588.945 1081.53 589.783 1081.53 590.704 1081.53 591.618 1081.72 592.439 1082.08 593.167 1082.44 593.896 1082.95 594.473 1083.61 594.901 1084.26 595.328 1085.02 595.546 1085.9 595.556 1086.61 595.547 1087.23 595.459 1087.78 595.292 1088.33 595.126 1088.82 594.933 1089.26 594.713 1089.5 594.597 1089.71 594.577 1089.89 594.652 1090.07 594.728 1090.21 594.888 1090.33 595.135L1090.65 595.859 1090.35 596.061C1089.71 596.486 1089.03 596.79 1088.29 596.973 1087.55 597.156 1086.74 597.245 1085.84 597.24 1084.57 597.23 1083.45 596.948 1082.5 596.395 1081.55 595.841 1080.81 595.074 1080.28 594.093 1079.75 593.113 1079.49 591.977 1079.48 590.688 1079.5 588.625 1080.09 587.001 1081.23 585.815 1082.38 584.629 1083.92 584.024 1085.86 584Z" fill="url(#fill1)" fill-rule="evenodd"/></g></svg>