<svg width="224" height="251" xmlns="http://www.w3.org/2000/svg" xmlns:xlink="http://www.w3.org/1999/xlink" overflow="hidden"><defs><clipPath id="clip0"><path d="M1497 648 1721 648 1721 899 1497 899Z" fill-rule="evenodd" clip-rule="evenodd"/></clipPath><linearGradient x1="1609" y1="714" x2="1609" y2="847" gradientUnits="userSpaceOnUse" spreadMethod="reflect" id="fill1"><stop offset="0" stop-color="#FFFFFF"/><stop offset="0.0354" stop-color="#FFFFFF"/><stop offset="0.35398" stop-color="#FFFFFF"/><stop offset="1" stop-color="#FFFFFF"/></linearGradient></defs><g clip-path="url(#clip0)" transform="translate(-1497 -648)"><path d="M1609 648 1720 711.538 1720 834.462 1609 898 1498 834.462 1498 711.538Z" fill="#6D788F" fill-rule="evenodd"/><path d="M1633.6 839.858C1632.37 840.05 1631.46 840.41 1630.87 840.94 1630.28 841.47 1629.98 842.101 1629.99 842.832 1630.01 843.719 1630.35 844.404 1631.01 844.885 1631.68 845.367 1632.54 845.611 1633.6 845.617 1634.66 845.611 1635.52 845.367 1636.18 844.885 1636.85 844.404 1637.19 843.719 1637.21 842.832 1637.21 842.101 1636.92 841.47 1636.33 840.94 1635.73 840.41 1634.82 840.05 1633.6 839.858ZM1622.65 839.858C1621.43 840.05 1620.52 840.41 1619.93 840.94 1619.34 841.47 1619.04 842.101 1619.04 842.832 1619.06 843.719 1619.41 844.404 1620.07 844.885 1620.73 845.367 1621.59 845.611 1622.65 845.617 1623.71 845.611 1624.58 845.367 1625.24 844.885 1625.9 844.404 1626.24 843.719 1626.26 842.832 1626.27 842.101 1625.97 841.47 1625.38 840.94 1624.79 840.41 1623.88 840.05 1622.65 839.858ZM1587.1 838.968C1586.31 838.979 1585.6 839.184 1584.97 839.583 1584.35 839.983 1583.83 840.51 1583.4 841.165 1583.58 842.801 1584.02 843.958 1584.69 844.634 1585.37 845.311 1586.14 845.639 1587.01 845.617 1587.96 845.61 1588.73 845.321 1589.34 844.75 1589.94 844.18 1590.26 843.37 1590.28 842.321 1590.26 841.269 1589.97 840.45 1589.39 839.863 1588.82 839.276 1588.05 838.977 1587.1 838.968ZM1572.37 837.585 1571.71 841.43 1574.73 841.43 1575.39 837.585ZM1595.29 833.872 1595.29 845.238 1598.46 845.238C1600.1 845.242 1601.42 844.775 1602.43 843.839 1603.43 842.902 1603.95 841.474 1603.98 839.555 1603.95 837.644 1603.43 836.219 1602.43 835.279 1601.42 834.338 1600.1 833.869 1598.46 833.872ZM1633.6 833.493C1632.6 833.504 1631.82 833.737 1631.27 834.192 1630.71 834.646 1630.43 835.253 1630.42 836.013 1630.44 836.718 1630.74 837.301 1631.32 837.763 1631.91 838.224 1632.66 838.537 1633.6 838.703 1634.53 838.537 1635.29 838.224 1635.87 837.763 1636.46 837.301 1636.76 836.718 1636.77 836.013 1636.77 835.253 1636.48 834.646 1635.93 834.192 1635.38 833.737 1634.6 833.504 1633.6 833.493ZM1622.65 833.493C1621.65 833.504 1620.88 833.737 1620.32 834.192 1619.77 834.646 1619.49 835.253 1619.48 836.013 1619.5 836.718 1619.8 837.301 1620.38 837.763 1620.96 838.224 1621.72 838.537 1622.65 838.703 1623.59 838.537 1624.35 838.224 1624.93 837.763 1625.51 837.301 1625.81 836.718 1625.83 836.013 1625.82 835.253 1625.54 834.646 1624.99 834.192 1624.43 833.737 1623.66 833.504 1622.65 833.493ZM1640.65 832.678 1649.72 832.678 1649.72 833.36C1649.72 833.49 1649.67 833.605 1649.57 833.708 1649.47 833.811 1649.31 833.866 1649.1 833.872L1642.05 833.872 1642.05 838.684 1649.53 838.684 1649.53 839.328C1649.53 839.457 1649.48 839.573 1649.38 839.676 1649.28 839.779 1649.13 839.833 1648.91 839.839L1642.05 839.839 1642.05 846.432 1640.65 846.432ZM1606.97 832.678 1616.25 832.678 1616.25 833.777 1611.24 846.432 1609.74 846.432 1614.72 833.872 1607.78 833.872C1607.52 833.868 1607.32 833.8 1607.18 833.671 1607.04 833.541 1606.97 833.374 1606.97 833.171ZM1593.89 832.678 1598.46 832.678C1600.56 832.68 1602.23 833.259 1603.47 834.414 1604.72 835.569 1605.35 837.289 1605.38 839.574 1605.35 841.849 1604.72 843.56 1603.47 844.708 1602.23 845.855 1600.56 846.43 1598.46 846.432L1593.89 846.432ZM1633.6 832.299C1635.04 832.309 1636.16 832.636 1636.96 833.282 1637.76 833.928 1638.16 834.838 1638.17 836.013 1638.15 836.83 1637.91 837.511 1637.45 838.059 1636.98 838.605 1636.4 839.003 1635.7 839.252 1636.6 839.533 1637.31 839.994 1637.83 840.637 1638.34 841.28 1638.6 842.012 1638.61 842.832 1638.59 844.092 1638.13 845.068 1637.23 845.759 1636.33 846.451 1635.12 846.801 1633.6 846.811 1632.07 846.801 1630.86 846.451 1629.97 845.759 1629.07 845.068 1628.61 844.092 1628.59 842.832 1628.6 842.012 1628.86 841.28 1629.37 840.637 1629.88 839.994 1630.59 839.533 1631.5 839.252 1630.8 839.003 1630.22 838.605 1629.75 838.059 1629.28 837.511 1629.04 836.83 1629.02 836.013 1629.04 834.838 1629.44 833.928 1630.24 833.282 1631.04 832.636 1632.16 832.309 1633.6 832.299ZM1622.65 832.299C1624.09 832.309 1625.21 832.636 1626.01 833.282 1626.81 833.928 1627.22 834.838 1627.23 836.013 1627.21 836.83 1626.97 837.511 1626.5 838.059 1626.03 838.605 1625.45 839.003 1624.75 839.252 1625.66 839.533 1626.37 839.994 1626.88 840.637 1627.39 841.28 1627.65 842.012 1627.66 842.832 1627.64 844.092 1627.18 845.068 1626.29 845.759 1625.39 846.451 1624.18 846.801 1622.65 846.811 1621.13 846.801 1619.92 846.451 1619.02 845.759 1618.13 845.068 1617.67 844.092 1617.65 842.832 1617.65 842.012 1617.91 841.28 1618.43 840.637 1618.94 839.994 1619.65 839.533 1620.56 839.252 1619.86 839.003 1619.27 838.605 1618.81 838.059 1618.34 837.511 1618.1 836.83 1618.08 836.013 1618.09 834.838 1618.5 833.928 1619.3 833.282 1620.1 832.636 1621.22 832.309 1622.65 832.299ZM1587.31 832.299C1587.91 832.3 1588.49 832.37 1589.05 832.51 1589.6 832.65 1590.07 832.858 1590.47 833.133L1590.92 833.455 1590.62 833.986C1590.54 834.124 1590.43 834.217 1590.3 834.265 1590.16 834.313 1589.99 834.283 1589.79 834.175 1589.42 833.964 1589.03 833.798 1588.63 833.678 1588.22 833.557 1587.78 833.495 1587.31 833.493 1586.23 833.496 1585.32 834.016 1584.58 835.051 1583.83 836.087 1583.43 837.62 1583.36 839.65 1583.72 839.123 1584.23 838.68 1584.89 838.319 1585.55 837.958 1586.29 837.77 1587.1 837.755 1588.47 837.77 1589.56 838.181 1590.39 838.987 1591.21 839.793 1591.64 840.904 1591.66 842.321 1591.63 843.734 1591.19 844.833 1590.33 845.617 1589.48 846.401 1588.37 846.799 1587.01 846.811 1586.08 846.817 1585.23 846.587 1584.48 846.122 1583.72 845.657 1583.12 844.918 1582.67 843.906 1582.22 842.893 1581.99 841.569 1581.98 839.934 1581.99 838.241 1582.23 836.83 1582.71 835.698 1583.18 834.567 1583.82 833.718 1584.62 833.151 1585.42 832.583 1586.32 832.3 1587.31 832.299ZM1571.18 832.11 1573.31 832.11 1572.69 835.728 1575.71 835.728 1576.34 832.11 1578.47 832.11 1577.85 835.728 1580.1 835.728 1580.1 837.073C1580.1 837.202 1580.05 837.318 1579.95 837.421 1579.85 837.524 1579.69 837.579 1579.48 837.585L1577.53 837.585 1576.87 841.43 1579.34 841.43 1579.34 842.775C1579.34 842.905 1579.3 843.021 1579.19 843.124 1579.09 843.227 1578.94 843.281 1578.72 843.287L1576.55 843.287 1575.9 847 1573.77 847 1574.41 843.287 1571.39 843.287 1570.74 847 1568.61 847 1569.25 843.287 1567.81 843.287C1567.56 843.283 1567.36 843.216 1567.21 843.086 1567.07 842.956 1567 842.789 1567 842.586L1567 841.43 1569.57 841.43 1570.23 837.585 1568.57 837.585C1568.31 837.581 1568.11 837.513 1567.97 837.384 1567.83 837.254 1567.76 837.087 1567.76 836.884L1567.76 835.728 1570.55 835.728ZM1608.99 810.053C1608.19 810.065 1607.48 810.27 1606.86 810.669 1606.24 811.069 1605.71 811.596 1605.29 812.251 1605.47 813.887 1605.9 815.043 1606.58 815.72 1607.26 816.397 1608.03 816.724 1608.9 816.703 1609.84 816.696 1610.62 816.407 1611.23 815.836 1611.83 815.265 1612.15 814.456 1612.17 813.406 1612.15 812.355 1611.86 811.536 1611.28 810.948 1610.7 810.361 1609.94 810.063 1608.99 810.053ZM1679.28 805.488 1673.99 813.217 1679.28 813.217ZM1668.34 805.488 1663.05 813.217 1668.34 813.217ZM1566.86 805.488 1561.57 813.217 1566.86 813.217ZM1637.58 804.579C1636.51 804.583 1635.66 805.096 1635.04 806.118 1634.41 807.14 1634.09 808.648 1634.08 810.641 1634.09 812.634 1634.41 814.141 1635.04 815.164 1635.66 816.186 1636.51 816.699 1637.58 816.703 1638.65 816.699 1639.5 816.186 1640.12 815.164 1640.74 814.141 1641.06 812.634 1641.07 810.641 1641.06 808.648 1640.74 807.14 1640.12 806.118 1639.5 805.096 1638.65 804.583 1637.58 804.579ZM1679.08 803.764 1680.66 803.764 1680.66 813.198 1682.67 813.198 1682.67 813.88C1682.67 814.009 1682.62 814.125 1682.52 814.228 1682.42 814.331 1682.26 814.386 1682.04 814.392L1680.66 814.392 1680.66 817.517 1679.26 817.517 1679.26 814.392 1672.5 814.392 1672.5 813.141ZM1668.13 803.764 1669.72 803.764 1669.72 813.198 1671.72 813.198 1671.72 813.88C1671.72 814.009 1671.67 814.125 1671.57 814.228 1671.47 814.331 1671.32 814.386 1671.1 814.392L1669.72 814.392 1669.72 817.517 1668.32 817.517 1668.32 814.392 1661.55 814.392 1661.55 813.141ZM1595.06 803.764 1599.29 803.764 1599.29 817.517 1597.9 817.517 1597.9 804.958 1595.87 804.958C1595.62 804.953 1595.42 804.886 1595.28 804.756 1595.13 804.626 1595.06 804.46 1595.06 804.257ZM1566.65 803.764 1568.24 803.764 1568.24 813.198 1570.24 813.198 1570.24 813.88C1570.24 814.009 1570.19 814.125 1570.09 814.228 1569.99 814.331 1569.84 814.386 1569.62 814.392L1568.24 814.392 1568.24 817.517 1566.84 817.517 1566.84 814.392 1560.07 814.392 1560.07 813.141ZM1649.41 803.575 1651.64 803.575 1651.64 809.049 1656.9 803.575 1659.77 803.575 1653.38 810.357 1660.4 817.707 1657.52 817.707 1651.64 811.721 1651.64 816.419C1651.64 816.878 1651.53 817.209 1651.32 817.411 1651.11 817.612 1650.82 817.711 1650.45 817.707L1649.41 817.707ZM1619.35 803.575 1621.62 803.575 1625.48 809.788 1629.33 803.575 1631.6 803.575 1626.63 812.024 1626.63 816.419C1626.62 816.878 1626.52 817.209 1626.3 817.411 1626.09 817.612 1625.8 817.711 1625.44 817.707L1624.32 817.707 1624.32 812.024ZM1576.79 803.575 1579.19 803.575 1583.33 810.963 1583.7 811.758 1584.08 810.963 1588.22 803.575 1590.06 803.575C1590.21 803.578 1590.34 803.633 1590.45 803.738 1590.56 803.844 1590.62 803.978 1590.62 804.143L1590.62 816.419C1590.62 816.878 1590.51 817.209 1590.3 817.411 1590.08 817.612 1589.8 817.711 1589.43 817.707L1588.43 817.707 1588.43 807.458 1584.74 814.335 1582.66 814.335 1578.98 807.458 1578.98 816.419C1578.97 816.878 1578.87 817.209 1578.65 817.411 1578.44 817.612 1578.15 817.711 1577.79 817.707L1576.79 817.707ZM1637.58 803.385C1639.09 803.382 1640.27 803.98 1641.14 805.18 1642 806.38 1642.44 808.2 1642.45 810.641 1642.44 813.081 1642 814.901 1641.14 816.101 1640.27 817.301 1639.09 817.899 1637.58 817.896 1636.07 817.899 1634.88 817.301 1634.02 816.101 1633.16 814.901 1632.72 813.081 1632.7 810.641 1632.72 808.2 1633.16 806.38 1634.02 805.18 1634.88 803.98 1636.07 803.382 1637.58 803.385ZM1609.2 803.385C1609.8 803.386 1610.38 803.456 1610.93 803.596 1611.48 803.736 1611.96 803.944 1612.36 804.219L1612.81 804.541 1612.51 805.071C1612.43 805.209 1612.32 805.302 1612.18 805.351 1612.04 805.399 1611.87 805.369 1611.67 805.261 1611.31 805.05 1610.92 804.884 1610.51 804.763 1610.11 804.643 1609.67 804.581 1609.2 804.579 1608.12 804.582 1607.21 805.101 1606.46 806.137 1605.72 807.172 1605.31 808.705 1605.25 810.735 1605.61 810.209 1606.12 809.765 1606.78 809.405 1607.44 809.044 1608.18 808.856 1608.99 808.841 1610.35 808.856 1611.45 809.266 1612.27 810.072 1613.1 810.878 1613.52 811.99 1613.55 813.406 1613.52 814.82 1613.08 815.919 1612.22 816.703 1611.36 817.487 1610.26 817.884 1608.9 817.896 1607.97 817.902 1607.12 817.673 1606.37 817.208 1605.61 816.743 1605.01 816.004 1604.56 814.992 1604.11 813.979 1603.88 812.655 1603.87 811.02 1603.88 809.327 1604.12 807.915 1604.59 806.784 1605.07 805.653 1605.7 804.803 1606.51 804.236 1607.31 803.669 1608.2 803.385 1609.2 803.385ZM1553.97 803.385C1555.32 803.406 1556.34 803.758 1557.05 804.441 1557.75 805.125 1558.1 806.017 1558.11 807.117 1558.11 807.936 1557.94 808.718 1557.6 809.461 1557.25 810.205 1556.72 810.939 1555.99 811.664L1551.4 816.324 1558.35 816.324 1558.35 817.006C1558.36 817.135 1558.31 817.251 1558.21 817.354 1558.1 817.457 1557.95 817.511 1557.73 817.517L1549.79 817.517 1549.79 816.248 1554.95 810.792C1555.51 810.209 1555.95 809.618 1556.25 809.019 1556.55 808.419 1556.71 807.785 1556.71 807.117 1556.7 806.373 1556.45 805.768 1555.96 805.301 1555.48 804.834 1554.81 804.593 1553.97 804.579 1553.38 804.583 1552.83 804.717 1552.33 804.981 1551.84 805.246 1551.37 805.617 1550.93 806.094 1550.75 806.277 1550.57 806.361 1550.39 806.348 1550.21 806.334 1550.05 806.262 1549.9 806.132L1549.53 805.81 1549.77 805.469C1550.26 804.827 1550.86 804.321 1551.57 803.951 1552.28 803.581 1553.08 803.393 1553.97 803.385ZM1542.44 803.196C1543.33 803.193 1544.16 803.27 1544.96 803.428 1545.75 803.586 1546.47 803.843 1547.11 804.2L1547.49 804.408 1547.07 805.488C1546.99 805.714 1546.87 805.854 1546.71 805.909 1546.55 805.965 1546.34 805.944 1546.09 805.848 1545.53 805.642 1544.95 805.466 1544.36 805.32 1543.77 805.173 1543.11 805.097 1542.4 805.09 1541.44 805.103 1540.6 805.364 1539.88 805.872 1539.16 806.38 1538.59 807.059 1538.18 807.908 1537.78 808.757 1537.57 809.7 1537.56 810.735 1537.57 811.763 1537.78 812.686 1538.19 813.505 1538.6 814.325 1539.17 814.974 1539.9 815.455 1540.64 815.935 1541.5 816.18 1542.48 816.191 1543.28 816.181 1543.99 816.083 1544.6 815.895 1545.22 815.708 1545.77 815.491 1546.26 815.244 1546.53 815.113 1546.77 815.091 1546.97 815.175 1547.17 815.26 1547.34 815.441 1547.47 815.718L1547.83 816.532 1547.49 816.76C1546.77 817.237 1546 817.579 1545.17 817.785 1544.35 817.991 1543.43 818.091 1542.42 818.086 1540.98 818.075 1539.73 817.758 1538.66 817.135 1537.59 816.512 1536.76 815.649 1536.16 814.547 1535.57 813.444 1535.27 812.167 1535.26 810.717 1535.29 808.397 1535.95 806.571 1537.23 805.237 1538.52 803.903 1540.26 803.223 1542.44 803.196ZM1639.7 782.484 1639.7 786.936 1642.81 786.936C1643.8 786.952 1644.57 786.801 1645.1 786.484 1645.63 786.166 1645.9 785.584 1645.91 784.739 1645.9 783.89 1645.63 783.299 1645.1 782.965 1644.57 782.631 1643.8 782.47 1642.81 782.484ZM1665.7 781.139C1664.9 781.15 1664.19 781.355 1663.57 781.755 1662.95 782.154 1662.42 782.682 1661.99 783.337 1662.18 784.972 1662.61 786.129 1663.29 786.806 1663.97 787.483 1664.74 787.81 1665.61 787.788 1666.55 787.781 1667.33 787.492 1667.94 786.922 1668.54 786.351 1668.85 785.541 1668.88 784.492 1668.86 783.441 1668.56 782.622 1667.99 782.034 1667.41 781.447 1666.65 781.149 1665.7 781.139ZM1627.55 776.574 1622.26 784.303 1627.55 784.303ZM1639.7 776.517 1639.7 780.59 1642.43 780.59C1643.35 780.601 1644.05 780.451 1644.54 780.14 1645.03 779.829 1645.28 779.291 1645.28 778.525 1645.28 777.762 1645.03 777.233 1644.54 776.938 1644.05 776.644 1643.35 776.503 1642.43 776.517ZM1651.37 774.85 1658.71 774.85 1658.71 775.532C1658.71 775.661 1658.66 775.777 1658.56 775.88 1658.46 775.983 1658.3 776.037 1658.08 776.043L1652.6 776.043 1652.07 780.628C1652.37 780.367 1652.73 780.154 1653.17 779.991 1653.6 779.827 1654.04 779.742 1654.47 779.737 1655.9 779.748 1657.03 780.157 1657.87 780.964 1658.71 781.771 1659.14 782.909 1659.16 784.379 1659.14 785.822 1658.71 786.947 1657.87 787.753 1657.03 788.559 1655.9 788.969 1654.47 788.982 1653.63 788.983 1652.83 788.853 1652.09 788.594 1651.34 788.334 1650.7 787.939 1650.18 787.41L1649.82 787.012 1650.2 786.557C1650.35 786.38 1650.52 786.289 1650.69 786.287 1650.86 786.285 1651.03 786.356 1651.18 786.5 1651.56 786.869 1652.04 787.174 1652.61 787.414 1653.19 787.655 1653.81 787.78 1654.47 787.788 1655.46 787.778 1656.25 787.472 1656.85 786.872 1657.44 786.272 1657.75 785.441 1657.76 784.379 1657.75 783.315 1657.44 782.477 1656.85 781.866 1656.25 781.255 1655.46 780.943 1654.47 780.931 1653.92 780.936 1653.4 781.063 1652.89 781.312 1652.39 781.561 1651.98 781.901 1651.66 782.333L1650.52 782.124ZM1627.34 774.85 1628.93 774.85 1628.93 784.284 1630.93 784.284 1630.93 784.966C1630.93 785.095 1630.88 785.211 1630.78 785.314 1630.68 785.417 1630.52 785.471 1630.31 785.477L1628.93 785.477 1628.93 788.603 1627.53 788.603 1627.53 785.477 1620.76 785.477 1620.76 784.227ZM1584.12 774.85 1588.35 774.85 1588.35 788.603 1586.95 788.603 1586.95 776.043 1584.93 776.043C1584.67 776.039 1584.47 775.972 1584.33 775.842 1584.19 775.712 1584.12 775.546 1584.12 775.342ZM1637.47 774.66 1643.26 774.66C1644.62 774.675 1645.67 775.015 1646.4 775.681 1647.13 776.347 1647.5 777.251 1647.51 778.392 1647.51 779.078 1647.36 779.672 1647.07 780.175 1646.78 780.679 1646.37 781.069 1645.85 781.348 1646.56 781.591 1647.11 782.003 1647.52 782.584 1647.92 783.164 1648.13 783.926 1648.14 784.871 1648.14 786.062 1647.76 787.009 1647.01 787.713 1646.25 788.416 1645.13 788.776 1643.64 788.792L1637.47 788.792ZM1546.94 774.66 1549.17 774.66 1549.17 780.59 1555.75 780.59 1555.75 774.66 1557.98 774.66 1557.98 787.504C1557.97 787.964 1557.86 788.295 1557.65 788.497 1557.44 788.698 1557.15 788.797 1556.79 788.792L1555.75 788.792 1555.75 782.484 1549.17 782.484 1549.17 787.504C1549.16 787.964 1549.06 788.295 1548.84 788.497 1548.63 788.698 1548.34 788.797 1547.98 788.792L1546.94 788.792ZM1665.91 774.471C1666.51 774.471 1667.09 774.542 1667.64 774.682 1668.19 774.822 1668.67 775.029 1669.06 775.304L1669.52 775.627 1669.22 776.157C1669.14 776.295 1669.03 776.388 1668.89 776.436 1668.75 776.484 1668.58 776.455 1668.38 776.346 1668.02 776.136 1667.63 775.97 1667.22 775.849 1666.82 775.728 1666.38 775.667 1665.91 775.664 1664.83 775.668 1663.92 776.187 1663.17 777.223 1662.43 778.258 1662.02 779.791 1661.96 781.821 1662.32 781.295 1662.83 780.851 1663.49 780.49 1664.15 780.13 1664.88 779.942 1665.7 779.927 1667.06 779.942 1668.16 780.352 1668.98 781.158 1669.81 781.964 1670.23 783.075 1670.26 784.492 1670.23 785.906 1669.79 787.005 1668.93 787.788 1668.07 788.572 1666.97 788.97 1665.61 788.982 1664.67 788.988 1663.83 788.759 1663.07 788.294 1662.32 787.828 1661.72 787.09 1661.27 786.077 1660.82 785.065 1660.59 783.741 1660.58 782.105 1660.59 780.413 1660.83 779.001 1661.3 777.87 1661.78 776.738 1662.41 775.889 1663.21 775.322 1664.02 774.755 1664.91 774.471 1665.91 774.471ZM1614.66 774.471C1616 774.491 1617.03 774.843 1617.73 775.527 1618.44 776.211 1618.79 777.103 1618.8 778.203 1618.8 779.022 1618.63 779.804 1618.28 780.547 1617.94 781.291 1617.41 782.025 1616.68 782.749L1612.09 787.41 1619.04 787.41 1619.04 788.092C1619.04 788.221 1618.99 788.337 1618.89 788.44 1618.79 788.543 1618.64 788.597 1618.42 788.603L1610.48 788.603 1610.48 787.334 1615.64 781.878C1616.2 781.295 1616.63 780.704 1616.94 780.104 1617.24 779.505 1617.39 778.871 1617.4 778.203 1617.39 777.459 1617.14 776.854 1616.65 776.387 1616.16 775.92 1615.5 775.679 1614.66 775.664 1614.07 775.668 1613.52 775.802 1613.02 776.067 1612.52 776.331 1612.06 776.702 1611.61 777.18 1611.44 777.363 1611.26 777.447 1611.08 777.433 1610.9 777.419 1610.74 777.348 1610.59 777.218L1610.22 776.896 1610.46 776.555C1610.95 775.913 1611.54 775.407 1612.25 775.037 1612.96 774.667 1613.77 774.478 1614.66 774.471ZM1575.86 774.471C1577.2 774.491 1578.23 774.843 1578.93 775.527 1579.64 776.211 1579.99 777.103 1580 778.203 1580 779.022 1579.83 779.804 1579.48 780.547 1579.14 781.291 1578.6 782.025 1577.88 782.749L1573.29 787.41 1580.24 787.41 1580.24 788.092C1580.24 788.221 1580.19 788.337 1580.09 788.44 1579.99 788.543 1579.83 788.597 1579.62 788.603L1571.68 788.603 1571.68 787.334 1576.84 781.878C1577.4 781.295 1577.83 780.704 1578.14 780.104 1578.44 779.505 1578.59 778.871 1578.6 778.203 1578.59 777.459 1578.34 776.854 1577.85 776.387 1577.36 775.92 1576.7 775.679 1575.86 775.664 1575.26 775.668 1574.72 775.802 1574.22 776.067 1573.72 776.331 1573.25 776.702 1572.81 777.18 1572.64 777.363 1572.46 777.447 1572.28 777.433 1572.1 777.419 1571.94 777.348 1571.79 777.218L1571.41 776.896 1571.66 776.555C1572.15 775.913 1572.74 775.407 1573.45 775.037 1574.16 774.667 1574.96 774.478 1575.86 774.471ZM1564.91 774.471C1566.26 774.491 1567.28 774.843 1567.99 775.527 1568.69 776.211 1569.05 777.103 1569.05 778.203 1569.06 779.022 1568.88 779.804 1568.54 780.547 1568.2 781.291 1567.66 782.025 1566.94 782.749L1562.34 787.41 1569.3 787.41 1569.3 788.092C1569.3 788.221 1569.25 788.337 1569.15 788.44 1569.05 788.543 1568.89 788.597 1568.67 788.603L1560.74 788.603 1560.74 787.334 1565.9 781.878C1566.46 781.295 1566.89 780.704 1567.19 780.104 1567.5 779.505 1567.65 778.871 1567.65 778.203 1567.64 777.459 1567.39 776.854 1566.91 776.387 1566.42 775.92 1565.75 775.679 1564.91 775.664 1564.32 775.668 1563.78 775.802 1563.28 776.067 1562.78 776.331 1562.31 776.702 1561.87 777.18 1561.7 777.363 1561.52 777.447 1561.34 777.433 1561.16 777.419 1560.99 777.348 1560.85 777.218L1560.47 776.896 1560.72 776.555C1561.2 775.913 1561.8 775.407 1562.51 775.037 1563.22 774.667 1564.02 774.478 1564.91 774.471ZM1602.79 774.281C1603.56 774.286 1604.34 774.396 1605.13 774.611 1605.92 774.826 1606.6 775.12 1607.18 775.494L1607.78 775.892 1607.31 776.668C1607.17 776.901 1606.99 777.056 1606.76 777.135 1606.54 777.213 1606.26 777.184 1605.93 777.047 1605.44 776.82 1604.95 776.621 1604.46 776.448 1603.98 776.276 1603.43 776.185 1602.81 776.176 1602.04 776.173 1601.45 776.316 1601.04 776.602 1600.64 776.889 1600.43 777.334 1600.43 777.938 1600.45 778.493 1600.78 778.955 1601.4 779.325 1602.02 779.695 1602.81 780.111 1603.76 780.571 1604.51 780.942 1605.2 781.301 1605.82 781.646 1606.44 781.992 1606.93 782.41 1607.31 782.899 1607.68 783.388 1607.87 784.033 1607.88 784.833 1607.86 785.901 1607.6 786.753 1607.1 787.389 1606.61 788.026 1605.98 788.484 1605.21 788.762 1604.45 789.041 1603.66 789.177 1602.85 789.171 1601.82 789.172 1600.91 789.023 1600.11 788.724 1599.31 788.424 1598.59 787.967 1597.94 787.353L1597.35 786.803 1597.84 786.254C1598.1 785.952 1598.37 785.78 1598.65 785.738 1598.93 785.696 1599.22 785.78 1599.54 785.989 1599.85 786.225 1600.27 786.492 1600.79 786.789 1601.31 787.087 1601.96 787.249 1602.72 787.277 1603.46 787.29 1604.12 787.117 1604.69 786.761 1605.26 786.404 1605.57 785.787 1605.61 784.909 1605.61 784.461 1605.45 784.084 1605.13 783.778 1604.81 783.472 1604.41 783.199 1603.91 782.958 1603.42 782.718 1602.9 782.471 1602.36 782.219 1601.72 781.923 1601.08 781.597 1600.44 781.24 1599.79 780.883 1599.26 780.452 1598.82 779.946 1598.39 779.439 1598.16 778.814 1598.14 778.07 1598.16 777.099 1598.4 776.337 1598.86 775.783 1599.32 775.229 1599.91 774.839 1600.61 774.611 1601.32 774.384 1602.05 774.274 1602.79 774.281ZM1641.69 753.57 1641.69 758.022 1644.79 758.022C1645.79 758.038 1646.56 757.887 1647.09 757.569 1647.62 757.252 1647.89 756.67 1647.9 755.824 1647.89 754.976 1647.62 754.385 1647.09 754.051 1646.56 753.716 1645.79 753.556 1644.79 753.57ZM1669.33 747.659 1664.04 755.388 1669.33 755.388ZM1641.69 747.603 1641.69 751.675 1644.42 751.675C1645.34 751.687 1646.04 751.537 1646.53 751.226 1647.02 750.915 1647.27 750.376 1647.27 749.611 1647.27 748.847 1647.02 748.318 1646.53 748.024 1646.04 747.73 1645.34 747.589 1644.42 747.603ZM1537.23 747.603 1537.23 752.604 1539.76 752.604C1540.84 752.631 1541.67 752.477 1542.27 752.142 1542.86 751.807 1543.16 751.127 1543.17 750.103 1543.16 749.079 1542.86 748.399 1542.27 748.064 1541.67 747.729 1540.84 747.575 1539.76 747.603ZM1627.63 746.75C1626.56 746.754 1625.71 747.267 1625.09 748.289 1624.46 749.311 1624.15 750.819 1624.13 752.812 1624.15 754.805 1624.46 756.313 1625.09 757.335 1625.71 758.357 1626.56 758.87 1627.63 758.874 1628.7 758.87 1629.55 758.357 1630.17 757.335 1630.79 756.313 1631.11 754.805 1631.13 752.812 1631.11 750.819 1630.79 749.311 1630.17 748.289 1629.55 747.267 1628.7 746.754 1627.63 746.75ZM1573.77 746.75C1572.74 746.771 1571.93 747.089 1571.35 747.704 1570.77 748.32 1570.47 749.107 1570.46 750.065 1570.48 751.091 1570.78 751.9 1571.36 752.492 1571.95 753.085 1572.71 753.387 1573.64 753.399 1574.46 753.393 1575.19 753.202 1575.83 752.829 1576.47 752.455 1576.97 751.938 1577.33 751.278 1577.18 749.738 1576.79 748.597 1576.17 747.856 1575.54 747.114 1574.74 746.746 1573.77 746.75ZM1562.96 746.75C1561.89 746.754 1561.04 747.267 1560.42 748.289 1559.8 749.311 1559.48 750.819 1559.46 752.812 1559.48 754.805 1559.8 756.313 1560.42 757.335 1561.04 758.357 1561.89 758.87 1562.96 758.874 1564.03 758.87 1564.88 758.357 1565.5 757.335 1566.13 756.313 1566.44 754.805 1566.46 752.812 1566.44 750.819 1566.13 749.311 1565.5 748.289 1564.88 747.267 1564.03 746.754 1562.96 746.75ZM1669.13 745.935 1670.71 745.935 1670.71 755.37 1672.72 755.37 1672.72 756.051C1672.72 756.181 1672.67 756.297 1672.57 756.4 1672.47 756.503 1672.31 756.557 1672.09 756.563L1670.71 756.563 1670.71 759.689 1669.32 759.689 1669.32 756.563 1662.55 756.563 1662.55 755.313ZM1653.76 745.935 1657.99 745.935 1657.99 759.689 1656.59 759.689 1656.59 747.129 1654.57 747.129C1654.31 747.125 1654.12 747.057 1653.97 746.928 1653.83 746.798 1653.76 746.631 1653.76 746.428ZM1603.02 745.935 1607.25 745.935 1607.25 759.689 1605.85 759.689 1605.85 747.129 1603.83 747.129C1603.57 747.125 1603.38 747.057 1603.23 746.928 1603.09 746.798 1603.02 746.631 1603.02 746.428ZM1549.29 745.935 1553.53 745.935 1553.53 759.689 1552.13 759.689 1552.13 747.129 1550.11 747.129C1549.85 747.125 1549.65 747.057 1549.51 746.928 1549.37 746.798 1549.3 746.631 1549.29 746.428ZM1639.46 745.746 1645.25 745.746C1646.61 745.761 1647.66 746.101 1648.39 746.767 1649.12 747.432 1649.49 748.336 1649.5 749.478 1649.5 750.164 1649.35 750.758 1649.06 751.261 1648.77 751.764 1648.36 752.155 1647.84 752.433 1648.55 752.677 1649.1 753.089 1649.51 753.669 1649.91 754.249 1650.12 755.012 1650.13 755.957 1650.12 757.148 1649.75 758.095 1649 758.798 1648.24 759.502 1647.12 759.862 1645.63 759.878L1639.46 759.878ZM1535 745.746 1540.5 745.746C1542.08 745.749 1543.29 746.117 1544.13 746.852 1544.97 747.586 1545.39 748.67 1545.4 750.103 1545.39 751.108 1545.18 751.944 1544.76 752.611 1544.34 753.277 1543.73 753.768 1542.92 754.081L1546.38 759.878 1543.77 759.878 1540.5 754.46 1537.23 754.46 1537.23 758.59C1537.23 759.05 1537.12 759.38 1536.9 759.582 1536.69 759.784 1536.4 759.883 1536.04 759.878L1535 759.878ZM1678.33 745.557C1679.71 745.564 1680.76 745.891 1681.49 746.537 1682.21 747.183 1682.58 748.107 1682.58 749.307 1682.58 750.024 1682.4 750.656 1682.04 751.204 1681.68 751.752 1681.18 752.181 1680.54 752.49 1681.36 752.799 1681.97 753.261 1682.38 753.878 1682.79 754.494 1683 755.231 1683 756.089 1682.99 757.308 1682.59 758.271 1681.79 758.981 1680.98 759.69 1679.83 760.052 1678.33 760.068 1677.49 760.063 1676.68 759.921 1675.92 759.641 1675.15 759.362 1674.51 758.974 1673.98 758.476L1673.59 758.06 1673.91 757.7C1674.06 757.526 1674.22 757.423 1674.39 757.389 1674.56 757.356 1674.73 757.409 1674.91 757.548 1675.42 757.951 1675.96 758.272 1676.52 758.509 1677.09 758.747 1677.69 758.869 1678.33 758.874 1679.33 758.863 1680.12 758.61 1680.7 758.114 1681.29 757.618 1681.59 756.943 1681.6 756.089 1681.59 755.229 1681.29 754.529 1680.7 753.989 1680.12 753.449 1679.33 753.17 1678.33 753.153L1677.31 753.153C1677.05 753.149 1676.85 753.082 1676.71 752.952 1676.57 752.822 1676.5 752.655 1676.5 752.452L1676.5 751.998 1678.33 751.998C1679.19 751.982 1679.88 751.728 1680.4 751.235 1680.91 750.742 1681.17 750.099 1681.19 749.307 1681.17 748.521 1680.91 747.901 1680.4 747.446 1679.88 746.992 1679.19 746.76 1678.33 746.75 1677.88 746.754 1677.43 746.851 1676.97 747.041 1676.52 747.232 1676.04 747.495 1675.53 747.83 1675.34 747.948 1675.15 747.987 1674.98 747.946 1674.8 747.905 1674.66 747.816 1674.55 747.678L1674.21 747.224 1674.63 746.883C1675.15 746.454 1675.74 746.127 1676.38 745.9 1677.02 745.673 1677.67 745.559 1678.33 745.557ZM1627.63 745.557C1629.14 745.553 1630.33 746.152 1631.19 747.352 1632.05 748.551 1632.49 750.371 1632.51 752.812 1632.49 755.253 1632.05 757.073 1631.19 758.273 1630.33 759.472 1629.14 760.071 1627.63 760.068 1626.12 760.071 1624.93 759.472 1624.07 758.273 1623.21 757.073 1622.77 755.253 1622.75 752.812 1622.77 750.371 1623.21 748.551 1624.07 747.352 1624.93 746.152 1626.12 745.553 1627.63 745.557ZM1616.65 745.557C1617.99 745.577 1619.02 745.929 1619.72 746.613 1620.43 747.296 1620.78 748.188 1620.79 749.289 1620.79 750.108 1620.62 750.889 1620.27 751.633 1619.93 752.376 1619.39 753.11 1618.67 753.835L1614.08 758.495 1621.03 758.495 1621.03 759.177C1621.03 759.306 1620.98 759.422 1620.88 759.525 1620.78 759.628 1620.63 759.683 1620.41 759.689L1612.47 759.689 1612.47 758.419 1617.63 752.964C1618.19 752.381 1618.62 751.79 1618.93 751.19 1619.23 750.591 1619.38 749.957 1619.39 749.289 1619.38 748.545 1619.13 747.939 1618.64 747.472 1618.15 747.005 1617.49 746.765 1616.65 746.75 1616.05 746.754 1615.51 746.888 1615.01 747.153 1614.51 747.417 1614.05 747.788 1613.6 748.266 1613.43 748.448 1613.25 748.533 1613.07 748.519 1612.89 748.505 1612.73 748.433 1612.58 748.303L1612.21 747.981 1612.45 747.64C1612.94 746.998 1613.53 746.492 1614.24 746.123 1614.95 745.753 1615.76 745.564 1616.65 745.557ZM1573.77 745.557C1575.3 745.548 1576.51 746.105 1577.4 747.226 1578.29 748.347 1578.74 750.083 1578.76 752.433 1578.75 754.317 1578.52 755.818 1578.06 756.938 1577.61 758.058 1577 758.863 1576.23 759.351 1575.46 759.84 1574.6 760.079 1573.64 760.068 1572.85 760.064 1572.16 759.967 1571.56 759.774 1570.96 759.581 1570.47 759.313 1570.07 758.969L1569.67 758.628 1569.93 758.173C1570.04 757.991 1570.17 757.882 1570.33 757.844 1570.49 757.807 1570.67 757.853 1570.86 757.984 1571.21 758.228 1571.62 758.436 1572.09 758.607 1572.55 758.777 1573.08 758.867 1573.68 758.874 1574.32 758.884 1574.91 758.698 1575.46 758.314 1576.01 757.931 1576.46 757.289 1576.81 756.39 1577.16 755.491 1577.35 754.273 1577.38 752.736 1577.04 753.254 1576.54 753.692 1575.88 754.051 1575.22 754.409 1574.47 754.596 1573.64 754.612 1572.29 754.599 1571.2 754.194 1570.37 753.397 1569.54 752.6 1569.11 751.49 1569.08 750.065 1569.09 748.75 1569.5 747.677 1570.32 746.845 1571.13 746.013 1572.28 745.583 1573.77 745.557ZM1562.96 745.557C1564.47 745.553 1565.66 746.152 1566.52 747.352 1567.38 748.551 1567.82 750.371 1567.84 752.812 1567.82 755.253 1567.38 757.073 1566.52 758.273 1565.66 759.472 1564.47 760.071 1562.96 760.068 1561.45 760.071 1560.26 759.472 1559.4 758.273 1558.54 757.073 1558.1 755.253 1558.08 752.812 1558.1 750.371 1558.54 748.551 1559.4 747.352 1560.26 746.152 1561.45 745.553 1562.96 745.557ZM1593.18 745.367C1594.07 745.364 1594.9 745.441 1595.7 745.599 1596.49 745.757 1597.21 746.014 1597.85 746.371L1598.23 746.58 1597.81 747.659C1597.73 747.885 1597.61 748.026 1597.45 748.081 1597.29 748.136 1597.08 748.116 1596.83 748.019 1596.27 747.814 1595.69 747.638 1595.1 747.491 1594.51 747.345 1593.85 747.268 1593.14 747.262 1591.69 747.293 1590.53 747.827 1589.65 748.862 1588.78 749.898 1588.33 751.246 1588.3 752.907 1588.31 753.934 1588.52 754.858 1588.93 755.677 1589.34 756.496 1589.91 757.146 1590.64 757.626 1591.38 758.106 1592.24 758.352 1593.22 758.363 1593.8 758.361 1594.34 758.312 1594.83 758.213 1595.32 758.115 1595.76 757.976 1596.17 757.794L1596.17 753.93 1593.63 753.93C1593.38 753.925 1593.18 753.858 1593.04 753.728 1592.9 753.599 1592.82 753.432 1592.82 753.229L1592.82 752.035 1597.68 752.035C1597.93 752.035 1598.11 752.097 1598.24 752.222 1598.37 752.348 1598.43 752.538 1598.44 752.793L1598.44 758.836C1597.71 759.335 1596.9 759.697 1596.01 759.923 1595.13 760.149 1594.18 760.261 1593.16 760.257 1591.72 760.246 1590.47 759.929 1589.4 759.306 1588.33 758.684 1587.49 757.821 1586.9 756.718 1586.31 755.615 1586.01 754.339 1586 752.888 1586.03 750.569 1586.69 748.742 1587.97 747.408 1589.26 746.074 1591 745.394 1593.18 745.367ZM1658.31 717.476 1655.93 724.113 1660.69 724.113ZM1640.11 716.471 1640.11 721.998 1642.91 721.998C1644.1 722.029 1645.02 721.858 1645.67 721.488 1646.33 721.118 1646.66 720.367 1646.67 719.235 1646.66 718.103 1646.33 717.352 1645.67 716.981 1645.02 716.611 1644.1 716.441 1642.91 716.471ZM1542.61 716.471 1542.61 722.208 1545.24 722.208C1546.43 722.234 1547.35 722.046 1548.01 721.645 1548.66 721.244 1548.99 720.476 1549 719.339 1548.99 718.203 1548.66 717.434 1548.01 717.034 1547.35 716.633 1546.43 716.445 1545.24 716.471ZM1664.16 714.419 1666.67 714.419 1670.93 721.287 1675.19 714.419 1677.7 714.419 1672.21 723.757 1672.21 728.615C1672.2 729.123 1672.08 729.488 1671.84 729.711 1671.61 729.934 1671.29 730.043 1670.89 730.039L1669.66 730.039 1669.66 723.757ZM1657.12 714.419 1659.5 714.419 1665.39 730.039 1662.82 730.039 1661.44 726.207 1655.18 726.207 1653.8 730.039 1651.23 730.039ZM1637.64 714.419 1643.72 714.419C1645.46 714.422 1646.8 714.829 1647.73 715.641 1648.66 716.453 1649.12 717.651 1649.13 719.235 1649.13 720.346 1648.9 721.269 1648.43 722.006 1647.96 722.743 1647.29 723.285 1646.4 723.632L1650.22 730.039 1647.34 730.039 1643.72 724.05 1640.11 724.05 1640.11 728.615C1640.1 729.123 1639.98 729.488 1639.75 729.711 1639.51 729.934 1639.19 730.043 1638.79 730.039L1637.64 730.039ZM1600.83 714.419 1611.38 714.419 1611.38 715.905C1611.38 716.048 1611.33 716.176 1611.22 716.29 1611.11 716.404 1610.93 716.464 1610.69 716.471L1603.3 716.471 1603.3 721.014 1611.17 721.014 1611.17 722.459C1611.17 722.602 1611.12 722.73 1611.01 722.844 1610.9 722.958 1610.72 723.018 1610.48 723.024L1603.3 723.024 1603.3 727.987 1611.72 727.987 1611.72 729.473C1611.72 729.616 1611.66 729.744 1611.55 729.858 1611.44 729.972 1611.27 730.032 1611.03 730.039L1600.83 730.039ZM1588.89 714.419 1591.36 714.419 1591.36 727.987 1598.65 727.987 1598.65 729.473C1598.65 729.616 1598.6 729.744 1598.48 729.858 1598.37 729.972 1598.2 730.032 1597.96 730.039L1588.89 730.039ZM1574.96 714.419 1577.43 714.419 1577.43 720.47 1583.24 714.419 1586.41 714.419 1579.35 721.915 1587.1 730.039 1583.93 730.039 1577.43 723.422 1577.43 728.615C1577.42 729.123 1577.3 729.488 1577.07 729.711 1576.83 729.934 1576.51 730.043 1576.11 730.039L1574.96 730.039ZM1554.01 714.419 1556.51 714.419 1556.51 728.615C1556.51 729.123 1556.39 729.488 1556.15 729.711 1555.92 729.934 1555.6 730.043 1555.2 730.039L1554.01 730.039ZM1540.14 714.419 1546.05 714.419C1547.8 714.426 1549.13 714.851 1550.06 715.693 1550.99 716.536 1551.46 717.751 1551.47 719.339 1551.46 720.927 1550.99 722.143 1550.06 722.985 1549.13 723.827 1547.8 724.252 1546.05 724.26L1542.61 724.26 1542.61 728.615C1542.6 729.123 1542.48 729.488 1542.25 729.711 1542.01 729.934 1541.69 730.043 1541.29 730.039L1540.14 730.039ZM1628.85 714C1629.83 713.997 1630.75 714.082 1631.63 714.257 1632.51 714.431 1633.3 714.715 1634.01 715.11L1634.43 715.34 1633.97 716.534C1633.87 716.783 1633.74 716.938 1633.56 717 1633.39 717.061 1633.16 717.038 1632.88 716.931 1632.26 716.704 1631.62 716.51 1630.97 716.348 1630.31 716.186 1629.59 716.101 1628.81 716.094 1627.2 716.129 1625.92 716.719 1624.95 717.863 1623.98 719.008 1623.48 720.498 1623.46 722.333 1623.46 723.469 1623.69 724.49 1624.15 725.395 1624.6 726.3 1625.23 727.018 1626.04 727.549 1626.85 728.08 1627.8 728.352 1628.89 728.364 1629.54 728.362 1630.13 728.307 1630.67 728.199 1631.21 728.09 1631.7 727.936 1632.15 727.735L1632.15 723.464 1629.35 723.464C1629.06 723.459 1628.84 723.385 1628.69 723.242 1628.53 723.098 1628.45 722.914 1628.45 722.689L1628.45 721.37 1633.82 721.37C1634.09 721.37 1634.3 721.439 1634.44 721.577 1634.58 721.715 1634.66 721.926 1634.66 722.208L1634.66 728.887C1633.85 729.438 1632.96 729.838 1631.98 730.088 1631 730.338 1629.95 730.461 1628.83 730.457 1627.24 730.445 1625.85 730.095 1624.67 729.406 1623.48 728.718 1622.56 727.765 1621.91 726.546 1621.25 725.327 1620.92 723.916 1620.91 722.313 1620.94 719.749 1621.67 717.731 1623.09 716.256 1624.51 714.782 1626.43 714.03 1628.85 714ZM1567.16 714C1568.14 713.997 1569.07 714.082 1569.95 714.257 1570.83 714.431 1571.62 714.715 1572.32 715.11L1572.74 715.34 1572.28 716.534C1572.19 716.783 1572.06 716.938 1571.88 717 1571.7 717.061 1571.48 717.038 1571.2 716.931 1570.58 716.704 1569.94 716.51 1569.28 716.348 1568.63 716.186 1567.91 716.101 1567.12 716.094 1566.06 716.108 1565.13 716.396 1564.33 716.958 1563.53 717.519 1562.91 718.27 1562.46 719.208 1562.01 720.147 1561.78 721.189 1561.77 722.333 1561.78 723.469 1562.01 724.49 1562.46 725.395 1562.91 726.3 1563.55 727.018 1564.36 727.549 1565.17 728.08 1566.12 728.352 1567.21 728.364 1568.09 728.353 1568.87 728.244 1569.55 728.036 1570.24 727.829 1570.85 727.589 1571.38 727.317 1571.69 727.172 1571.95 727.147 1572.17 727.241 1572.39 727.335 1572.58 727.534 1572.72 727.84L1573.12 728.74 1572.74 728.992C1571.95 729.52 1571.1 729.898 1570.19 730.125 1569.27 730.352 1568.26 730.463 1567.14 730.457 1565.55 730.445 1564.17 730.095 1562.98 729.406 1561.8 728.718 1560.88 727.765 1560.22 726.546 1559.57 725.327 1559.23 723.916 1559.22 722.313 1559.26 719.749 1559.99 717.731 1561.41 716.256 1562.83 714.782 1564.75 714.03 1567.16 714Z" fill="url(#fill1)" fill-rule="evenodd"/></g></svg>