<svg xmlns="http://www.w3.org/2000/svg" xmlns:xlink="http://www.w3.org/1999/xlink" width="52" height="51" overflow="hidden"><defs><clipPath id="clip0"><path fill-rule="evenodd" d="M439 205 491 205 491 256 439 256Z" clip-rule="evenodd"/></clipPath></defs><g clip-path="url(#clip0)" transform="translate(-439 -205)"><path fill="#FF7C80" fill-rule="evenodd" d="M440 230C440 216.193 451.193 205 465 205 478.807 205 490 216.193 490 230 490 243.807 478.807 255 465 255 451.193 255 440 243.807 440 230Z"/><path fill="#FFF" fill-rule="evenodd" d="M465 225C462.239 225 460 227.239 460 230 460 232.761 462.239 235 465 235 467.761 235 470 232.761 470 230 470 227.239 467.761 225 465 225ZM465 222.297C469.254 222.297 472.703 225.746 472.703 230 472.703 234.254 469.254 237.703 465 237.703 460.746 237.703 457.297 234.254 457.297 230 457.297 225.746 460.746 222.297 465 222.297ZM473.007 220.193C474.001 220.193 474.807 220.999 474.807 221.993 474.807 222.987 474.001 223.793 473.007 223.793 472.013 223.793 471.207 222.987 471.207 221.993 471.207 220.999 472.013 220.193 473.007 220.193ZM465 217.703C460.995 217.703 460.52 217.718 458.939 217.79 457.476 217.857 456.682 218.101 456.153 218.307 455.453 218.579 454.954 218.904 454.429 219.429 453.904 219.954 453.579 220.453 453.307 221.153 453.101 221.682 452.857 222.476 452.79 223.939 452.718 225.52 452.703 225.995 452.703 230 452.703 234.005 452.718 234.48 452.79 236.061 452.857 237.524 453.101 238.318 453.307 238.847 453.579 239.547 453.904 240.046 454.429 240.571 454.954 241.096 455.453 241.421 456.153 241.693 456.682 241.899 457.476 242.143 458.939 242.21 460.52 242.282 460.995 242.297 465 242.297 469.005 242.297 469.48 242.282 471.061 242.21 472.524 242.143 473.318 241.899 473.847 241.693 474.547 241.421 475.046 241.096 475.571 240.571 476.096 240.046 476.421 239.547 476.693 238.847 476.899 238.318 477.143 237.524 477.21 236.061 477.282 234.48 477.297 234.005 477.297 230 477.297 225.995 477.282 225.52 477.21 223.939 477.143 222.476 476.899 221.682 476.693 221.153 476.421 220.453 476.096 219.954 475.571 219.429 475.046 218.904 474.547 218.579 473.847 218.307 473.318 218.101 472.524 217.857 471.061 217.79 469.48 217.718 469.005 217.703 465 217.703ZM465 215C469.074 215 469.585 215.017 471.184 215.09 472.781 215.163 473.871 215.417 474.826 215.787 475.812 216.171 476.648 216.684 477.482 217.518 478.316 218.352 478.829 219.188 479.213 220.174 479.583 221.129 479.837 222.219 479.91 223.816 479.983 225.415 480 225.926 480 230 480 234.074 479.983 234.585 479.91 236.184 479.837 237.781 479.583 238.871 479.213 239.826 478.829 240.812 478.316 241.649 477.482 242.482 476.648 243.316 475.812 243.829 474.826 244.213 473.871 244.583 472.781 244.837 471.184 244.91 469.585 244.983 469.074 245 465 245 460.926 245 460.415 244.983 458.816 244.91 457.219 244.837 456.129 244.583 455.174 244.213 454.188 243.829 453.352 243.316 452.518 242.482 451.684 241.649 451.171 240.812 450.787 239.826 450.417 238.871 450.163 237.781 450.09 236.184 450.017 234.585 450 234.074 450 230 450 225.926 450.017 225.415 450.09 223.816 450.163 222.219 450.417 221.129 450.787 220.174 451.171 219.188 451.684 218.352 452.518 217.518 453.352 216.684 454.188 216.171 455.174 215.787 456.129 215.417 457.219 215.163 458.816 215.09 460.415 215.017 460.926 215 465 215Z"/></g></svg>