<svg xmlns="http://www.w3.org/2000/svg" xmlns:xlink="http://www.w3.org/1999/xlink" width="82" height="82" overflow="hidden"><defs><clipPath id="clip0"><path fill-rule="evenodd" d="M329 67 411 67 411 149 329 149Z" clip-rule="evenodd"/></clipPath></defs><g clip-path="url(#clip0)" transform="translate(-329 -67)"><path fill="#6D788F" fill-rule="evenodd" d="M330 72.5168C330 70.0222 332.022 68 334.517 68L405.483 68C407.978 68 410 70.0222 410 72.5168L410 143.483C410 145.978 407.978 148 405.483 148L334.517 148C332.022 148 330 145.978 330 143.483Z"/><path fill="#FFF" fill-rule="evenodd" d="M369.096 129.089 368.635 131.438 371.365 131.438 370.904 129.089C370.859 129.092 370.813 129.094 370.767 129.094L369.233 129.094C369.187 129.094 369.142 129.092 369.096 129.089ZM370 124.73 368.467 126.293 368.467 126.75C368.467 127.181 368.811 127.532 369.233 127.532L370.767 127.532C371.19 127.532 371.533 127.181 371.533 126.75L371.534 126.75 371.534 126.293ZM381.062 120.588 375.22 128.772C375.088 128.957 374.884 129.074 374.66 129.092 374.64 129.093 374.62 129.094 374.6 129.094 374.398 129.094 374.202 129.012 374.058 128.865L372.883 127.668C372.758 127.967 372.572 128.234 372.343 128.455L372.929 131.438 389.934 131.438C390.779 131.438 391.467 130.867 391.467 130.167L391.467 128.229C391.467 125.702 389.924 122.704 386.976 121.848ZM358.938 120.588 353.024 121.848C350.076 122.703 348.533 125.702 348.533 128.229L348.533 130.167C348.533 130.867 349.221 131.438 350.067 131.437L367.072 131.437 367.657 128.454C367.428 128.234 367.243 127.967 367.117 127.668L365.942 128.865C365.798 129.012 365.603 129.094 365.4 129.094 365.38 129.094 365.36 129.093 365.34 129.091 365.116 129.074 364.912 128.957 364.78 128.772ZM378.299 117.377 371.126 123.669 372.842 125.417C372.842 125.417 372.842 125.417 372.842 125.417L374.508 127.114 379.801 119.698ZM361.701 117.377 360.199 119.698 365.492 127.114 367.158 125.417C367.158 125.417 367.158 125.417 367.158 125.417L368.874 123.668ZM361.515 115.825C361.928 115.774 362.349 115.898 362.671 116.167 362.676 116.171 362.681 116.175 362.686 116.179L370 122.595 377.314 116.179C377.319 116.175 377.324 116.171 377.329 116.167 377.651 115.899 378.072 115.774 378.485 115.825 378.897 115.876 379.277 116.1 379.527 116.439 379.536 116.451 379.545 116.464 379.553 116.477L381.2 119.021 387.316 120.324C387.332 120.328 387.349 120.332 387.365 120.337 389.059 120.82 390.5 121.891 391.534 123.434 392.48 124.845 393 126.548 393 128.229L393 130.167C393 131.729 391.624 133 389.933 133L372.302 133C372.301 133 372.3 133 372.299 133 372.298 133 372.297 133 372.296 133L367.704 133C367.703 133 367.702 133 367.701 133 367.7 133 367.699 133 367.698 133L350.067 133C348.376 133 347 131.729 347 130.167L347 128.229C347 126.548 347.521 124.845 348.466 123.434 349.5 121.891 350.941 120.82 352.635 120.337 352.651 120.332 352.668 120.328 352.685 120.324L358.801 119.021 360.447 116.477C360.455 116.464 360.464 116.451 360.474 116.439 360.723 116.1 361.103 115.876 361.515 115.825ZM372.3 110.347C371.878 110.347 371.534 110.697 371.534 111.128 371.534 111.559 371.878 111.909 372.3 111.909 372.723 111.909 373.067 111.559 373.067 111.128 373.067 110.697 372.723 110.347 372.3 110.347ZM381.518 100.191 381.518 103.296C381.518 104.346 381.408 105.403 381.196 106.441L382.267 106.441C382.69 106.441 383.034 106.091 383.034 105.66L383.034 100.973C383.034 100.542 382.69 100.191 382.267 100.191ZM357.733 100.191C357.311 100.191 356.967 100.542 356.967 100.973L356.967 105.66C356.967 106.091 357.311 106.441 357.733 106.441L358.8 106.441C358.587 105.403 358.476 104.345 358.476 103.29L358.476 101.6C358.43 101.397 358.317 100.889 358.172 100.191ZM365.847 94.4054C364.666 94.425 363.409 94.5043 362.084 94.6628 361.558 95.8597 360.009 99.6174 360.009 102.4L360.009 103.29C360.009 106.438 361.103 109.624 363.011 112.031 364.944 114.47 367.429 115.814 370.008 115.814 371.67 115.814 373.302 115.249 374.783 114.175 374.288 113.957 373.81 113.667 373.358 113.303 373.334 113.284 373.312 113.264 373.292 113.243 372.991 113.389 372.655 113.472 372.3 113.472 371.032 113.472 370 112.421 370 111.128 370 109.836 371.032 108.785 372.3 108.785 373.568 108.785 374.6 109.836 374.6 111.128 374.6 111.487 374.52 111.827 374.378 112.132 375.783 113.227 377.442 113.393 379.06 112.595 380.774 111.75 382.109 109.992 382.7 107.961 382.56 107.989 382.415 108.004 382.267 108.004L380.796 108.004C380.411 109.247 379.88 110.442 379.212 111.54 379.067 111.779 378.816 111.91 378.559 111.91 378.422 111.91 378.282 111.872 378.156 111.793 377.796 111.565 377.685 111.084 377.908 110.717 379.247 108.515 379.985 105.88 379.985 103.296L379.985 100.203 378.602 96.8505C378.056 96.5803 376.541 95.8921 374.233 95.3174 372.259 94.826 369.392 94.3468 365.847 94.4054ZM368.624 84.5722C366.784 84.5401 365.078 84.8796 363.67 85.9689 363.47 86.1239 363.219 86.1624 362.995 86.0969 362.927 86.1169 362.856 86.1281 362.782 86.1281 360.651 86.1281 358.5 87.8189 358.5 91.5964 358.5 93.2426 358.892 95.7635 359.274 97.8277 359.949 95.5709 360.817 93.7253 360.876 93.6001 360.877 93.5986 360.878 93.5973 360.879 93.5959 360.886 93.5806 360.894 93.5659 360.903 93.5512 360.907 93.5431 360.911 93.5347 360.916 93.5268 360.923 93.516 360.93 93.5058 360.937 93.4954 360.945 93.4846 360.952 93.4732 360.96 93.4628 360.961 93.4609 360.963 93.4592 360.964 93.4572 361.004 93.4051 361.051 93.3595 361.101 93.3202 361.107 93.3156 361.112 93.3105 361.119 93.306 361.119 93.3057 361.119 93.3055 361.12 93.3053 361.191 93.2532 361.271 93.2139 361.359 93.1889 361.368 93.1862 361.378 93.183 361.387 93.1807 361.398 93.1781 361.409 93.1764 361.42 93.1742 361.434 93.1713 361.449 93.1683 361.463 93.1662 361.465 93.166 361.467 93.1655 361.469 93.1653 372.516 91.7171 379.288 95.4407 379.571 95.5999 379.722 95.6848 379.84 95.8191 379.907 95.981L380.607 97.6795C381.893 92.2937 381.446 87.9222 380.974 86.1885 380.704 86.2088 380.431 86.2194 380.154 86.2194 378.357 86.2194 376.41 85.8212 374.375 85.4047 372.436 85.0079 370.463 84.6043 368.624 84.5722ZM368.51 83.0007C370.511 83.0211 372.611 83.4503 374.677 83.873 377.142 84.3771 379.469 84.8534 381.392 84.5736 381.394 84.5732 381.397 84.5732 381.4 84.5728 381.417 84.5705 381.435 84.5691 381.452 84.5679 381.46 84.5674 381.468 84.5666 381.476 84.5664 381.493 84.5659 381.51 84.5663 381.526 84.5668 381.535 84.5672 381.544 84.5672 381.553 84.5678 381.568 84.5688 381.582 84.5708 381.597 84.5727 381.608 84.5741 381.618 84.5751 381.629 84.577 381.642 84.5791 381.654 84.5823 381.667 84.5851 381.679 84.5878 381.69 84.5902 381.702 84.5935 381.714 84.5968 381.725 84.6009 381.737 84.6047 381.749 84.6087 381.761 84.6124 381.772 84.6168 381.785 84.6216 381.796 84.6272 381.808 84.6326 381.819 84.6372 381.829 84.6414 381.839 84.6465 381.853 84.6534 381.866 84.661 381.879 84.6686 381.887 84.6732 381.895 84.6775 381.903 84.6824 381.917 84.6913 381.931 84.7012 381.944 84.7112 381.951 84.7157 381.957 84.7198 381.963 84.7243 381.977 84.7351 381.99 84.7466 382.003 84.7582 382.008 84.763 382.014 84.7675 382.019 84.7725 382.031 84.7837 382.043 84.7957 382.054 84.8077 382.06 84.8142 382.066 84.8204 382.072 84.8271 382.081 84.8377 382.09 84.8489 382.099 84.8601 382.106 84.8693 382.113 84.8782 382.12 84.8878 382.127 84.8972 382.133 84.907 382.139 84.9168 382.147 84.929 382.155 84.9413 382.162 84.954 382.167 84.9624 382.172 84.9713 382.176 84.9799 382.184 84.9945 382.191 85.0092 382.198 85.0244 382.199 85.0272 382.201 85.0296 382.202 85.0323 382.882 86.6083 383.652 92.0278 381.953 98.6291L382.267 98.6291C383.535 98.6291 384.567 99.6805 384.567 100.973L384.567 105.66C384.567 109.222 382.622 112.574 379.728 114.001 378.843 114.438 377.932 114.654 377.036 114.654 376.913 114.654 376.79 114.649 376.667 114.641 376.658 114.649 376.65 114.659 376.64 114.667 374.664 116.439 372.371 117.376 370.008 117.376 366.956 117.376 364.048 115.826 361.818 113.013 360.66 111.551 359.771 109.832 359.202 108.003L358.5 108.003 358.5 117.378C358.5 117.809 358.157 118.159 357.733 118.159 357.31 118.159 356.967 117.809 356.967 117.378L356.967 107.869C356.074 107.547 355.433 106.678 355.433 105.66L355.433 100.973C355.433 99.6804 356.465 98.629 357.733 98.629L357.861 98.629C357.441 96.4239 356.967 93.5133 356.967 91.5965 356.967 87.4569 359.358 84.5658 362.782 84.5658 362.835 84.5658 362.887 84.5713 362.937 84.5819 364.607 83.369 366.508 82.9804 368.51 83.0007Z"/></g></svg>