<svg width="180" height="201" xmlns="http://www.w3.org/2000/svg" xmlns:xlink="http://www.w3.org/1999/xlink" overflow="hidden"><defs><clipPath id="clip0"><path d="M822 531 1002 531 1002 732 822 732Z" fill-rule="evenodd" clip-rule="evenodd"/></clipPath><linearGradient x1="912" y1="584" x2="912" y2="691" gradientUnits="userSpaceOnUse" spreadMethod="reflect" id="fill1"><stop offset="0" stop-color="#FFFFFF"/><stop offset="0.0354" stop-color="#FFFFFF"/><stop offset="0.35398" stop-color="#FFFFFF"/><stop offset="1" stop-color="#FFFFFF"/></linearGradient></defs><g clip-path="url(#clip0)" transform="translate(-822 -531)"><path d="M912 531 1001 581.83 1001 680.17 912 731 823 680.17 823 581.83Z" fill="#FF9966" fill-rule="evenodd"/><path d="M941.079 684.538C940.437 684.547 939.865 684.712 939.362 685.033 938.859 685.355 938.435 685.779 938.091 686.306 938.241 687.622 938.589 688.552 939.135 689.097 939.682 689.641 940.304 689.905 941.003 689.887 941.767 689.882 942.393 689.649 942.883 689.19 943.372 688.731 943.625 688.079 943.641 687.236 943.629 686.39 943.391 685.731 942.927 685.258 942.462 684.786 941.847 684.546 941.079 684.538ZM932.251 684.538C931.609 684.547 931.036 684.712 930.533 685.033 930.03 685.355 929.607 685.779 929.262 686.306 929.412 687.622 929.76 688.552 930.307 689.097 930.853 689.641 931.476 689.905 932.175 689.887 932.938 689.882 933.565 689.649 934.054 689.19 934.543 688.731 934.796 688.079 934.813 687.236 934.8 686.39 934.562 685.731 934.098 685.258 933.634 684.786 933.018 684.546 932.251 684.538ZM883.445 683.425 882.911 686.519 885.351 686.519 885.885 683.425ZM923.102 680.133C922.27 680.15 921.62 680.406 921.15 680.901 920.68 681.396 920.442 682.029 920.433 682.801 920.448 683.626 920.69 684.277 921.16 684.753 921.629 685.23 922.241 685.473 922.995 685.483 923.658 685.478 924.247 685.324 924.762 685.024 925.278 684.723 925.68 684.307 925.969 683.776 925.852 682.537 925.54 681.62 925.033 681.023 924.526 680.427 923.882 680.13 923.102 680.133ZM914.273 680.133C913.442 680.15 912.791 680.406 912.321 680.901 911.852 681.396 911.613 682.029 911.605 682.801 911.619 683.626 911.861 684.277 912.331 684.753 912.801 685.23 913.413 685.473 914.167 685.483 914.829 685.478 915.418 685.324 915.934 685.024 916.449 684.723 916.852 684.307 917.14 683.776 917.024 682.537 916.712 681.62 916.204 681.023 915.697 680.427 915.053 680.13 914.273 680.133ZM901.608 679.478 908.927 679.478 908.927 680.027C908.928 680.131 908.888 680.224 908.807 680.307 908.726 680.39 908.598 680.434 908.424 680.438L902.736 680.438 902.736 684.309 908.775 684.309 908.775 684.828C908.776 684.931 908.736 685.025 908.655 685.108 908.574 685.19 908.446 685.234 908.272 685.239L902.736 685.239 902.736 690.543 901.608 690.543ZM891.976 679.478 899.296 679.478 899.296 680.027C899.297 680.131 899.257 680.224 899.176 680.307 899.095 680.39 898.967 680.434 898.793 680.438L893.105 680.438 893.105 684.309 899.144 684.309 899.144 684.828C899.144 684.931 899.104 685.025 899.023 685.108 898.942 685.19 898.815 685.234 898.64 685.239L893.105 685.239 893.105 690.543 891.976 690.543ZM941.247 679.173C941.734 679.174 942.201 679.23 942.646 679.343 943.092 679.456 943.474 679.623 943.794 679.844L944.16 680.103 943.916 680.53C943.855 680.641 943.767 680.716 943.655 680.755 943.542 680.793 943.405 680.769 943.245 680.682 942.949 680.513 942.637 680.379 942.309 680.282 941.981 680.185 941.627 680.135 941.247 680.133 940.378 680.136 939.643 680.554 939.042 681.387 938.441 682.22 938.114 683.453 938.06 685.087 938.352 684.663 938.763 684.306 939.295 684.016 939.827 683.726 940.422 683.575 941.079 683.563 942.18 683.575 943.063 683.905 943.729 684.553 944.395 685.202 944.737 686.096 944.755 687.236 944.733 688.373 944.376 689.257 943.685 689.887 942.994 690.518 942.1 690.838 941.003 690.848 940.252 690.853 939.572 690.668 938.962 690.294 938.352 689.92 937.866 689.325 937.504 688.511 937.141 687.696 936.956 686.631 936.947 685.315 936.956 683.954 937.151 682.818 937.533 681.908 937.915 680.997 938.429 680.314 939.075 679.858 939.721 679.402 940.445 679.173 941.247 679.173ZM932.419 679.173C932.906 679.174 933.372 679.23 933.818 679.343 934.263 679.456 934.646 679.623 934.965 679.844L935.331 680.103 935.087 680.53C935.026 680.641 934.939 680.716 934.826 680.755 934.713 680.793 934.577 680.769 934.416 680.682 934.12 680.513 933.808 680.379 933.48 680.282 933.152 680.185 932.798 680.135 932.419 680.133 931.549 680.136 930.814 680.554 930.213 681.387 929.612 682.22 929.285 683.453 929.231 685.087 929.523 684.663 929.935 684.306 930.467 684.016 930.999 683.726 931.593 683.575 932.251 683.563 933.351 683.575 934.234 683.905 934.9 684.553 935.566 685.202 935.908 686.096 935.926 687.236 935.904 688.373 935.548 689.257 934.857 689.887 934.166 690.518 933.272 690.838 932.175 690.848 931.424 690.853 930.743 690.668 930.133 690.294 929.524 689.92 929.038 689.325 928.675 688.511 928.313 687.696 928.127 686.631 928.118 685.315 928.127 683.954 928.323 682.818 928.704 681.908 929.086 680.997 929.6 680.314 930.246 679.858 930.893 679.402 931.617 679.173 932.419 679.173ZM923.102 679.173C924.337 679.167 925.313 679.614 926.03 680.516 926.747 681.418 927.113 682.815 927.128 684.706 927.119 686.221 926.932 687.429 926.565 688.33 926.198 689.231 925.704 689.878 925.083 690.271 924.462 690.664 923.766 690.856 922.995 690.848 922.361 690.845 921.803 690.766 921.32 690.611 920.837 690.456 920.434 690.24 920.113 689.964L919.793 689.689 920.006 689.324C920.092 689.177 920.199 689.089 920.328 689.059 920.458 689.029 920.599 689.066 920.754 689.171 921.035 689.368 921.364 689.535 921.741 689.672 922.118 689.81 922.546 689.881 923.026 689.887 923.542 689.896 924.021 689.745 924.465 689.437 924.908 689.129 925.271 688.613 925.552 687.889 925.832 687.166 925.987 686.186 926.015 684.95 925.738 685.366 925.334 685.718 924.802 686.007 924.271 686.295 923.668 686.446 922.995 686.458 921.908 686.448 921.029 686.122 920.357 685.481 919.685 684.84 919.34 683.946 919.32 682.801 919.328 681.743 919.659 680.879 920.313 680.21 920.967 679.54 921.897 679.195 923.102 679.173ZM914.273 679.173C915.509 679.167 916.485 679.614 917.201 680.516 917.918 681.418 918.284 682.815 918.299 684.706 918.291 686.221 918.103 687.429 917.736 688.33 917.369 689.231 916.876 689.878 916.255 690.271 915.634 690.664 914.938 690.856 914.167 690.848 913.533 690.845 912.974 690.766 912.491 690.611 912.008 690.456 911.606 690.24 911.285 689.964L910.964 689.689 911.178 689.324C911.263 689.177 911.371 689.089 911.5 689.059 911.629 689.029 911.771 689.066 911.925 689.171 912.206 689.368 912.536 689.535 912.912 689.672 913.289 689.81 913.717 689.881 914.197 689.887 914.713 689.896 915.193 689.745 915.636 689.437 916.08 689.129 916.442 688.613 916.723 687.889 917.004 687.166 917.158 686.186 917.186 684.95 916.91 685.366 916.505 685.718 915.974 686.007 915.442 686.295 914.839 686.446 914.167 686.458 913.079 686.448 912.2 686.122 911.528 685.481 910.857 684.84 910.511 683.946 910.492 682.801 910.499 681.743 910.831 680.879 911.485 680.21 912.139 679.54 913.068 679.195 914.273 679.173ZM882.484 679.021 884.207 679.021 883.704 681.932 886.144 681.932 886.647 679.021 888.37 679.021 887.867 681.932 889.682 681.932 889.682 683.014C889.683 683.118 889.643 683.211 889.562 683.294 889.481 683.377 889.353 683.421 889.178 683.425L887.608 683.425 887.074 686.519 889.072 686.519 889.072 687.601C889.073 687.705 889.033 687.799 888.952 687.881 888.871 687.964 888.743 688.008 888.569 688.013L886.815 688.013 886.296 691 884.573 691 885.092 688.013 882.652 688.013 882.133 691 880.41 691 880.929 688.013 879.77 688.013C879.562 688.009 879.401 687.955 879.287 687.851 879.173 687.746 879.115 687.612 879.114 687.449L879.114 686.519 881.188 686.519 881.721 683.425 880.38 683.425C880.172 683.422 880.011 683.368 879.897 683.263 879.783 683.159 879.725 683.025 879.724 682.862L879.724 681.932 881.981 681.932ZM931.448 661.276C930.806 661.285 930.234 661.45 929.731 661.771 929.228 662.093 928.804 662.517 928.459 663.044 928.609 664.36 928.958 665.29 929.504 665.835 930.05 666.38 930.673 666.643 931.372 666.626 932.136 666.62 932.762 666.387 933.251 665.928 933.741 665.469 933.994 664.818 934.01 663.974 933.998 663.128 933.759 662.469 933.295 661.996 932.831 661.524 932.215 661.284 931.448 661.276ZM900.671 657.603 896.401 663.821 900.671 663.821ZM963.339 656.872C962.474 656.875 961.79 657.288 961.288 658.11 960.785 658.932 960.528 660.145 960.518 661.749 960.528 663.352 960.785 664.565 961.288 665.387 961.79 666.21 962.474 666.622 963.339 666.626 964.203 666.622 964.887 666.21 965.39 665.387 965.892 664.565 966.149 663.352 966.16 661.749 966.149 660.145 965.892 658.932 965.39 658.11 964.887 657.288 964.203 656.875 963.339 656.872ZM940.063 656.872C939.199 656.875 938.515 657.288 938.012 658.11 937.51 658.932 937.253 660.145 937.242 661.749 937.253 663.352 937.51 664.565 938.012 665.387 938.515 666.21 939.199 666.622 940.063 666.626 940.928 666.622 941.612 666.21 942.114 665.387 942.617 664.565 942.874 663.352 942.885 661.749 942.874 660.145 942.617 658.932 942.114 658.11 941.612 657.288 940.928 656.875 940.063 656.872ZM907.959 656.872C907.095 656.875 906.411 657.288 905.908 658.11 905.406 658.932 905.149 660.145 905.138 661.749 905.149 663.352 905.406 664.565 905.908 665.387 906.411 666.21 907.095 666.622 907.959 666.626 908.824 666.622 909.508 666.21 910.01 665.387 910.513 664.565 910.77 663.352 910.78 661.749 910.77 660.145 910.513 658.932 910.01 658.11 909.508 657.288 908.824 656.875 907.959 656.872ZM872.645 656.872C871.78 656.875 871.096 657.288 870.594 658.11 870.091 658.932 869.835 660.145 869.824 661.749 869.835 663.352 870.091 664.565 870.594 665.387 871.096 666.21 871.78 666.622 872.645 666.626 873.51 666.622 874.193 666.21 874.696 665.387 875.198 664.565 875.455 663.352 875.466 661.749 875.455 660.145 875.198 658.932 874.696 658.11 874.193 657.288 873.51 656.875 872.645 656.872ZM900.503 656.216 901.784 656.216 901.784 663.806 903.401 663.806 903.401 664.355C903.401 664.458 903.362 664.552 903.28 664.635 903.199 664.718 903.072 664.761 902.897 664.766L901.784 664.766 901.784 667.281 900.656 667.281 900.656 664.766 895.196 664.766 895.196 663.76ZM949.611 656.064 951.411 656.064 951.411 660.468 955.65 656.064 957.968 656.064 952.813 661.52 958.471 667.433 956.153 667.433 951.411 662.617 951.411 666.397C951.407 666.767 951.319 667.033 951.147 667.195 950.976 667.357 950.743 667.437 950.45 667.433L949.611 667.433ZM916.531 656.064 918.361 656.064 921.472 661.063 924.583 656.064 926.413 656.064 922.402 662.861 922.402 666.397C922.398 666.767 922.311 667.033 922.139 667.195 921.968 667.357 921.735 667.437 921.441 667.433L920.542 667.433 920.542 662.861ZM882.193 656.064 884.129 656.064 887.469 662.008 887.774 662.648 888.079 662.008 891.419 656.064 892.898 656.064C893.023 656.067 893.13 656.11 893.218 656.195 893.306 656.28 893.351 656.389 893.355 656.521L893.355 666.397C893.351 666.767 893.264 667.033 893.092 667.195 892.921 667.357 892.688 667.437 892.394 667.433L891.586 667.433 891.586 659.188 888.613 664.72 886.935 664.72 883.962 659.188 883.962 666.397C883.958 666.767 883.87 667.033 883.698 667.195 883.527 667.357 883.294 667.437 883.001 667.433L882.193 667.433ZM963.339 655.911C964.557 655.909 965.514 656.39 966.209 657.355 966.905 658.321 967.26 659.785 967.273 661.749 967.26 663.712 966.905 665.176 966.209 666.142 965.514 667.107 964.557 667.588 963.339 667.586 962.121 667.588 961.164 667.107 960.468 666.142 959.772 665.176 959.418 663.712 959.404 661.749 959.418 659.785 959.772 658.321 960.468 657.355 961.164 656.39 962.121 655.909 963.339 655.911ZM940.063 655.911C941.281 655.909 942.238 656.39 942.934 657.355 943.63 658.321 943.984 659.785 943.998 661.749 943.984 663.712 943.63 665.176 942.934 666.142 942.238 667.107 941.281 667.588 940.063 667.586 938.845 667.588 937.888 667.107 937.193 666.142 936.497 665.176 936.142 663.712 936.129 661.749 936.142 659.785 936.497 658.321 937.193 657.355 937.888 656.39 938.845 655.909 940.063 655.911ZM931.616 655.911C932.103 655.912 932.57 655.968 933.015 656.081 933.461 656.194 933.843 656.361 934.163 656.582L934.529 656.841 934.285 657.268C934.223 657.379 934.136 657.454 934.023 657.493 933.911 657.531 933.774 657.507 933.614 657.42 933.318 657.251 933.006 657.117 932.678 657.02 932.349 656.923 931.996 656.873 931.616 656.872 930.746 656.874 930.011 657.292 929.411 658.125 928.81 658.958 928.483 660.191 928.429 661.825 928.72 661.401 929.132 661.044 929.664 660.754 930.196 660.464 930.791 660.313 931.448 660.301 932.549 660.313 933.432 660.643 934.098 661.291 934.764 661.94 935.106 662.834 935.123 663.974 935.101 665.111 934.745 665.995 934.054 666.626 933.363 667.256 932.469 667.576 931.372 667.586 930.621 667.591 929.941 667.406 929.331 667.032 928.721 666.658 928.235 666.063 927.873 665.249 927.51 664.434 927.324 663.369 927.316 662.053 927.325 660.692 927.52 659.556 927.902 658.646 928.284 657.736 928.798 657.052 929.444 656.596 930.09 656.14 930.814 655.912 931.616 655.911ZM907.959 655.911C909.177 655.909 910.134 656.39 910.83 657.355 911.526 658.321 911.88 659.785 911.894 661.749 911.88 663.712 911.526 665.176 910.83 666.142 910.134 667.107 909.177 667.588 907.959 667.586 906.741 667.588 905.784 667.107 905.089 666.142 904.393 665.176 904.038 663.712 904.025 661.749 904.038 659.785 904.393 658.321 905.089 657.355 905.784 656.39 906.741 655.909 907.959 655.911ZM872.645 655.911C873.863 655.909 874.82 656.39 875.516 657.355 876.211 658.321 876.566 659.785 876.579 661.749 876.566 663.712 876.211 665.176 875.516 666.142 874.82 667.107 873.863 667.588 872.645 667.586 871.427 667.588 870.47 667.107 869.774 666.142 869.078 665.176 868.724 663.712 868.711 661.749 868.724 659.785 869.078 658.321 869.774 657.355 870.47 656.39 871.427 655.909 872.645 655.911ZM863.315 655.759C864.028 655.756 864.706 655.819 865.347 655.946 865.988 656.073 866.566 656.28 867.081 656.567L867.386 656.734 867.051 657.603C866.983 657.785 866.886 657.898 866.757 657.942 866.629 657.987 866.462 657.97 866.258 657.893 865.806 657.727 865.341 657.586 864.862 657.468 864.384 657.35 863.858 657.288 863.284 657.283 862.511 657.293 861.833 657.503 861.249 657.912 860.665 658.321 860.209 658.867 859.881 659.55 859.553 660.233 859.386 660.991 859.38 661.825 859.385 662.651 859.553 663.394 859.883 664.053 860.213 664.712 860.674 665.235 861.267 665.621 861.859 666.008 862.552 666.205 863.345 666.214 863.99 666.206 864.561 666.127 865.059 665.976 865.557 665.825 866.002 665.65 866.395 665.452 866.616 665.347 866.807 665.328 866.969 665.397 867.13 665.465 867.265 665.61 867.371 665.833L867.661 666.488 867.386 666.671C866.811 667.056 866.189 667.331 865.52 667.496 864.851 667.662 864.111 667.742 863.299 667.738 862.138 667.729 861.126 667.474 860.263 666.973 859.399 666.472 858.728 665.778 858.249 664.891 857.77 664.004 857.527 662.977 857.52 661.81 857.544 659.944 858.075 658.474 859.113 657.401 860.152 656.328 861.552 655.781 863.315 655.759ZM928.938 639.096 928.938 642.678 931.439 642.678C932.243 642.691 932.86 642.57 933.29 642.314 933.719 642.058 933.935 641.59 933.94 640.91 933.935 640.228 933.719 639.752 933.29 639.483 932.86 639.214 932.243 639.085 931.439 639.096ZM908.975 638.014C908.333 638.023 907.761 638.188 907.258 638.51 906.755 638.831 906.331 639.255 905.987 639.782 906.136 641.098 906.485 642.028 907.031 642.573 907.578 643.118 908.2 643.381 908.899 643.364 909.663 643.358 910.289 643.125 910.779 642.666 911.268 642.207 911.521 641.556 911.537 640.712 911.525 639.866 911.287 639.207 910.823 638.734 910.358 638.262 909.743 638.022 908.975 638.014ZM928.938 634.296 928.938 637.572 931.134 637.572C931.877 637.581 932.445 637.46 932.84 637.21 933.234 636.96 933.433 636.527 933.436 635.911 933.433 635.297 933.234 634.871 932.84 634.635 932.445 634.398 931.877 634.285 931.134 634.296ZM958.523 633.61C957.658 633.613 956.975 634.026 956.472 634.848 955.97 635.67 955.713 636.883 955.702 638.487 955.713 640.09 955.97 641.303 956.472 642.125 956.975 642.948 957.658 643.36 958.523 643.364 959.388 643.36 960.072 642.948 960.574 642.125 961.077 641.303 961.334 640.09 961.344 638.487 961.334 636.883 961.077 635.67 960.574 634.848 960.072 634.026 959.388 633.613 958.523 633.61ZM949.695 633.61C948.83 633.613 948.146 634.026 947.643 634.848 947.141 635.67 946.884 636.883 946.873 638.487 946.884 640.09 947.141 641.303 947.643 642.125 948.146 642.948 948.83 643.36 949.695 643.364 950.559 643.36 951.243 642.948 951.746 642.125 952.248 641.303 952.505 640.09 952.516 638.487 952.505 636.883 952.248 635.67 951.746 634.848 951.243 634.026 950.559 633.613 949.695 633.61ZM917.591 633.61C916.726 633.613 916.042 634.026 915.539 634.848 915.037 635.67 914.78 636.883 914.769 638.487 914.78 640.09 915.037 641.303 915.539 642.125 916.042 642.948 916.726 643.36 917.591 643.364 918.455 643.36 919.139 642.948 919.642 642.125 920.144 641.303 920.401 640.09 920.412 638.487 920.401 636.883 920.144 635.67 919.642 634.848 919.139 634.026 918.455 633.613 917.591 633.61ZM886.289 633.61C885.424 633.613 884.741 634.026 884.238 634.848 883.735 635.67 883.479 636.883 883.468 638.487 883.479 640.09 883.735 641.303 884.238 642.125 884.741 642.948 885.424 643.36 886.289 643.364 887.154 643.36 887.838 642.948 888.34 642.125 888.843 641.303 889.099 640.09 889.11 638.487 889.099 636.883 888.843 635.67 888.34 634.848 887.838 634.026 887.154 633.613 886.289 633.61ZM938.67 632.954 942.086 632.954 942.086 644.019 940.957 644.019 940.957 633.914 939.326 633.914C939.118 633.911 938.958 633.857 938.844 633.753 938.729 633.648 938.672 633.514 938.67 633.351ZM927.138 632.802 931.805 632.802C932.902 632.814 933.746 633.087 934.338 633.623 934.93 634.159 935.229 634.886 935.236 635.804 935.232 636.356 935.113 636.834 934.879 637.239 934.645 637.644 934.317 637.958 933.894 638.182 934.464 638.378 934.913 638.71 935.24 639.176 935.566 639.643 935.733 640.256 935.739 641.017 935.738 641.975 935.435 642.737 934.828 643.303 934.221 643.868 933.315 644.158 932.11 644.171L927.138 644.171ZM862.93 632.802 864.73 632.802 864.73 637.572 870.036 637.572 870.036 632.802 871.836 632.802 871.836 643.135C871.832 643.505 871.744 643.771 871.573 643.933 871.401 644.095 871.169 644.175 870.875 644.171L870.036 644.171 870.036 639.096 864.73 639.096 864.73 643.135C864.726 643.505 864.638 643.771 864.467 643.933 864.295 644.095 864.062 644.175 863.769 644.171L862.93 644.171ZM958.523 632.65C959.741 632.647 960.698 633.128 961.394 634.094 962.09 635.059 962.444 636.523 962.458 638.487 962.444 640.45 962.09 641.914 961.394 642.88 960.698 643.845 959.741 644.326 958.523 644.324 957.305 644.326 956.348 643.845 955.652 642.88 954.957 641.914 954.602 640.45 954.589 638.487 954.602 636.523 954.957 635.059 955.652 634.094 956.348 633.128 957.305 632.647 958.523 632.65ZM949.695 632.65C950.913 632.647 951.87 633.128 952.565 634.094 953.261 635.059 953.616 636.523 953.629 638.487 953.616 640.45 953.261 641.914 952.565 642.88 951.87 643.845 950.913 644.326 949.695 644.324 948.477 644.326 947.52 643.845 946.824 642.88 946.128 641.914 945.774 640.45 945.76 638.487 945.774 636.523 946.128 635.059 946.824 634.094 947.52 633.128 948.477 632.647 949.695 632.65ZM917.591 632.65C918.809 632.647 919.766 633.128 920.461 634.094 921.157 635.059 921.512 636.523 921.525 638.487 921.512 640.45 921.157 641.914 920.461 642.88 919.766 643.845 918.809 644.326 917.591 644.324 916.372 644.326 915.416 643.845 914.72 642.88 914.024 641.914 913.669 640.45 913.656 638.487 913.669 636.523 914.024 635.059 914.72 634.094 915.416 633.128 916.372 632.647 917.591 632.65ZM909.143 632.65C909.631 632.65 910.097 632.706 910.542 632.819 910.988 632.932 911.37 633.099 911.69 633.32L912.056 633.579 911.812 634.006C911.75 634.117 911.663 634.192 911.551 634.231 911.438 634.269 911.301 634.245 911.141 634.158 910.845 633.989 910.533 633.855 910.205 633.758 909.877 633.661 909.523 633.612 909.143 633.61 908.274 633.612 907.538 634.03 906.938 634.863 906.337 635.696 906.01 636.93 905.956 638.563 906.248 638.139 906.659 637.782 907.191 637.492 907.723 637.202 908.318 637.051 908.975 637.039 910.076 637.051 910.959 637.381 911.625 638.029 912.291 638.678 912.633 639.572 912.651 640.712 912.629 641.849 912.272 642.733 911.581 643.364 910.89 643.994 909.996 644.314 908.899 644.324 908.148 644.329 907.468 644.144 906.858 643.77 906.248 643.396 905.762 642.801 905.4 641.987 905.037 641.172 904.852 640.107 904.843 638.791 904.852 637.43 905.047 636.294 905.429 635.384 905.811 634.474 906.325 633.791 906.971 633.334 907.617 632.878 908.341 632.65 909.143 632.65ZM886.289 632.65C887.507 632.647 888.464 633.128 889.16 634.094 889.856 635.059 890.21 636.523 890.223 638.487 890.21 640.45 889.856 641.914 889.16 642.88 888.464 643.845 887.507 644.326 886.289 644.324 885.071 644.326 884.114 643.845 883.418 642.88 882.723 641.914 882.368 640.45 882.355 638.487 882.368 636.523 882.723 635.059 883.418 634.094 884.114 633.128 885.071 632.647 886.289 632.65ZM877.43 632.65C878.516 632.666 879.344 632.949 879.912 633.499 880.48 634.049 880.766 634.767 880.77 635.652 880.772 636.311 880.634 636.94 880.356 637.538 880.078 638.136 879.647 638.727 879.062 639.31L875.356 643.059 880.968 643.059 880.968 643.607C880.969 643.711 880.929 643.805 880.848 643.888 880.767 643.97 880.639 644.014 880.465 644.019L874.06 644.019 874.06 642.998 878.223 638.609C878.676 638.14 879.025 637.664 879.269 637.182 879.514 636.699 879.638 636.189 879.641 635.652 879.633 635.053 879.432 634.566 879.039 634.191 878.646 633.815 878.109 633.621 877.43 633.61 876.952 633.613 876.512 633.721 876.111 633.934 875.709 634.146 875.331 634.445 874.975 634.829 874.835 634.976 874.692 635.044 874.546 635.033 874.4 635.022 874.269 634.964 874.151 634.859L873.846 634.6 874.045 634.326C874.436 633.809 874.919 633.402 875.491 633.105 876.064 632.807 876.71 632.656 877.43 632.65ZM899.161 632.497C899.779 632.501 900.407 632.589 901.044 632.762 901.682 632.935 902.233 633.172 902.699 633.473L903.187 633.793 902.806 634.417C902.693 634.604 902.545 634.73 902.364 634.793 902.182 634.856 901.958 634.832 901.693 634.722 901.297 634.54 900.903 634.379 900.509 634.24 900.115 634.102 899.671 634.029 899.176 634.021 898.549 634.019 898.073 634.134 897.747 634.364 897.421 634.595 897.257 634.953 897.255 635.439 897.273 635.885 897.534 636.257 898.037 636.555 898.539 636.853 899.173 637.187 899.939 637.557 900.546 637.856 901.1 638.144 901.601 638.422 902.101 638.701 902.501 639.036 902.801 639.43 903.102 639.823 903.256 640.342 903.263 640.986 903.249 641.845 903.041 642.53 902.639 643.042 902.237 643.555 901.728 643.923 901.113 644.147 900.497 644.371 899.862 644.481 899.207 644.476 898.375 644.477 897.638 644.357 896.996 644.116 896.354 643.875 895.77 643.508 895.242 643.013L894.769 642.571 895.166 642.129C895.377 641.886 895.595 641.747 895.818 641.714 896.041 641.68 896.281 641.747 896.538 641.916 896.788 642.106 897.124 642.32 897.545 642.56 897.966 642.799 898.485 642.93 899.1 642.952 899.697 642.962 900.227 642.824 900.69 642.537 901.153 642.25 901.401 641.753 901.433 641.047 901.43 640.686 901.3 640.383 901.045 640.137 900.79 639.891 900.462 639.671 900.063 639.478 899.664 639.284 899.246 639.086 898.81 638.883 898.293 638.645 897.776 638.383 897.258 638.096 896.74 637.808 896.306 637.461 895.956 637.054 895.606 636.647 895.424 636.144 895.41 635.545 895.423 634.764 895.617 634.151 895.989 633.705 896.362 633.26 896.833 632.945 897.402 632.762 897.972 632.579 898.558 632.491 899.161 632.497ZM938.569 615.834 938.569 619.416 941.07 619.416C941.875 619.429 942.492 619.308 942.921 619.052 943.35 618.796 943.567 618.328 943.571 617.648 943.567 616.966 943.35 616.49 942.921 616.221 942.492 615.952 941.875 615.823 941.07 615.834ZM938.569 611.034 938.569 614.31 940.765 614.31C941.508 614.319 942.077 614.199 942.471 613.948 942.865 613.698 943.064 613.265 943.068 612.649 943.064 612.035 942.865 611.61 942.471 611.373 942.077 611.136 941.508 611.023 940.765 611.034ZM854.296 611.034 854.296 615.057 856.339 615.057C857.208 615.079 857.88 614.955 858.358 614.686 858.835 614.416 859.077 613.869 859.084 613.045 859.077 612.221 858.835 611.675 858.358 611.405 857.88 611.136 857.208 611.012 856.339 611.034ZM959.326 610.348C958.461 610.351 957.777 610.764 957.275 611.586 956.772 612.408 956.515 613.621 956.505 615.225 956.515 616.828 956.772 618.041 957.275 618.863 957.777 619.686 958.461 620.099 959.326 620.102 960.19 620.099 960.874 619.686 961.377 618.863 961.879 618.041 962.136 616.828 962.147 615.225 962.136 613.621 961.879 612.408 961.377 611.586 960.874 610.764 960.19 610.351 959.326 610.348ZM948.301 609.692 951.717 609.692 951.717 620.757 950.589 620.757 950.589 610.653 948.957 610.653C948.75 610.649 948.589 610.595 948.475 610.491 948.361 610.386 948.303 610.252 948.301 610.089ZM915.877 609.692 921.794 609.692 921.794 610.241C921.795 610.345 921.755 610.438 921.674 610.521 921.593 610.604 921.465 610.648 921.291 610.653L916.868 610.653 916.441 614.341C916.679 614.131 916.973 613.96 917.324 613.828 917.674 613.697 918.026 613.629 918.378 613.625 919.53 613.633 920.444 613.962 921.121 614.611 921.798 615.26 922.144 616.176 922.16 617.358 922.144 618.52 921.798 619.424 921.121 620.073 920.444 620.722 919.53 621.051 918.378 621.062 917.698 621.063 917.056 620.958 916.453 620.749 915.849 620.541 915.337 620.223 914.916 619.797L914.627 619.477 914.932 619.111C915.056 618.968 915.188 618.896 915.328 618.894 915.468 618.892 915.6 618.949 915.724 619.065 916.029 619.362 916.414 619.607 916.88 619.801 917.345 619.994 917.844 620.095 918.378 620.102 919.176 620.093 919.814 619.847 920.294 619.365 920.773 618.882 921.019 618.213 921.031 617.358 921.019 616.503 920.773 615.829 920.294 615.337 919.814 614.845 919.176 614.595 918.378 614.585 917.934 614.589 917.51 614.691 917.105 614.891 916.699 615.092 916.366 615.365 916.106 615.712L915.191 615.545ZM907.369 609.692 910.785 609.692 910.785 620.757 909.656 620.757 909.656 610.653 908.024 610.653C907.817 610.649 907.656 610.595 907.542 610.491 907.428 610.386 907.37 610.252 907.369 610.089ZM881.365 609.692 887.282 609.692 887.282 610.241C887.283 610.345 887.243 610.438 887.162 610.521 887.081 610.604 886.953 610.648 886.779 610.653L882.356 610.653 881.929 614.341C882.167 614.131 882.461 613.96 882.812 613.828 883.162 613.697 883.514 613.629 883.866 613.625 885.018 613.633 885.932 613.962 886.609 614.611 887.286 615.26 887.632 616.176 887.648 617.358 887.632 618.52 887.286 619.424 886.609 620.073 885.932 620.722 885.018 621.051 883.866 621.062 883.186 621.063 882.544 620.958 881.941 620.749 881.337 620.541 880.825 620.223 880.404 619.797L880.115 619.477 880.42 619.111C880.544 618.968 880.676 618.896 880.816 618.894 880.956 618.892 881.088 618.949 881.213 619.065 881.518 619.362 881.903 619.607 882.368 619.801 882.833 619.994 883.332 620.095 883.866 620.102 884.664 620.093 885.302 619.847 885.782 619.365 886.261 618.882 886.507 618.213 886.519 617.358 886.507 616.503 886.261 615.829 885.782 615.337 885.302 614.845 884.664 614.595 883.866 614.585 883.423 614.589 882.998 614.691 882.593 614.891 882.187 615.092 881.854 615.365 881.594 615.712L880.679 615.545ZM872.537 609.692 878.453 609.692 878.453 610.241C878.454 610.345 878.414 610.438 878.333 610.521 878.252 610.604 878.125 610.648 877.95 610.653L873.528 610.653 873.101 614.341C873.339 614.131 873.633 613.96 873.983 613.828 874.334 613.697 874.685 613.629 875.037 613.625 876.189 613.633 877.103 613.962 877.78 614.611 878.457 615.26 878.804 616.176 878.819 617.358 878.804 618.52 878.457 619.424 877.78 620.073 877.103 620.722 876.189 621.051 875.037 621.062 874.358 621.063 873.716 620.958 873.112 620.749 872.509 620.541 871.996 620.223 871.576 619.797L871.286 619.477 871.591 619.111C871.716 618.968 871.848 618.896 871.988 618.894 872.127 618.892 872.26 618.949 872.384 619.065 872.689 619.362 873.074 619.607 873.539 619.801 874.004 619.994 874.504 620.095 875.037 620.102 875.835 620.093 876.474 619.847 876.953 619.365 877.433 618.882 877.678 618.213 877.691 617.358 877.678 616.503 877.433 615.829 876.953 615.337 876.474 614.845 875.835 614.595 875.037 614.585 874.594 614.589 874.169 614.691 873.764 614.891 873.359 615.092 873.026 615.365 872.765 615.712L871.85 615.545ZM936.769 609.54 941.436 609.54C942.533 609.552 943.377 609.825 943.969 610.361 944.561 610.897 944.86 611.624 944.867 612.542 944.863 613.094 944.745 613.572 944.51 613.977 944.276 614.382 943.948 614.696 943.525 614.92 944.096 615.116 944.544 615.448 944.871 615.914 945.197 616.381 945.364 616.995 945.37 617.755 945.37 618.713 945.066 619.475 944.459 620.041 943.852 620.607 942.946 620.896 941.741 620.909L936.769 620.909ZM852.496 609.54 856.934 609.54C858.206 609.542 859.181 609.839 859.858 610.43 860.535 611.021 860.877 611.892 860.884 613.045 860.881 613.854 860.71 614.527 860.371 615.063 860.031 615.599 859.536 615.993 858.886 616.246L861.677 620.909 859.572 620.909 856.934 616.551 854.296 616.551 854.296 619.873C854.292 620.243 854.204 620.509 854.033 620.671 853.861 620.834 853.629 620.913 853.335 620.909L852.496 620.909ZM968.124 609.388C969.21 609.404 970.038 609.687 970.606 610.237 971.174 610.787 971.46 611.505 971.464 612.39 971.466 613.049 971.328 613.678 971.05 614.276 970.772 614.874 970.34 615.465 969.756 616.048L966.05 619.797 971.662 619.797 971.662 620.346C971.663 620.449 971.623 620.543 971.542 620.626 971.461 620.709 971.333 620.752 971.159 620.757L964.754 620.757 964.754 619.736 968.917 615.347C969.37 614.878 969.718 614.402 969.963 613.92 970.208 613.438 970.332 612.928 970.335 612.39 970.327 611.792 970.126 611.305 969.733 610.929 969.339 610.553 968.803 610.359 968.124 610.348 967.646 610.351 967.206 610.459 966.805 610.672 966.403 610.884 966.025 611.183 965.669 611.567 965.529 611.714 965.386 611.782 965.24 611.771 965.094 611.76 964.962 611.702 964.845 611.598L964.54 611.338 964.739 611.064C965.13 610.547 965.612 610.141 966.185 609.843 966.758 609.545 967.404 609.394 968.124 609.388ZM959.326 609.388C960.544 609.385 961.501 609.866 962.196 610.832 962.892 611.797 963.247 613.261 963.26 615.225 963.247 617.188 962.892 618.653 962.196 619.618 961.501 620.583 960.544 621.064 959.326 621.062 958.108 621.064 957.151 620.583 956.455 619.618 955.759 618.653 955.405 617.188 955.391 615.225 955.405 613.261 955.759 611.797 956.455 610.832 957.151 609.866 958.108 609.385 959.326 609.388ZM927.191 609.388C928.302 609.393 929.15 609.656 929.736 610.176 930.322 610.696 930.618 611.439 930.622 612.405 930.618 612.982 930.471 613.49 930.182 613.931 929.893 614.372 929.491 614.717 928.975 614.966 929.632 615.214 930.126 615.586 930.458 616.082 930.791 616.578 930.957 617.171 930.958 617.861 930.951 618.841 930.625 619.617 929.978 620.188 929.331 620.758 928.402 621.049 927.191 621.062 926.509 621.058 925.86 620.944 925.243 620.719 924.626 620.494 924.106 620.182 923.684 619.782L923.364 619.446 923.623 619.157C923.745 619.017 923.874 618.934 924.01 618.907 924.146 618.88 924.286 618.923 924.431 619.035 924.842 619.359 925.275 619.617 925.731 619.808 926.187 620 926.674 620.097 927.191 620.102 927.995 620.093 928.633 619.889 929.105 619.49 929.577 619.091 929.819 618.548 929.829 617.861 929.819 617.17 929.577 616.606 929.105 616.172 928.633 615.737 927.995 615.513 927.191 615.499L926.368 615.499C926.16 615.496 926 615.442 925.886 615.337 925.771 615.233 925.714 615.099 925.712 614.935L925.712 614.569 927.191 614.569C927.888 614.557 928.443 614.353 928.857 613.956 929.272 613.559 929.484 613.042 929.494 612.405 929.484 611.773 929.272 611.274 928.857 610.908 928.443 610.542 927.888 610.355 927.191 610.348 926.828 610.351 926.464 610.429 926.097 610.582 925.73 610.735 925.343 610.947 924.934 611.216 924.778 611.311 924.629 611.343 924.486 611.31 924.344 611.277 924.229 611.205 924.141 611.095L923.867 610.729 924.202 610.454C924.628 610.11 925.1 609.846 925.617 609.664 926.134 609.481 926.659 609.389 927.191 609.388ZM866.194 609.388C867.28 609.404 868.107 609.687 868.675 610.237 869.243 610.787 869.529 611.505 869.533 612.39 869.535 613.049 869.398 613.678 869.12 614.276 868.842 614.874 868.41 615.465 867.825 616.048L864.12 619.797 869.731 619.797 869.731 620.346C869.732 620.449 869.692 620.543 869.611 620.626 869.53 620.709 869.403 620.752 869.228 620.757L862.823 620.757 862.823 619.736 866.987 615.347C867.439 614.878 867.788 614.402 868.033 613.92 868.278 613.438 868.402 612.928 868.405 612.39 868.396 611.792 868.196 611.305 867.802 610.929 867.409 610.553 866.873 610.359 866.194 610.348 865.716 610.351 865.276 610.459 864.874 610.672 864.473 610.884 864.094 611.183 863.738 611.567 863.598 611.714 863.455 611.782 863.31 611.771 863.164 611.76 863.032 611.702 862.915 611.598L862.61 611.338 862.808 611.064C863.2 610.547 863.682 610.141 864.255 609.843 864.828 609.545 865.474 609.394 866.194 609.388ZM899.432 609.235C900.145 609.233 900.823 609.295 901.464 609.422 902.105 609.549 902.683 609.756 903.198 610.043L903.503 610.211 903.168 611.079C903.1 611.261 903.003 611.374 902.874 611.418 902.746 611.463 902.579 611.446 902.375 611.369 901.923 611.203 901.458 611.062 900.979 610.944 900.501 610.826 899.975 610.765 899.401 610.759 898.231 610.785 897.293 611.214 896.586 612.047 895.879 612.88 895.516 613.965 895.497 615.301 895.503 616.128 895.67 616.87 896 617.529 896.33 618.189 896.791 618.711 897.384 619.098 897.976 619.484 898.669 619.681 899.462 619.69 899.934 619.689 900.367 619.649 900.76 619.57 901.154 619.491 901.514 619.379 901.841 619.233L901.841 616.124 899.798 616.124C899.59 616.12 899.429 616.067 899.315 615.962 899.201 615.858 899.144 615.724 899.142 615.56L899.142 614.6 903.061 614.6C903.26 614.6 903.411 614.65 903.515 614.75 903.618 614.851 903.67 615.004 903.671 615.21L903.671 620.071C903.082 620.472 902.43 620.764 901.715 620.946 901 621.128 900.234 621.217 899.416 621.214 898.255 621.205 897.243 620.951 896.38 620.449 895.516 619.948 894.845 619.254 894.366 618.367 893.887 617.48 893.644 616.453 893.637 615.286 893.661 613.42 894.192 611.951 895.23 610.877 896.269 609.804 897.669 609.257 899.432 609.235ZM939.132 586.796 937.21 592.136 941.053 592.136ZM924.446 585.988 924.446 590.435 926.705 590.435C927.664 590.459 928.408 590.322 928.936 590.024 929.464 589.726 929.731 589.122 929.739 588.211 929.731 587.301 929.464 586.696 928.936 586.398 928.408 586.1 927.664 585.964 926.705 585.988ZM844.989 585.988 844.989 590.603 847.113 590.603C848.072 590.624 848.816 590.473 849.344 590.151 849.871 589.828 850.139 589.21 850.146 588.295 850.139 587.381 849.871 586.763 849.344 586.44 848.816 586.118 848.072 585.967 847.113 585.988ZM914.342 585.685C913.484 585.695 912.748 585.92 912.132 586.359 911.517 586.798 911.044 587.391 910.714 588.138 910.383 588.884 910.216 589.723 910.212 590.654 910.215 591.573 910.381 592.401 910.71 593.137 911.038 593.874 911.51 594.458 912.125 594.891 912.74 595.324 913.479 595.546 914.342 595.556 915.215 595.546 915.957 595.324 916.569 594.891 917.181 594.458 917.647 593.874 917.969 593.137 918.29 592.401 918.452 591.573 918.454 590.654 918.45 589.723 918.284 588.884 917.953 588.138 917.623 587.391 917.152 586.798 916.539 586.359 915.926 585.92 915.194 585.695 914.342 585.685ZM972.219 584.337 980.73 584.337 980.73 585.533C980.731 585.648 980.687 585.751 980.598 585.843 980.508 585.934 980.367 585.982 980.174 585.988L974.208 585.988 974.208 589.643 980.562 589.643 980.562 590.805C980.563 590.92 980.519 591.023 980.429 591.115 980.34 591.206 980.198 591.255 980.006 591.26L974.208 591.26 974.208 595.252 981 595.252 981 596.448C981.001 596.563 980.957 596.666 980.867 596.758 980.778 596.85 980.637 596.898 980.444 596.903L972.219 596.903ZM946.536 584.337 948.693 584.337 954.491 593.753 954.491 584.337 956.48 584.337 956.48 596.903 954.322 596.903 948.524 587.487 948.524 595.758C948.52 596.167 948.423 596.461 948.234 596.64 948.044 596.819 947.787 596.907 947.462 596.903L946.536 596.903ZM938.171 584.337 940.092 584.337 944.845 596.903 942.772 596.903 941.66 593.821 936.603 593.821 935.491 596.903 933.418 596.903ZM922.457 584.337 927.362 584.337C928.768 584.339 929.845 584.667 930.594 585.32 931.343 585.973 931.721 586.937 931.728 588.211 931.725 589.105 931.536 589.848 931.161 590.441 930.785 591.034 930.238 591.47 929.52 591.749L932.604 596.903 930.278 596.903 927.362 592.086 924.446 592.086 924.446 595.758C924.442 596.167 924.345 596.461 924.156 596.64 923.966 596.819 923.709 596.907 923.384 596.903L922.457 596.903ZM891.959 584.337 900.47 584.337 900.47 585.533C900.471 585.648 900.427 585.751 900.338 585.843 900.248 585.934 900.107 585.982 899.914 585.988L893.948 585.988 893.948 589.643 900.302 589.643 900.302 590.805C900.303 590.92 900.259 591.023 900.169 591.115 900.079 591.206 899.938 591.255 899.746 591.26L893.948 591.26 893.948 595.252 900.74 595.252 900.74 596.448C900.741 596.563 900.697 596.666 900.607 596.758 900.518 596.85 900.376 596.898 900.184 596.903L891.959 596.903ZM882.327 584.337 884.316 584.337 884.316 595.252 890.199 595.252 890.199 596.448C890.2 596.563 890.155 596.666 890.066 596.758 889.976 596.85 889.835 596.898 889.642 596.903L882.327 596.903ZM871.091 584.337 873.08 584.337 873.08 589.205 877.765 584.337 880.327 584.337 874.63 590.367 880.884 596.903 878.322 596.903 873.08 591.58 873.08 595.758C873.076 596.167 872.979 596.461 872.789 596.64 872.599 596.819 872.343 596.907 872.018 596.903L871.091 596.903ZM854.186 584.337 856.208 584.337 856.208 595.758C856.204 596.167 856.107 596.461 855.918 596.64 855.728 596.819 855.471 596.907 855.147 596.903L854.186 596.903ZM843 584.337 847.77 584.337C849.176 584.343 850.253 584.685 851.002 585.362 851.75 586.04 852.128 587.018 852.135 588.295 852.128 589.573 851.75 590.551 851.002 591.229 850.253 591.906 849.176 592.248 847.77 592.254L844.989 592.254 844.989 595.758C844.985 596.167 844.888 596.461 844.698 596.64 844.508 596.819 844.251 596.907 843.927 596.903L843 596.903ZM965.125 584C965.913 583.997 966.662 584.066 967.37 584.206 968.079 584.347 968.718 584.576 969.288 584.893L969.625 585.078 969.254 586.038C969.179 586.239 969.071 586.364 968.929 586.413 968.788 586.462 968.604 586.444 968.377 586.358 967.878 586.175 967.364 586.019 966.835 585.889 966.306 585.759 965.725 585.69 965.091 585.685 963.798 585.713 962.76 586.187 961.979 587.108 961.198 588.029 960.797 589.228 960.776 590.704 960.782 591.618 960.967 592.439 961.332 593.167 961.696 593.896 962.206 594.473 962.861 594.901 963.516 595.328 964.282 595.546 965.158 595.556 965.68 595.555 966.158 595.51 966.593 595.423 967.028 595.336 967.426 595.211 967.788 595.05L967.788 591.614 965.529 591.614C965.3 591.61 965.122 591.55 964.996 591.435 964.87 591.32 964.806 591.171 964.804 590.991L964.804 589.93 969.136 589.93C969.356 589.929 969.523 589.985 969.637 590.096 969.752 590.207 969.809 590.376 969.81 590.603L969.81 595.977C969.159 596.42 968.439 596.742 967.648 596.943 966.858 597.144 966.012 597.243 965.108 597.24 963.824 597.23 962.706 596.948 961.751 596.395 960.797 595.841 960.055 595.074 959.526 594.093 958.996 593.113 958.728 591.977 958.72 590.688 958.747 588.625 959.334 587.001 960.481 585.815 961.629 584.629 963.176 584.024 965.125 584ZM914.342 584C915.696 584.015 916.83 584.319 917.742 584.913 918.654 585.507 919.34 586.304 919.801 587.304 920.262 588.304 920.493 589.421 920.493 590.654 920.492 591.87 920.257 592.973 919.79 593.964 919.323 594.954 918.632 595.744 917.719 596.334 916.806 596.923 915.68 597.226 914.342 597.24 912.981 597.226 911.842 596.923 910.925 596.334 910.008 595.744 909.317 594.954 908.853 593.964 908.389 592.973 908.157 591.87 908.156 590.654 908.156 589.421 908.388 588.304 908.849 587.304 909.311 586.304 910.001 585.507 910.918 584.913 911.834 584.319 912.976 584.015 914.342 584ZM864.799 584C865.588 583.997 866.337 584.066 867.045 584.206 867.754 584.347 868.393 584.576 868.963 584.893L869.3 585.078 868.929 586.038C868.854 586.239 868.746 586.364 868.604 586.413 868.463 586.462 868.279 586.444 868.052 586.358 867.553 586.175 867.039 586.019 866.51 585.889 865.981 585.759 865.4 585.69 864.766 585.685 863.911 585.696 863.161 585.928 862.516 586.38 861.871 586.831 861.367 587.435 861.004 588.19 860.641 588.945 860.457 589.783 860.451 590.704 860.457 591.618 860.642 592.439 861.007 593.167 861.371 593.896 861.881 594.473 862.536 594.901 863.191 595.328 863.957 595.546 864.833 595.556 865.546 595.547 866.177 595.459 866.727 595.292 867.277 595.126 867.77 594.933 868.204 594.713 868.448 594.597 868.66 594.577 868.838 594.652 869.017 594.728 869.165 594.888 869.283 595.135L869.603 595.859 869.3 596.061C868.664 596.486 867.976 596.79 867.237 596.973 866.498 597.156 865.68 597.245 864.783 597.24 863.499 597.23 862.38 596.948 861.426 596.395 860.472 595.841 859.73 595.074 859.201 594.093 858.671 593.113 858.403 591.977 858.395 590.688 858.421 588.625 859.008 587.001 860.156 585.815 861.304 584.629 862.851 584.024 864.799 584Z" fill="url(#fill1)" fill-rule="evenodd"/></g></svg>