<svg width="224" height="251" xmlns="http://www.w3.org/2000/svg" xmlns:xlink="http://www.w3.org/1999/xlink" overflow="hidden"><defs><clipPath id="clip0"><path d="M1244 648 1468 648 1468 899 1244 899Z" fill-rule="evenodd" clip-rule="evenodd"/></clipPath><linearGradient x1="1356" y1="714" x2="1356" y2="847" gradientUnits="userSpaceOnUse" spreadMethod="reflect" id="fill1"><stop offset="0" stop-color="#FFFFFF"/><stop offset="0.0354" stop-color="#FFFFFF"/><stop offset="0.35398" stop-color="#FFFFFF"/><stop offset="1" stop-color="#FFFFFF"/></linearGradient></defs><g clip-path="url(#clip0)" transform="translate(-1244 -648)"><path d="M1356 648 1467 711.538 1467 834.462 1356 898 1245 834.462 1245 711.538Z" fill="#FF9966" fill-rule="evenodd"/><path d="M1392.24 838.968C1391.44 838.979 1390.73 839.184 1390.1 839.583 1389.48 839.983 1388.95 840.51 1388.52 841.165 1388.71 842.801 1389.14 843.958 1389.82 844.634 1390.5 845.311 1391.28 845.639 1392.15 845.617 1393.1 845.61 1393.88 845.321 1394.49 844.75 1395.1 844.18 1395.42 843.37 1395.44 842.321 1395.42 841.269 1395.12 840.45 1394.55 839.863 1393.97 839.276 1393.2 838.977 1392.24 838.968ZM1381.24 838.968C1380.44 838.979 1379.73 839.184 1379.1 839.583 1378.47 839.983 1377.94 840.51 1377.51 841.165 1377.7 842.801 1378.14 843.958 1378.82 844.634 1379.5 845.311 1380.27 845.639 1381.15 845.617 1382.1 845.61 1382.88 845.321 1383.49 844.75 1384.1 844.18 1384.41 843.37 1384.43 842.321 1384.42 841.269 1384.12 840.45 1383.54 839.863 1382.96 839.276 1382.2 838.977 1381.24 838.968ZM1320.41 837.585 1319.74 841.43 1322.79 841.43 1323.45 837.585ZM1369.84 833.493C1368.8 833.514 1367.99 833.832 1367.4 834.447 1366.82 835.063 1366.52 835.85 1366.51 836.808 1366.53 837.834 1366.83 838.643 1367.42 839.235 1368 839.828 1368.76 840.13 1369.7 840.142 1370.53 840.136 1371.26 839.945 1371.91 839.572 1372.55 839.198 1373.05 838.681 1373.41 838.021 1373.27 836.481 1372.88 835.34 1372.24 834.599 1371.61 833.857 1370.81 833.489 1369.84 833.493ZM1358.83 833.493C1357.8 833.514 1356.99 833.832 1356.4 834.447 1355.82 835.063 1355.52 835.85 1355.51 836.808 1355.53 837.834 1355.83 838.643 1356.41 839.235 1357 839.828 1357.76 840.13 1358.7 840.142 1359.53 840.136 1360.26 839.945 1360.9 839.572 1361.55 839.198 1362.05 838.681 1362.41 838.021 1362.26 836.481 1361.87 835.34 1361.24 834.599 1360.61 833.857 1359.81 833.489 1358.83 833.493ZM1343.05 832.678 1352.17 832.678 1352.17 833.36C1352.17 833.49 1352.12 833.605 1352.02 833.708 1351.92 833.811 1351.76 833.866 1351.54 833.872L1344.45 833.872 1344.45 838.684 1351.98 838.684 1351.98 839.328C1351.98 839.457 1351.93 839.573 1351.83 839.676 1351.73 839.779 1351.57 839.833 1351.35 839.839L1344.45 839.839 1344.45 846.432 1343.05 846.432ZM1331.04 832.678 1340.17 832.678 1340.17 833.36C1340.17 833.49 1340.12 833.605 1340.02 833.708 1339.92 833.811 1339.76 833.866 1339.54 833.872L1332.45 833.872 1332.45 838.684 1339.98 838.684 1339.98 839.328C1339.98 839.457 1339.93 839.573 1339.83 839.676 1339.73 839.779 1339.57 839.833 1339.35 839.839L1332.45 839.839 1332.45 846.432 1331.04 846.432ZM1392.45 832.299C1393.06 832.3 1393.64 832.37 1394.2 832.51 1394.75 832.65 1395.23 832.858 1395.63 833.133L1396.08 833.455 1395.78 833.986C1395.7 834.124 1395.59 834.217 1395.45 834.265 1395.31 834.313 1395.14 834.283 1394.94 834.175 1394.57 833.964 1394.19 833.798 1393.78 833.678 1393.37 833.557 1392.93 833.495 1392.45 833.493 1391.37 833.496 1390.45 834.016 1389.7 835.051 1388.96 836.087 1388.55 837.62 1388.48 839.65 1388.84 839.123 1389.36 838.68 1390.02 838.319 1390.68 837.958 1391.42 837.77 1392.24 837.755 1393.62 837.77 1394.72 838.181 1395.55 838.987 1396.38 839.793 1396.8 840.904 1396.82 842.321 1396.8 843.734 1396.35 844.833 1395.49 845.617 1394.63 846.401 1393.52 846.799 1392.15 846.811 1391.21 846.817 1390.36 846.587 1389.6 846.122 1388.84 845.657 1388.24 844.918 1387.79 843.906 1387.34 842.893 1387.1 841.569 1387.09 839.934 1387.1 838.241 1387.35 836.83 1387.82 835.698 1388.3 834.567 1388.94 833.718 1389.75 833.151 1390.55 832.583 1391.45 832.3 1392.45 832.299ZM1381.45 832.299C1382.06 832.3 1382.64 832.37 1383.19 832.51 1383.75 832.65 1384.22 832.858 1384.62 833.133L1385.08 833.455 1384.78 833.986C1384.7 834.124 1384.59 834.217 1384.45 834.265 1384.31 834.313 1384.14 834.283 1383.94 834.175 1383.57 833.964 1383.18 833.798 1382.77 833.678 1382.36 833.557 1381.92 833.495 1381.45 833.493 1380.37 833.496 1379.45 834.016 1378.7 835.051 1377.95 836.087 1377.54 837.62 1377.48 839.65 1377.84 839.123 1378.35 838.68 1379.02 838.319 1379.68 837.958 1380.42 837.77 1381.24 837.755 1382.61 837.77 1383.71 838.181 1384.54 838.987 1385.37 839.793 1385.8 840.904 1385.82 842.321 1385.79 843.734 1385.35 844.833 1384.49 845.617 1383.63 846.401 1382.51 846.799 1381.15 846.811 1380.21 846.817 1379.36 846.587 1378.6 846.122 1377.84 845.657 1377.24 844.918 1376.78 843.906 1376.33 842.893 1376.1 841.569 1376.09 839.934 1376.1 838.241 1376.34 836.83 1376.82 835.698 1377.3 834.567 1377.94 833.718 1378.74 833.151 1379.55 832.583 1380.45 832.3 1381.45 832.299ZM1369.84 832.299C1371.38 832.291 1372.59 832.848 1373.49 833.969 1374.38 835.09 1374.84 836.826 1374.85 839.176 1374.84 841.06 1374.61 842.561 1374.15 843.681 1373.7 844.801 1373.08 845.606 1372.31 846.094 1371.53 846.583 1370.67 846.822 1369.7 846.811 1368.91 846.807 1368.22 846.71 1367.62 846.517 1367.01 846.324 1366.51 846.056 1366.11 845.712L1365.71 845.371 1365.98 844.916C1366.09 844.734 1366.22 844.624 1366.38 844.587 1366.54 844.549 1366.72 844.596 1366.91 844.727 1367.26 844.971 1367.67 845.179 1368.14 845.349 1368.61 845.52 1369.14 845.61 1369.74 845.617 1370.39 845.627 1370.98 845.441 1371.54 845.057 1372.09 844.674 1372.54 844.032 1372.89 843.133 1373.24 842.234 1373.43 841.016 1373.47 839.479 1373.12 839.997 1372.62 840.435 1371.96 840.794 1371.29 841.152 1370.54 841.339 1369.7 841.355 1368.35 841.342 1367.25 840.937 1366.42 840.14 1365.58 839.343 1365.15 838.232 1365.12 836.808 1365.13 835.493 1365.55 834.42 1366.36 833.588 1367.18 832.756 1368.34 832.326 1369.84 832.299ZM1358.83 832.299C1360.37 832.291 1361.59 832.848 1362.48 833.969 1363.38 835.09 1363.83 836.826 1363.85 839.176 1363.84 841.06 1363.61 842.561 1363.15 843.681 1362.69 844.801 1362.08 845.606 1361.3 846.094 1360.53 846.583 1359.66 846.822 1358.7 846.811 1357.91 846.807 1357.21 846.71 1356.61 846.517 1356.01 846.324 1355.51 846.056 1355.11 845.712L1354.71 845.371 1354.98 844.916C1355.08 844.734 1355.22 844.624 1355.38 844.587 1355.54 844.549 1355.71 844.596 1355.91 844.727 1356.26 844.971 1356.67 845.179 1357.14 845.349 1357.61 845.52 1358.14 845.61 1358.74 845.617 1359.38 845.627 1359.98 845.441 1360.53 845.057 1361.08 844.674 1361.54 844.032 1361.89 843.133 1362.24 842.234 1362.43 841.016 1362.46 839.479 1362.12 839.997 1361.62 840.435 1360.95 840.794 1360.29 841.152 1359.54 841.339 1358.7 841.355 1357.35 841.342 1356.25 840.937 1355.41 840.14 1354.58 839.343 1354.14 838.232 1354.12 836.808 1354.13 835.493 1354.54 834.42 1355.36 833.588 1356.17 832.756 1357.33 832.326 1358.83 832.299ZM1319.21 832.11 1321.36 832.11 1320.73 835.728 1323.77 835.728 1324.4 832.11 1326.55 832.11 1325.92 835.728 1328.18 835.728 1328.18 837.073C1328.18 837.202 1328.13 837.318 1328.03 837.421 1327.93 837.524 1327.77 837.579 1327.56 837.585L1325.6 837.585 1324.93 841.43 1327.42 841.43 1327.42 842.775C1327.42 842.905 1327.37 843.021 1327.27 843.124 1327.17 843.227 1327.01 843.281 1326.8 843.287L1324.61 843.287 1323.96 847 1321.82 847 1322.46 843.287 1319.42 843.287 1318.77 847 1316.63 847 1317.27 843.287 1315.83 843.287C1315.57 843.283 1315.37 843.216 1315.23 843.086 1315.09 842.956 1315.01 842.789 1315.01 842.586L1315.01 841.43 1317.6 841.43 1318.26 837.585 1316.59 837.585C1316.33 837.581 1316.13 837.513 1315.99 837.384 1315.85 837.254 1315.77 837.087 1315.77 836.884L1315.77 835.728 1318.58 835.728ZM1380.24 810.053C1379.44 810.065 1378.73 810.27 1378.1 810.669 1377.47 811.069 1376.94 811.596 1376.51 812.251 1376.7 813.887 1377.14 815.043 1377.82 815.72 1378.5 816.397 1379.27 816.724 1380.14 816.703 1381.1 816.696 1381.88 816.407 1382.49 815.836 1383.1 815.265 1383.41 814.456 1383.43 813.406 1383.42 812.355 1383.12 811.536 1382.54 810.948 1381.96 810.361 1381.2 810.063 1380.24 810.053ZM1341.88 805.488 1336.56 813.217 1341.88 813.217ZM1419.99 804.579C1418.91 804.583 1418.06 805.096 1417.43 806.118 1416.8 807.14 1416.48 808.648 1416.47 810.641 1416.48 812.634 1416.8 814.141 1417.43 815.164 1418.06 816.186 1418.91 816.699 1419.99 816.703 1421.07 816.699 1421.92 816.186 1422.54 815.164 1423.17 814.141 1423.49 812.634 1423.5 810.641 1423.49 808.648 1423.17 807.14 1422.54 806.118 1421.92 805.096 1421.07 804.583 1419.99 804.579ZM1390.98 804.579C1389.9 804.583 1389.05 805.096 1388.42 806.118 1387.79 807.14 1387.47 808.648 1387.46 810.641 1387.47 812.634 1387.79 814.141 1388.42 815.164 1389.05 816.186 1389.9 816.699 1390.98 816.703 1392.06 816.699 1392.91 816.186 1393.53 815.164 1394.16 814.141 1394.48 812.634 1394.49 810.641 1394.48 808.648 1394.16 807.14 1393.53 806.118 1392.91 805.096 1392.06 804.583 1390.98 804.579ZM1350.96 804.579C1349.89 804.583 1349.03 805.096 1348.41 806.118 1347.78 807.14 1347.46 808.648 1347.45 810.641 1347.46 812.634 1347.78 814.141 1348.41 815.164 1349.03 816.186 1349.89 816.699 1350.96 816.703 1352.04 816.699 1352.89 816.186 1353.52 815.164 1354.15 814.141 1354.47 812.634 1354.48 810.641 1354.47 808.648 1354.15 807.14 1353.52 806.118 1352.89 805.096 1352.04 804.583 1350.96 804.579ZM1306.95 804.579C1305.87 804.583 1305.02 805.096 1304.39 806.118 1303.77 807.14 1303.45 808.648 1303.43 810.641 1303.45 812.634 1303.77 814.141 1304.39 815.164 1305.02 816.186 1305.87 816.699 1306.95 816.703 1308.03 816.699 1308.88 816.186 1309.51 815.164 1310.13 814.141 1310.45 812.634 1310.46 810.641 1310.45 808.648 1310.13 807.14 1309.51 806.118 1308.88 805.096 1308.03 804.583 1306.95 804.579ZM1341.67 803.764 1343.27 803.764 1343.27 813.198 1345.28 813.198 1345.28 813.88C1345.28 814.009 1345.23 814.125 1345.13 814.228 1345.03 814.331 1344.87 814.386 1344.65 814.392L1343.27 814.392 1343.27 817.517 1341.86 817.517 1341.86 814.392 1335.06 814.392 1335.06 813.141ZM1402.88 803.575 1405.12 803.575 1405.12 809.049 1410.4 803.575 1413.29 803.575 1406.87 810.357 1413.92 817.707 1411.03 817.707 1405.12 811.721 1405.12 816.419C1405.12 816.878 1405.01 817.209 1404.79 817.411 1404.58 817.612 1404.29 817.711 1403.92 817.707L1402.88 817.707ZM1361.65 803.575 1363.93 803.575 1367.81 809.788 1371.68 803.575 1373.96 803.575 1368.96 812.024 1368.96 816.419C1368.96 816.878 1368.85 817.209 1368.64 817.411 1368.42 817.612 1368.13 817.711 1367.77 817.707L1366.65 817.707 1366.65 812.024ZM1318.85 803.575 1321.26 803.575 1325.43 810.963 1325.81 811.758 1326.19 810.963 1330.35 803.575 1332.19 803.575C1332.35 803.578 1332.48 803.633 1332.59 803.738 1332.7 803.844 1332.76 803.978 1332.76 804.143L1332.76 816.419C1332.76 816.878 1332.65 817.209 1332.43 817.411 1332.22 817.612 1331.93 817.711 1331.56 817.707L1330.56 817.707 1330.56 807.458 1326.85 814.335 1324.76 814.335 1321.05 807.458 1321.05 816.419C1321.05 816.878 1320.94 817.209 1320.73 817.411 1320.51 817.612 1320.22 817.711 1319.86 817.707L1318.85 817.707ZM1419.99 803.385C1421.51 803.382 1422.7 803.98 1423.57 805.18 1424.43 806.38 1424.87 808.2 1424.89 810.641 1424.87 813.081 1424.43 814.901 1423.57 816.101 1422.7 817.301 1421.51 817.899 1419.99 817.896 1418.47 817.899 1417.28 817.301 1416.41 816.101 1415.54 814.901 1415.1 813.081 1415.08 810.641 1415.1 808.2 1415.54 806.38 1416.41 805.18 1417.28 803.98 1418.47 803.382 1419.99 803.385ZM1390.98 803.385C1392.5 803.382 1393.69 803.98 1394.56 805.18 1395.42 806.38 1395.86 808.2 1395.88 810.641 1395.86 813.081 1395.42 814.901 1394.56 816.101 1393.69 817.301 1392.5 817.899 1390.98 817.896 1389.46 817.899 1388.27 817.301 1387.4 816.101 1386.53 814.901 1386.09 813.081 1386.07 810.641 1386.09 808.2 1386.53 806.38 1387.4 805.18 1388.27 803.98 1389.46 803.382 1390.98 803.385ZM1380.45 803.385C1381.06 803.386 1381.64 803.456 1382.19 803.596 1382.75 803.736 1383.22 803.944 1383.62 804.219L1384.08 804.541 1383.78 805.071C1383.7 805.209 1383.59 805.302 1383.45 805.351 1383.31 805.399 1383.14 805.369 1382.94 805.261 1382.57 805.05 1382.18 804.884 1381.77 804.763 1381.36 804.643 1380.92 804.581 1380.45 804.579 1379.37 804.582 1378.45 805.101 1377.7 806.137 1376.95 807.172 1376.54 808.705 1376.48 810.735 1376.84 810.209 1377.35 809.765 1378.02 809.405 1378.68 809.044 1379.42 808.856 1380.24 808.841 1381.61 808.856 1382.71 809.266 1383.54 810.072 1384.37 810.878 1384.8 811.99 1384.82 813.406 1384.79 814.82 1384.35 815.919 1383.49 816.703 1382.63 817.487 1381.51 817.884 1380.14 817.896 1379.21 817.902 1378.36 817.673 1377.6 817.208 1376.84 816.743 1376.23 816.004 1375.78 814.992 1375.33 813.979 1375.1 812.655 1375.09 811.02 1375.1 809.327 1375.34 807.915 1375.82 806.784 1376.3 805.653 1376.94 804.803 1377.74 804.236 1378.55 803.669 1379.45 803.385 1380.45 803.385ZM1350.96 803.385C1352.48 803.382 1353.67 803.98 1354.54 805.18 1355.41 806.38 1355.85 808.2 1355.87 810.641 1355.85 813.081 1355.41 814.901 1354.54 816.101 1353.67 817.301 1352.48 817.899 1350.96 817.896 1349.45 817.899 1348.25 817.301 1347.39 816.101 1346.52 814.901 1346.08 813.081 1346.06 810.641 1346.08 808.2 1346.52 806.38 1347.39 805.18 1348.25 803.98 1349.45 803.382 1350.96 803.385ZM1306.95 803.385C1308.47 803.382 1309.66 803.98 1310.53 805.18 1311.39 806.38 1311.84 808.2 1311.85 810.641 1311.84 813.081 1311.39 814.901 1310.53 816.101 1309.66 817.301 1308.47 817.899 1306.95 817.896 1305.43 817.899 1304.24 817.301 1303.37 816.101 1302.5 814.901 1302.06 813.081 1302.05 810.641 1302.06 808.2 1302.5 806.38 1303.37 805.18 1304.24 803.98 1305.43 803.382 1306.95 803.385ZM1295.32 803.196C1296.21 803.193 1297.05 803.27 1297.85 803.428 1298.65 803.586 1299.37 803.843 1300.01 804.2L1300.39 804.408 1299.98 805.488C1299.89 805.714 1299.77 805.854 1299.61 805.909 1299.45 805.965 1299.24 805.944 1298.99 805.848 1298.42 805.642 1297.85 805.466 1297.25 805.32 1296.65 805.173 1296 805.097 1295.28 805.09 1294.32 805.103 1293.47 805.364 1292.74 805.872 1292.02 806.38 1291.45 807.059 1291.04 807.908 1290.63 808.757 1290.42 809.7 1290.42 810.735 1290.42 811.763 1290.63 812.686 1291.04 813.505 1291.45 814.325 1292.03 814.974 1292.77 815.455 1293.51 815.935 1294.37 816.18 1295.36 816.191 1296.16 816.181 1296.87 816.083 1297.49 815.895 1298.11 815.708 1298.67 815.491 1299.16 815.244 1299.43 815.113 1299.67 815.091 1299.87 815.175 1300.08 815.26 1300.24 815.441 1300.38 815.718L1300.74 816.532 1300.39 816.76C1299.68 817.237 1298.9 817.579 1298.07 817.785 1297.23 817.991 1296.31 818.091 1295.3 818.086 1293.85 818.075 1292.59 817.758 1291.52 817.135 1290.44 816.512 1289.6 815.649 1289.01 814.547 1288.41 813.444 1288.11 812.167 1288.1 810.717 1288.13 808.397 1288.79 806.571 1290.08 805.237 1291.38 803.903 1293.12 803.223 1295.32 803.196ZM1377.11 782.484 1377.11 786.936 1380.23 786.936C1381.23 786.952 1382 786.801 1382.53 786.484 1383.07 786.166 1383.34 785.584 1383.34 784.739 1383.34 783.89 1383.07 783.299 1382.53 782.965 1382 782.631 1381.23 782.47 1380.23 782.484ZM1352.23 781.139C1351.43 781.15 1350.72 781.355 1350.09 781.755 1349.46 782.154 1348.93 782.682 1348.5 783.337 1348.69 784.972 1349.13 786.129 1349.81 786.806 1350.49 787.483 1351.26 787.81 1352.14 787.788 1353.09 787.781 1353.87 787.492 1354.48 786.922 1355.09 786.351 1355.4 785.541 1355.42 784.492 1355.41 783.441 1355.11 782.622 1354.53 782.034 1353.95 781.447 1353.19 781.149 1352.23 781.139ZM1377.11 776.517 1377.11 780.59 1379.85 780.59C1380.77 780.601 1381.48 780.451 1381.97 780.14 1382.47 779.829 1382.71 779.291 1382.72 778.525 1382.71 777.762 1382.47 777.233 1381.97 776.938 1381.48 776.644 1380.77 776.503 1379.85 776.517ZM1413.99 775.664C1412.91 775.668 1412.06 776.181 1411.43 777.204 1410.8 778.226 1410.48 779.733 1410.47 781.726 1410.48 783.719 1410.8 785.227 1411.43 786.249 1412.06 787.271 1412.91 787.784 1413.99 787.788 1415.06 787.784 1415.92 787.271 1416.54 786.249 1417.17 785.227 1417.49 783.719 1417.5 781.726 1417.49 779.733 1417.17 778.226 1416.54 777.204 1415.92 776.181 1415.06 775.668 1413.99 775.664ZM1402.98 775.664C1401.9 775.668 1401.05 776.181 1400.43 777.204 1399.8 778.226 1399.48 779.733 1399.47 781.726 1399.48 783.719 1399.8 785.227 1400.43 786.249 1401.05 787.271 1401.9 787.784 1402.98 787.788 1404.06 787.784 1404.91 787.271 1405.54 786.249 1406.16 785.227 1406.48 783.719 1406.5 781.726 1406.48 779.733 1406.16 778.226 1405.54 777.204 1404.91 776.181 1404.06 775.668 1402.98 775.664ZM1362.97 775.664C1361.89 775.668 1361.04 776.181 1360.41 777.204 1359.79 778.226 1359.47 779.733 1359.45 781.726 1359.47 783.719 1359.79 785.227 1360.41 786.249 1361.04 787.271 1361.89 787.784 1362.97 787.788 1364.05 787.784 1364.9 787.271 1365.52 786.249 1366.15 785.227 1366.47 783.719 1366.48 781.726 1366.47 779.733 1366.15 778.226 1365.52 777.204 1364.9 776.181 1364.05 775.668 1362.97 775.664ZM1323.95 775.664C1322.88 775.668 1322.02 776.181 1321.4 777.204 1320.77 778.226 1320.45 779.733 1320.44 781.726 1320.45 783.719 1320.77 785.227 1321.4 786.249 1322.02 787.271 1322.88 787.784 1323.95 787.788 1325.03 787.784 1325.88 787.271 1326.51 786.249 1327.14 785.227 1327.46 783.719 1327.47 781.726 1327.46 779.733 1327.14 778.226 1326.51 777.204 1325.88 776.181 1325.03 775.668 1323.95 775.664ZM1389.24 774.85 1393.5 774.85 1393.5 788.603 1392.09 788.603 1392.09 776.043 1390.06 776.043C1389.8 776.039 1389.6 775.972 1389.46 775.842 1389.31 775.712 1389.24 775.546 1389.24 775.342ZM1374.87 774.66 1380.68 774.66C1382.05 774.675 1383.1 775.015 1383.84 775.681 1384.58 776.347 1384.95 777.251 1384.96 778.392 1384.96 779.078 1384.81 779.672 1384.52 780.175 1384.22 780.679 1383.81 781.069 1383.29 781.348 1384 781.591 1384.56 782.003 1384.97 782.584 1385.37 783.164 1385.58 783.926 1385.59 784.871 1385.59 786.062 1385.21 787.009 1384.45 787.713 1383.7 788.416 1382.57 788.776 1381.06 788.792L1374.87 788.792ZM1294.84 774.66 1297.08 774.66 1297.08 780.59 1303.7 780.59 1303.7 774.66 1305.94 774.66 1305.94 787.504C1305.94 787.964 1305.83 788.295 1305.61 788.497 1305.4 788.698 1305.11 788.797 1304.74 788.792L1303.7 788.792 1303.7 782.484 1297.08 782.484 1297.08 787.504C1297.08 787.964 1296.97 788.295 1296.76 788.497 1296.54 788.698 1296.25 788.797 1295.89 788.792L1294.84 788.792ZM1413.99 774.471C1415.5 774.468 1416.7 775.066 1417.56 776.266 1418.43 777.466 1418.87 779.286 1418.89 781.726 1418.87 784.167 1418.43 785.987 1417.56 787.187 1416.7 788.387 1415.5 788.985 1413.99 788.982 1412.47 788.985 1411.27 788.387 1410.41 787.187 1409.54 785.987 1409.1 784.167 1409.08 781.726 1409.1 779.286 1409.54 777.466 1410.41 776.266 1411.27 775.066 1412.47 774.468 1413.99 774.471ZM1402.98 774.471C1404.5 774.468 1405.69 775.066 1406.56 776.266 1407.43 777.466 1407.87 779.286 1407.89 781.726 1407.87 784.167 1407.43 785.987 1406.56 787.187 1405.69 788.387 1404.5 788.985 1402.98 788.982 1401.46 788.985 1400.27 788.387 1399.4 787.187 1398.54 785.987 1398.09 784.167 1398.08 781.726 1398.09 779.286 1398.54 777.466 1399.4 776.266 1400.27 775.066 1401.46 774.468 1402.98 774.471ZM1362.97 774.471C1364.49 774.468 1365.68 775.066 1366.55 776.266 1367.41 777.466 1367.85 779.286 1367.87 781.726 1367.85 784.167 1367.41 785.987 1366.55 787.187 1365.68 788.387 1364.49 788.985 1362.97 788.982 1361.45 788.985 1360.26 788.387 1359.39 787.187 1358.52 785.987 1358.08 784.167 1358.06 781.726 1358.08 779.286 1358.52 777.466 1359.39 776.266 1360.26 775.066 1361.45 774.468 1362.97 774.471ZM1352.44 774.471C1353.05 774.471 1353.63 774.542 1354.18 774.682 1354.74 774.822 1355.22 775.029 1355.61 775.304L1356.07 775.627 1355.77 776.157C1355.69 776.295 1355.58 776.388 1355.44 776.436 1355.3 776.484 1355.13 776.455 1354.93 776.346 1354.56 776.136 1354.17 775.97 1353.76 775.849 1353.35 775.728 1352.91 775.667 1352.44 775.664 1351.36 775.668 1350.44 776.187 1349.69 777.223 1348.94 778.258 1348.53 779.791 1348.47 781.821 1348.83 781.295 1349.34 780.851 1350.01 780.49 1350.67 780.13 1351.41 779.942 1352.23 779.927 1353.6 779.942 1354.7 780.352 1355.53 781.158 1356.36 781.964 1356.79 783.075 1356.81 784.492 1356.78 785.906 1356.34 787.005 1355.48 787.788 1354.62 788.572 1353.5 788.97 1352.14 788.982 1351.2 788.988 1350.35 788.759 1349.59 788.294 1348.83 787.828 1348.23 787.09 1347.77 786.077 1347.32 785.065 1347.09 783.741 1347.08 782.105 1347.09 780.413 1347.33 779.001 1347.81 777.87 1348.29 776.738 1348.93 775.889 1349.73 775.322 1350.54 774.755 1351.44 774.471 1352.44 774.471ZM1323.95 774.471C1325.47 774.468 1326.67 775.066 1327.53 776.266 1328.4 777.466 1328.84 779.286 1328.86 781.726 1328.84 784.167 1328.4 785.987 1327.53 787.187 1326.67 788.387 1325.47 788.985 1323.95 788.982 1322.44 788.985 1321.24 788.387 1320.38 787.187 1319.51 785.987 1319.07 784.167 1319.05 781.726 1319.07 779.286 1319.51 777.466 1320.38 776.266 1321.24 775.066 1322.44 774.468 1323.95 774.471ZM1312.91 774.471C1314.27 774.491 1315.3 774.843 1316.01 775.527 1316.71 776.211 1317.07 777.103 1317.08 778.203 1317.08 779.022 1316.91 779.804 1316.56 780.547 1316.21 781.291 1315.68 782.025 1314.95 782.749L1310.33 787.41 1317.32 787.41 1317.32 788.092C1317.32 788.221 1317.27 788.337 1317.17 788.44 1317.07 788.543 1316.91 788.597 1316.7 788.603L1308.71 788.603 1308.71 787.334 1313.9 781.878C1314.47 781.295 1314.9 780.704 1315.21 780.104 1315.51 779.505 1315.67 778.871 1315.67 778.203 1315.66 777.459 1315.41 776.854 1314.92 776.387 1314.43 775.92 1313.76 775.679 1312.91 775.664 1312.32 775.668 1311.77 775.802 1311.27 776.067 1310.77 776.331 1310.3 776.702 1309.85 777.18 1309.68 777.363 1309.5 777.447 1309.32 777.433 1309.14 777.419 1308.97 777.348 1308.83 777.218L1308.45 776.896 1308.69 776.555C1309.18 775.913 1309.78 775.407 1310.5 775.037 1311.21 774.667 1312.02 774.478 1312.91 774.471ZM1340 774.281C1340.77 774.286 1341.55 774.396 1342.35 774.611 1343.14 774.826 1343.83 775.12 1344.41 775.494L1345.02 775.892 1344.54 776.668C1344.4 776.901 1344.22 777.056 1343.99 777.135 1343.76 777.213 1343.48 777.184 1343.15 777.047 1342.66 776.82 1342.17 776.621 1341.68 776.448 1341.19 776.276 1340.63 776.185 1340.02 776.176 1339.24 776.173 1338.64 776.316 1338.24 776.602 1337.83 776.889 1337.62 777.334 1337.62 777.938 1337.65 778.493 1337.97 778.955 1338.6 779.325 1339.22 779.695 1340.01 780.111 1340.97 780.571 1341.72 780.942 1342.41 781.301 1343.04 781.646 1343.66 781.992 1344.16 782.41 1344.53 782.899 1344.91 783.388 1345.1 784.033 1345.11 784.833 1345.09 785.901 1344.83 786.753 1344.33 787.389 1343.83 788.026 1343.2 788.484 1342.43 788.762 1341.66 789.041 1340.87 789.177 1340.06 789.171 1339.02 789.172 1338.1 789.023 1337.3 788.724 1336.5 788.424 1335.77 787.967 1335.11 787.353L1334.52 786.803 1335.02 786.254C1335.28 785.952 1335.55 785.78 1335.83 785.738 1336.11 785.696 1336.41 785.78 1336.73 785.989 1337.04 786.225 1337.46 786.492 1337.98 786.789 1338.51 787.087 1339.15 787.249 1339.92 787.277 1340.67 787.29 1341.33 787.117 1341.9 786.761 1342.48 786.404 1342.79 785.787 1342.83 784.909 1342.83 784.461 1342.66 784.084 1342.35 783.778 1342.03 783.472 1341.62 783.199 1341.12 782.958 1340.62 782.718 1340.1 782.471 1339.56 782.219 1338.92 781.923 1338.27 781.597 1337.63 781.24 1336.98 780.883 1336.44 780.452 1336 779.946 1335.57 779.439 1335.34 778.814 1335.32 778.07 1335.34 777.099 1335.58 776.337 1336.04 775.783 1336.51 775.229 1337.1 774.839 1337.81 774.611 1338.52 774.384 1339.25 774.274 1340 774.281ZM1389.11 753.57 1389.11 758.022 1392.23 758.022C1393.23 758.038 1394 757.887 1394.54 757.569 1395.07 757.252 1395.34 756.67 1395.35 755.824 1395.34 754.976 1395.07 754.385 1394.54 754.051 1394 753.716 1393.23 753.556 1392.23 753.57ZM1389.11 747.603 1389.11 751.675 1391.85 751.675C1392.78 751.687 1393.49 751.537 1393.98 751.226 1394.47 750.915 1394.72 750.376 1394.72 749.611 1394.72 748.847 1394.47 748.318 1393.98 748.024 1393.49 747.73 1392.78 747.589 1391.85 747.603ZM1284.08 747.603 1284.08 752.604 1286.63 752.604C1287.71 752.631 1288.55 752.477 1289.14 752.142 1289.74 751.807 1290.04 751.127 1290.05 750.103 1290.04 749.079 1289.74 748.399 1289.14 748.064 1288.55 747.729 1287.71 747.575 1286.63 747.603ZM1414.99 746.75C1413.91 746.754 1413.06 747.267 1412.43 748.289 1411.8 749.311 1411.48 750.819 1411.47 752.812 1411.48 754.805 1411.8 756.313 1412.43 757.335 1413.06 758.357 1413.91 758.87 1414.99 758.874 1416.06 758.87 1416.92 758.357 1417.54 757.335 1418.17 756.313 1418.49 754.805 1418.5 752.812 1418.49 750.819 1418.17 749.311 1417.54 748.289 1416.92 747.267 1416.06 746.754 1414.99 746.75ZM1401.24 745.935 1405.5 745.935 1405.5 759.689 1404.1 759.689 1404.1 747.129 1402.06 747.129C1401.8 747.125 1401.6 747.057 1401.46 746.928 1401.32 746.798 1401.25 746.631 1401.24 746.428ZM1360.83 745.935 1368.21 745.935 1368.21 746.617C1368.21 746.747 1368.16 746.862 1368.06 746.966 1367.96 747.069 1367.8 747.123 1367.58 747.129L1362.07 747.129 1361.54 751.713C1361.83 751.452 1362.2 751.24 1362.64 751.076 1363.07 750.913 1363.51 750.828 1363.95 750.823 1365.38 750.834 1366.52 751.243 1367.37 752.05 1368.21 752.856 1368.64 753.995 1368.66 755.464 1368.64 756.907 1368.21 758.032 1367.37 758.839 1366.52 759.645 1365.38 760.055 1363.95 760.068 1363.1 760.068 1362.3 759.939 1361.55 759.679 1360.8 759.42 1360.16 759.025 1359.63 758.495L1359.27 758.097 1359.65 757.643C1359.81 757.465 1359.97 757.375 1360.15 757.373 1360.32 757.37 1360.49 757.441 1360.64 757.586 1361.02 757.955 1361.5 758.259 1362.08 758.5 1362.66 758.741 1363.28 758.865 1363.95 758.874 1364.94 758.863 1365.74 758.558 1366.34 757.958 1366.93 757.357 1367.24 756.526 1367.26 755.464 1367.24 754.401 1366.93 753.563 1366.34 752.952 1365.74 752.34 1364.94 752.029 1363.95 752.016 1363.4 752.022 1362.87 752.149 1362.36 752.398 1361.86 752.647 1361.44 752.987 1361.12 753.418L1359.98 753.21ZM1350.23 745.935 1354.49 745.935 1354.49 759.689 1353.08 759.689 1353.08 747.129 1351.04 747.129C1350.79 747.125 1350.59 747.057 1350.44 746.928 1350.3 746.798 1350.23 746.631 1350.23 746.428ZM1317.82 745.935 1325.19 745.935 1325.19 746.617C1325.19 746.747 1325.14 746.862 1325.04 746.966 1324.94 747.069 1324.78 747.123 1324.56 747.129L1319.05 747.129 1318.52 751.713C1318.82 751.452 1319.18 751.24 1319.62 751.076 1320.06 750.913 1320.5 750.828 1320.93 750.823 1322.37 750.834 1323.51 751.243 1324.35 752.05 1325.2 752.856 1325.63 753.995 1325.65 755.464 1325.63 756.907 1325.2 758.032 1324.35 758.839 1323.51 759.645 1322.37 760.055 1320.93 760.068 1320.09 760.068 1319.29 759.939 1318.53 759.679 1317.78 759.42 1317.14 759.025 1316.62 758.495L1316.26 758.097 1316.64 757.643C1316.79 757.465 1316.96 757.375 1317.13 757.373 1317.31 757.37 1317.47 757.441 1317.63 757.586 1318.01 757.955 1318.49 758.259 1319.07 758.5 1319.65 758.741 1320.27 758.865 1320.93 758.874 1321.93 758.863 1322.72 758.558 1323.32 757.958 1323.92 757.357 1324.23 756.526 1324.24 755.464 1324.23 754.401 1323.92 753.563 1323.32 752.952 1322.72 752.34 1321.93 752.029 1320.93 752.016 1320.38 752.022 1319.85 752.149 1319.35 752.398 1318.84 752.647 1318.43 752.987 1318.1 753.418L1316.96 753.21ZM1306.81 745.935 1314.19 745.935 1314.19 746.617C1314.19 746.747 1314.14 746.862 1314.04 746.966 1313.94 747.069 1313.78 747.123 1313.56 747.129L1308.05 747.129 1307.52 751.713C1307.81 751.452 1308.18 751.24 1308.62 751.076 1309.05 750.913 1309.49 750.828 1309.93 750.823 1311.37 750.834 1312.51 751.243 1313.35 752.05 1314.19 752.856 1314.63 753.995 1314.64 755.464 1314.63 756.907 1314.19 758.032 1313.35 758.839 1312.51 759.645 1311.37 760.055 1309.93 760.068 1309.08 760.068 1308.28 759.939 1307.53 759.679 1306.78 759.42 1306.14 759.025 1305.62 758.495L1305.26 758.097 1305.64 757.643C1305.79 757.465 1305.96 757.375 1306.13 757.373 1306.3 757.37 1306.47 757.441 1306.62 757.586 1307 757.955 1307.48 758.259 1308.06 758.5 1308.64 758.741 1309.27 758.865 1309.93 758.874 1310.93 758.863 1311.72 758.558 1312.32 757.958 1312.92 757.357 1313.22 756.526 1313.24 755.464 1313.22 754.401 1312.92 753.563 1312.32 752.952 1311.72 752.34 1310.93 752.029 1309.93 752.016 1309.38 752.022 1308.85 752.149 1308.34 752.398 1307.84 752.647 1307.42 752.987 1307.1 753.418L1305.96 753.21ZM1386.87 745.746 1392.69 745.746C1394.06 745.761 1395.11 746.101 1395.85 746.767 1396.58 747.432 1396.96 748.336 1396.96 749.478 1396.96 750.164 1396.81 750.758 1396.52 751.261 1396.23 751.764 1395.82 752.155 1395.29 752.433 1396 752.677 1396.56 753.089 1396.97 753.669 1397.38 754.249 1397.58 755.012 1397.59 755.957 1397.59 757.148 1397.21 758.095 1396.46 758.798 1395.7 759.502 1394.57 759.862 1393.07 759.878L1386.87 759.878ZM1281.84 745.746 1287.37 745.746C1288.95 745.749 1290.17 746.117 1291.01 746.852 1291.86 747.586 1292.28 748.67 1292.29 750.103 1292.29 751.108 1292.07 751.944 1291.65 752.611 1291.23 753.277 1290.61 753.768 1289.8 754.081L1293.28 759.878 1290.66 759.878 1287.37 754.46 1284.08 754.46 1284.08 758.59C1284.07 759.05 1283.96 759.38 1283.75 759.582 1283.54 759.784 1283.25 759.883 1282.88 759.878L1281.84 759.878ZM1425.95 745.557C1427.31 745.577 1428.34 745.929 1429.04 746.613 1429.75 747.296 1430.11 748.188 1430.11 749.289 1430.12 750.108 1429.94 750.889 1429.6 751.633 1429.25 752.376 1428.71 753.11 1427.99 753.835L1423.37 758.495 1430.36 758.495 1430.36 759.177C1430.36 759.306 1430.31 759.422 1430.21 759.525 1430.11 759.628 1429.95 759.683 1429.73 759.689L1421.75 759.689 1421.75 758.419 1426.94 752.964C1427.5 752.381 1427.94 751.79 1428.24 751.19 1428.55 750.591 1428.7 749.957 1428.71 749.289 1428.7 748.545 1428.45 747.939 1427.96 747.472 1427.47 747.005 1426.8 746.765 1425.95 746.75 1425.36 746.754 1424.81 746.888 1424.31 747.153 1423.81 747.417 1423.33 747.788 1422.89 748.266 1422.72 748.448 1422.54 748.533 1422.36 748.519 1422.18 748.505 1422.01 748.433 1421.87 748.303L1421.48 747.981 1421.73 747.64C1422.22 746.998 1422.82 746.492 1423.54 746.123 1424.25 745.753 1425.05 745.564 1425.95 745.557ZM1414.99 745.557C1416.5 745.553 1417.7 746.152 1418.56 747.352 1419.43 748.551 1419.87 750.371 1419.89 752.812 1419.87 755.253 1419.43 757.073 1418.56 758.273 1417.7 759.472 1416.5 760.071 1414.99 760.068 1413.47 760.071 1412.27 759.472 1411.41 758.273 1410.54 757.073 1410.1 755.253 1410.08 752.812 1410.1 750.371 1410.54 748.551 1411.41 747.352 1412.27 746.152 1413.47 745.553 1414.99 745.557ZM1374.93 745.557C1376.32 745.564 1377.38 745.891 1378.11 746.537 1378.84 747.183 1379.2 748.107 1379.21 749.307 1379.2 750.024 1379.02 750.656 1378.66 751.204 1378.3 751.752 1377.8 752.181 1377.16 752.49 1377.98 752.799 1378.59 753.261 1379.01 753.878 1379.42 754.494 1379.63 755.231 1379.63 756.089 1379.62 757.308 1379.21 758.271 1378.41 758.981 1377.6 759.69 1376.44 760.052 1374.93 760.068 1374.08 760.063 1373.27 759.921 1372.51 759.641 1371.74 759.362 1371.09 758.974 1370.56 758.476L1370.16 758.06 1370.49 757.7C1370.64 757.526 1370.8 757.423 1370.97 757.389 1371.14 757.356 1371.31 757.409 1371.49 757.548 1372.01 757.951 1372.55 758.272 1373.11 758.509 1373.68 758.747 1374.29 758.869 1374.93 758.874 1375.94 758.863 1376.73 758.61 1377.32 758.114 1377.91 757.618 1378.21 756.943 1378.22 756.089 1378.21 755.229 1377.91 754.529 1377.32 753.989 1376.73 753.449 1375.94 753.17 1374.93 753.153L1373.91 753.153C1373.65 753.149 1373.45 753.082 1373.31 752.952 1373.16 752.822 1373.09 752.655 1373.09 752.452L1373.09 751.998 1374.93 751.998C1375.8 751.982 1376.49 751.728 1377.01 751.235 1377.53 750.742 1377.79 750.099 1377.8 749.307 1377.79 748.521 1377.53 747.901 1377.01 747.446 1376.49 746.992 1375.8 746.76 1374.93 746.75 1374.48 746.754 1374.03 746.851 1373.57 747.041 1373.11 747.232 1372.63 747.495 1372.12 747.83 1371.93 747.948 1371.74 747.987 1371.56 747.946 1371.38 747.905 1371.24 747.816 1371.13 747.678L1370.79 747.224 1371.21 746.883C1371.74 746.454 1372.33 746.127 1372.97 745.9 1373.62 745.673 1374.27 745.559 1374.93 745.557ZM1298.91 745.557C1300.26 745.577 1301.29 745.929 1302 746.613 1302.71 747.296 1303.07 748.188 1303.07 749.289 1303.07 750.108 1302.9 750.889 1302.55 751.633 1302.21 752.376 1301.67 753.11 1300.94 753.835L1296.32 758.495 1303.32 758.495 1303.32 759.177C1303.32 759.306 1303.27 759.422 1303.17 759.525 1303.07 759.628 1302.91 759.683 1302.69 759.689L1294.71 759.689 1294.71 758.419 1299.9 752.964C1300.46 752.381 1300.9 751.79 1301.2 751.19 1301.51 750.591 1301.66 749.957 1301.66 749.289 1301.65 748.545 1301.4 747.939 1300.91 747.472 1300.42 747.005 1299.75 746.765 1298.91 746.75 1298.31 746.754 1297.76 746.888 1297.26 747.153 1296.76 747.417 1296.29 747.788 1295.85 748.266 1295.67 748.448 1295.49 748.533 1295.31 748.519 1295.13 748.505 1294.97 748.433 1294.82 748.303L1294.44 747.981 1294.69 747.64C1295.18 746.998 1295.78 746.492 1296.49 746.123 1297.21 745.753 1298.01 745.564 1298.91 745.557ZM1340.34 745.367C1341.22 745.364 1342.07 745.441 1342.87 745.599 1343.67 745.757 1344.39 746.014 1345.03 746.371L1345.41 746.58 1344.99 747.659C1344.91 747.885 1344.79 748.026 1344.63 748.081 1344.47 748.136 1344.26 748.116 1344 748.019 1343.44 747.814 1342.86 747.638 1342.26 747.491 1341.67 747.345 1341.01 747.268 1340.3 747.262 1338.84 747.293 1337.67 747.827 1336.79 748.862 1335.91 749.898 1335.45 751.246 1335.43 752.907 1335.44 753.934 1335.65 754.858 1336.06 755.677 1336.47 756.496 1337.04 757.146 1337.78 757.626 1338.52 758.106 1339.38 758.352 1340.37 758.363 1340.96 758.361 1341.5 758.312 1341.99 758.213 1342.48 758.115 1342.93 757.976 1343.34 757.794L1343.34 753.93 1340.79 753.93C1340.53 753.925 1340.33 753.858 1340.19 753.728 1340.05 753.599 1339.98 753.432 1339.97 753.229L1339.97 752.035 1344.86 752.035C1345.11 752.035 1345.3 752.097 1345.42 752.222 1345.55 752.348 1345.62 752.538 1345.62 752.793L1345.62 758.836C1344.88 759.335 1344.07 759.697 1343.18 759.923 1342.29 760.149 1341.34 760.261 1340.32 760.257 1338.87 760.246 1337.61 759.929 1336.53 759.306 1335.45 758.684 1334.62 757.821 1334.02 756.718 1333.42 755.615 1333.12 754.339 1333.11 752.888 1333.14 750.569 1333.8 748.742 1335.1 747.408 1336.39 746.074 1338.14 745.394 1340.34 745.367ZM1389.82 717.476 1387.42 724.113 1392.21 724.113ZM1371.51 716.471 1371.51 721.998 1374.33 721.998C1375.52 722.029 1376.45 721.858 1377.11 721.488 1377.77 721.118 1378.1 720.367 1378.11 719.235 1378.1 718.103 1377.77 717.352 1377.11 716.981 1376.45 716.611 1375.52 716.441 1374.33 716.471ZM1272.48 716.471 1272.48 722.208 1275.13 722.208C1276.32 722.234 1277.25 722.046 1277.91 721.645 1278.56 721.244 1278.9 720.476 1278.91 719.339 1278.9 718.203 1278.56 717.434 1277.91 717.034 1277.25 716.633 1276.32 716.445 1275.13 716.471ZM1358.92 716.094C1357.85 716.107 1356.93 716.386 1356.17 716.932 1355.4 717.478 1354.81 718.215 1354.4 719.143 1353.98 720.071 1353.78 721.113 1353.77 722.271 1353.78 723.414 1353.98 724.443 1354.39 725.358 1354.8 726.273 1355.39 727 1356.16 727.538 1356.92 728.076 1357.84 728.351 1358.92 728.364 1360.01 728.351 1360.93 728.076 1361.69 727.538 1362.46 727 1363.04 726.273 1363.44 725.358 1363.84 724.443 1364.04 723.414 1364.04 722.271 1364.04 721.113 1363.83 720.071 1363.42 719.143 1363.01 718.215 1362.42 717.478 1361.66 716.932 1360.89 716.386 1359.98 716.107 1358.92 716.094ZM1431.06 714.419 1441.66 714.419 1441.66 715.905C1441.67 716.048 1441.61 716.176 1441.5 716.29 1441.39 716.404 1441.21 716.464 1440.97 716.471L1433.53 716.471 1433.53 721.014 1441.45 721.014 1441.45 722.459C1441.46 722.602 1441.4 722.73 1441.29 722.844 1441.18 722.958 1441 723.018 1440.76 723.024L1433.53 723.024 1433.53 727.987 1442 727.987 1442 729.473C1442 729.616 1441.95 729.744 1441.83 729.858 1441.72 729.972 1441.55 730.032 1441.31 730.039L1431.06 730.039ZM1399.04 714.419 1401.73 714.419 1408.96 726.123 1408.96 714.419 1411.44 714.419 1411.44 730.039 1408.75 730.039 1401.52 718.334 1401.52 728.615C1401.52 729.123 1401.4 729.488 1401.16 729.711 1400.92 729.934 1400.6 730.043 1400.2 730.039L1399.04 730.039ZM1388.62 714.419 1391.01 714.419 1396.94 730.039 1394.35 730.039 1392.97 726.207 1386.67 726.207 1385.28 730.039 1382.69 730.039ZM1369.03 714.419 1375.15 714.419C1376.9 714.422 1378.24 714.829 1379.18 715.641 1380.11 716.453 1380.58 717.651 1380.59 719.235 1380.58 720.346 1380.35 721.269 1379.88 722.006 1379.41 722.743 1378.73 723.285 1377.84 723.632L1381.68 730.039 1378.78 730.039 1375.15 724.05 1371.51 724.05 1371.51 728.615C1371.51 729.123 1371.39 729.488 1371.15 729.711 1370.91 729.934 1370.59 730.043 1370.19 730.039L1369.03 730.039ZM1331.02 714.419 1341.63 714.419 1341.63 715.905C1341.63 716.048 1341.58 716.176 1341.46 716.29 1341.35 716.404 1341.18 716.464 1340.94 716.471L1333.5 716.471 1333.5 721.014 1341.42 721.014 1341.42 722.459C1341.42 722.602 1341.37 722.73 1341.25 722.844 1341.14 722.958 1340.97 723.018 1340.73 723.024L1333.5 723.024 1333.5 727.987 1341.97 727.987 1341.97 729.473C1341.97 729.616 1341.91 729.744 1341.8 729.858 1341.69 729.972 1341.51 730.032 1341.27 730.039L1331.02 730.039ZM1319.02 714.419 1321.5 714.419 1321.5 727.987 1328.83 727.987 1328.83 729.473C1328.83 729.616 1328.77 729.744 1328.66 729.858 1328.55 729.972 1328.37 730.032 1328.13 730.039L1319.02 730.039ZM1305.01 714.419 1307.49 714.419 1307.49 720.47 1313.33 714.419 1316.52 714.419 1309.42 721.915 1317.22 730.039 1314.02 730.039 1307.49 723.422 1307.49 728.615C1307.49 729.123 1307.36 729.488 1307.13 729.711 1306.89 729.934 1306.57 730.043 1306.17 730.039L1305.01 730.039ZM1283.94 714.419 1286.46 714.419 1286.46 728.615C1286.46 729.123 1286.34 729.488 1286.1 729.711 1285.86 729.934 1285.54 730.043 1285.14 730.039L1283.94 730.039ZM1270 714.419 1275.95 714.419C1277.7 714.426 1279.04 714.851 1279.97 715.693 1280.91 716.536 1281.38 717.751 1281.39 719.339 1281.38 720.927 1280.91 722.143 1279.97 722.985 1279.04 723.827 1277.7 724.252 1275.95 724.26L1272.48 724.26 1272.48 728.615C1272.47 729.123 1272.35 729.488 1272.12 729.711 1271.88 729.934 1271.56 730.043 1271.16 730.039L1270 730.039ZM1422.21 714C1423.2 713.997 1424.13 714.082 1425.01 714.257 1425.9 714.431 1426.69 714.715 1427.4 715.11L1427.82 715.34 1427.36 716.534C1427.27 716.783 1427.13 716.938 1426.96 717 1426.78 717.061 1426.55 717.038 1426.27 716.931 1425.65 716.704 1425 716.51 1424.35 716.348 1423.69 716.186 1422.96 716.101 1422.17 716.094 1420.56 716.129 1419.27 716.719 1418.29 717.863 1417.32 719.008 1416.82 720.498 1416.79 722.333 1416.8 723.469 1417.03 724.49 1417.49 725.395 1417.94 726.3 1418.58 727.018 1419.39 727.549 1420.21 728.08 1421.16 728.352 1422.26 728.364 1422.91 728.362 1423.5 728.307 1424.04 728.199 1424.59 728.09 1425.08 727.936 1425.53 727.735L1425.53 723.464 1422.72 723.464C1422.43 723.459 1422.21 723.385 1422.05 723.242 1421.9 723.098 1421.82 722.914 1421.81 722.689L1421.81 721.37 1427.21 721.37C1427.49 721.37 1427.7 721.439 1427.84 721.577 1427.98 721.715 1428.05 721.926 1428.05 722.208L1428.05 728.887C1427.24 729.438 1426.34 729.838 1425.36 730.088 1424.37 730.338 1423.32 730.461 1422.19 730.457 1420.59 730.445 1419.2 730.095 1418.01 729.406 1416.82 728.718 1415.89 727.765 1415.23 726.546 1414.58 725.327 1414.24 723.916 1414.23 722.313 1414.26 719.749 1415 717.731 1416.43 716.256 1417.86 714.782 1419.79 714.03 1422.21 714ZM1358.92 714C1360.61 714.018 1362.02 714.396 1363.16 715.135 1364.29 715.873 1365.15 716.864 1365.72 718.107 1366.3 719.35 1366.59 720.738 1366.59 722.271 1366.58 723.782 1366.29 725.154 1365.71 726.385 1365.13 727.615 1364.27 728.597 1363.13 729.331 1361.99 730.064 1360.59 730.439 1358.92 730.457 1357.22 730.439 1355.8 730.064 1354.66 729.331 1353.52 728.597 1352.66 727.615 1352.08 726.385 1351.5 725.154 1351.21 723.782 1351.21 722.271 1351.21 720.738 1351.5 719.35 1352.07 718.107 1352.65 716.864 1353.51 715.873 1354.65 715.135 1355.79 714.396 1357.22 714.018 1358.92 714ZM1297.17 714C1298.15 713.997 1299.09 714.082 1299.97 714.257 1300.85 714.431 1301.65 714.715 1302.36 715.11L1302.78 715.34 1302.32 716.534C1302.22 716.783 1302.09 716.938 1301.91 717 1301.74 717.061 1301.51 717.038 1301.22 716.931 1300.6 716.704 1299.96 716.51 1299.3 716.348 1298.64 716.186 1297.92 716.101 1297.13 716.094 1296.06 716.108 1295.13 716.396 1294.32 716.958 1293.52 717.519 1292.89 718.27 1292.44 719.208 1291.99 720.147 1291.76 721.189 1291.75 722.333 1291.76 723.469 1291.99 724.49 1292.44 725.395 1292.9 726.3 1293.53 727.018 1294.35 727.549 1295.17 728.08 1296.12 728.352 1297.21 728.364 1298.1 728.353 1298.89 728.244 1299.57 728.036 1300.26 727.829 1300.87 727.589 1301.41 727.317 1301.72 727.172 1301.98 727.147 1302.2 727.241 1302.43 727.335 1302.61 727.534 1302.76 727.84L1303.16 728.74 1302.78 728.992C1301.99 729.52 1301.13 729.898 1300.21 730.125 1299.29 730.352 1298.27 730.463 1297.15 730.457 1295.55 730.445 1294.16 730.095 1292.97 729.406 1291.78 728.718 1290.85 727.765 1290.19 726.546 1289.53 725.327 1289.2 723.916 1289.19 722.313 1289.22 719.749 1289.95 717.731 1291.38 716.256 1292.81 714.782 1294.74 714.03 1297.17 714Z" fill="url(#fill1)" fill-rule="evenodd"/></g></svg>