<svg width="51" height="51" xmlns="http://www.w3.org/2000/svg" xmlns:xlink="http://www.w3.org/1999/xlink" overflow="hidden"><defs><clipPath id="clip0"><path d="M1222 460 1273 460 1273 511 1222 511Z" fill-rule="evenodd" clip-rule="evenodd"/></clipPath></defs><g clip-path="url(#clip0)" transform="translate(-1222 -460)"><path d="M0 25C-6.36567e-15 11.1929 11.1929 0 25 0 38.8071-6.36567e-15 50 11.1929 50 25 50 38.8071 38.8071 50 25 50 11.1929 50-9.5485e-15 38.8071 0 25Z" fill="#FFFFFF" fill-rule="evenodd" fill-opacity="0.701961" transform="matrix(-1 -8.74228e-08 -8.74228e-08 1 1272 460)"/><path d="M12.5613 0 15 1.86589 3.81895 15.9999 14.954 30.1806 12.5613 32 0 15.9999Z" fill="#000000" fill-rule="evenodd" fill-opacity="0.701961" transform="matrix(-1 -8.74228e-08 -8.74228e-08 1 1257 469)"/></g></svg>