<svg xmlns="http://www.w3.org/2000/svg" xmlns:xlink="http://www.w3.org/1999/xlink" width="82" height="82" overflow="hidden"><defs><clipPath id="clip0"><path fill-rule="evenodd" d="M459 67 541 67 541 149 459 149Z" clip-rule="evenodd"/></clipPath></defs><g clip-path="url(#clip0)" transform="translate(-459 -67)"><path fill="#6D788F" fill-rule="evenodd" d="M460 72.5168C460 70.0222 462.022 68 464.517 68L535.483 68C537.978 68 540 70.0222 540 72.5168L540 143.483C540 145.978 537.978 148 535.483 148L464.517 148C462.022 148 460 145.978 460 143.483Z"/><path fill="#FFF" fill-rule="evenodd" d="M487.011 124.278 486.645 128.129 488.965 128.129C489.435 128.129 489.815 128.514 489.815 128.988 489.815 129.463 489.435 129.848 488.965 129.848L485.046 129.848 485.046 131.282 514.954 131.282 514.954 129.848 492.991 129.848C492.521 129.848 492.141 129.463 492.141 128.988 492.141 128.514 492.521 128.129 492.991 128.129L513.355 128.129 512.989 124.278ZM497.168 118.091 496.577 122.56 503.423 122.56 502.832 118.091C502.07 118.753 501.081 119.153 500 119.153 498.919 119.153 497.93 118.753 497.168 118.091ZM500 112.065C498.536 112.065 497.345 113.27 497.345 114.75 497.345 116.231 498.536 117.435 500 117.435 501.207 117.435 502.228 116.617 502.549 115.5 502.554 115.483 502.559 115.465 502.564 115.448 502.623 115.225 502.655 114.991 502.655 114.75 502.655 113.27 501.464 112.065 500 112.065ZM521.78 111.342C521.476 111.342 521.228 111.593 521.228 111.901 521.228 112.208 521.476 112.459 521.78 112.459L526.749 112.459C527.053 112.459 527.301 112.208 527.301 111.901 527.301 111.593 527.053 111.342 526.749 111.342ZM473.251 111.342C472.947 111.342 472.699 111.593 472.699 111.901 472.699 112.208 472.947 112.459 473.251 112.459L478.22 112.459C478.524 112.459 478.772 112.208 478.772 111.901 478.772 111.593 478.524 111.342 478.22 111.342ZM507.363 109.881 503.863 112.72C504.176 113.327 504.354 114.018 504.354 114.75 504.354 115.097 504.314 115.435 504.239 115.759L504.435 117.244 507.363 119.618ZM492.637 109.881 492.637 119.618 495.565 117.244 495.762 115.759C495.686 115.435 495.646 115.097 495.646 114.75 495.646 114.018 495.824 113.327 496.137 112.72ZM521.78 109.624 526.749 109.624C527.99 109.624 529 110.646 529 111.901 529 113.156 527.99 114.177 526.749 114.177L521.78 114.177C520.539 114.177 519.529 113.156 519.529 111.901 519.529 110.646 520.539 109.624 521.78 109.624ZM473.251 109.624 478.22 109.624C479.461 109.624 480.471 110.646 480.471 111.901 480.471 113.156 479.461 114.177 478.22 114.177L473.251 114.177C472.01 114.177 471 113.156 471 111.901 471 110.646 472.01 109.624 473.251 109.624ZM493 96.0298 507 96.0298C509.258 96.0298 511.12 97.7452 511.33 100.02L511.494 101.744C511.539 102.217 511.197 102.637 510.729 102.682 510.264 102.727 509.848 102.381 509.802 101.909L509.639 100.182C509.51 98.7938 508.376 97.7488 506.999 97.7488L493 97.7488C491.624 97.7488 490.489 98.7938 490.361 100.18L488.236 122.56C490.445 122.56 492.654 122.56 494.863 122.56 494.988 121.611 495.114 120.662 495.24 119.713 494.701 120.035 494.285 120.524 493.794 120.916 492.754 121.747 490.937 121.625 490.937 119.941L490.937 109.559C490.937 108.273 492.452 107.529 493.45 108.339 493.462 108.348 497.201 111.379 497.201 111.379 497.958 110.735 498.935 110.346 500 110.346 501.065 110.346 502.041 110.735 502.799 111.379L506.549 108.339C507.54 107.536 509.063 108.274 509.063 109.559 509.063 109.588 509.063 119.941 509.063 119.941 509.063 121.6 507.272 121.761 506.231 120.938 505.73 120.542 505.309 120.038 504.76 119.713 504.886 120.662 505.011 121.611 505.137 122.56 505.62 122.56 511.755 122.463 511.764 122.56 511.763 122.556 510.18 105.889 510.18 105.889 510.136 105.417 510.478 104.997 510.945 104.951 511.412 104.906 511.827 105.252 511.872 105.724L513.474 122.594C514.11 122.73 514.6 123.267 514.665 123.948L515.062 128.129 515.27 128.129C516.032 128.129 516.653 128.757 516.653 129.528L516.653 131.601C516.653 132.373 516.032 133 515.27 133L484.73 133C483.968 133 483.347 132.373 483.347 131.601L483.347 129.528C483.347 128.756 483.968 128.129 484.73 128.129L484.938 128.129 485.335 123.948C485.4 123.267 485.89 122.73 486.526 122.593L488.67 100.017C488.88 97.7452 490.742 96.0298 493 96.0298ZM518.647 92.5182C518.506 92.5156 518.364 92.5674 518.254 92.6741L514.981 95.8624C514.762 96.0759 514.755 96.4299 514.966 96.6514 515.177 96.8734 515.527 96.8797 515.747 96.6662L519.02 93.4779C519.239 93.2644 519.245 92.9104 519.034 92.6889 518.929 92.5779 518.789 92.5208 518.647 92.5182ZM481.397 92.5179C481.255 92.5206 481.115 92.5776 481.009 92.6884 480.798 92.91 480.805 93.2644 481.024 93.4779L484.297 96.6662C484.516 96.8797 484.866 96.8729 485.077 96.6514 485.288 96.4299 485.282 96.0759 485.063 95.8624L481.79 92.6737C481.68 92.5669 481.538 92.5152 481.397 92.5179ZM518.679 90.8006C519.255 90.8114 519.827 91.0441 520.258 91.4962 521.119 92.4007 521.092 93.8444 520.199 94.7153L516.925 97.9041C516.031 98.775 514.604 98.7477 513.743 97.8437 512.882 96.9396 512.908 95.4954 513.802 94.6245L517.075 91.4362C517.522 91.0007 518.103 90.7897 518.679 90.8006ZM481.365 90.8006C481.941 90.7897 482.522 91.0007 482.969 91.4362L486.242 94.6245C487.135 95.4954 487.162 96.9396 486.301 97.8437 485.44 98.7477 484.012 98.775 483.118 97.9041L479.846 94.7153C478.952 93.8444 478.925 92.4007 479.786 91.4962 480.216 91.0441 480.789 90.8114 481.365 90.8006ZM500 84.7186C499.696 84.7186 499.448 84.9692 499.448 85.2766L499.448 89.8729C499.448 90.1804 499.696 90.431 500 90.431 500.304 90.431 500.552 90.1804 500.552 89.8729L500.552 85.2766C500.552 84.9692 500.304 84.7186 500 84.7186ZM500 83C501.241 83 502.251 84.0213 502.251 85.2766L502.251 89.8725C502.251 91.1278 501.241 92.1496 500 92.1496 498.759 92.1496 497.749 91.1283 497.749 89.8729L497.749 85.2766C497.749 84.0213 498.759 83 500 83Z"/></g></svg>