<svg xmlns="http://www.w3.org/2000/svg" xmlns:xlink="http://www.w3.org/1999/xlink" width="52" height="51" overflow="hidden"><defs><clipPath id="clip0"><path fill-rule="evenodd" d="M279 205 331 205 331 256 279 256Z" clip-rule="evenodd"/></clipPath></defs><g clip-path="url(#clip0)" transform="translate(-279 -205)"><path fill="#2AA9E0" fill-rule="evenodd" d="M280 230C280 216.193 291.193 205 305 205 318.807 205 330 216.193 330 230 330 243.807 318.807 255 305 255 291.193 255 280 243.807 280 230Z"/><path fill="#FFF" fill-rule="evenodd" d="M320.118 218.424C320.118 218.424 319.08 219.022 318.527 219.244 317.743 219.559 316.101 219.963 316.101 219.963 316.101 219.963 313.723 216.745 309.141 218.549 304.52 220.837 305.751 225.704 305.751 225.704 305.751 225.704 302.947 225.715 300.205 224.496 298.914 223.922 296.897 222.842 295.461 221.682 294.547 220.942 293.052 219.082 293.052 219.082 293.052 219.082 290.798 222.937 293.721 226.442 294.192 227.007 294.972 227.573 294.972 227.573 294.972 227.573 294.003 227.484 293.536 227.354 293.062 227.221 292.17 226.789 292.17 226.789 292.17 226.789 291.872 230.191 295.261 232.364 295.947 232.804 297.054 233.086 297.054 233.086 297.054 233.086 296.216 233.286 295.789 233.305 295.304 233.326 294.338 233.182 294.338 233.182 294.338 233.182 294.99 235.281 296.703 236.486 298.175 237.522 300.083 237.588 300.083 237.588 300.083 237.588 297.39 239.82 293.743 240.238 292.809 240.346 291 240.211 291 240.211 291 240.211 292.718 241.393 294.54 241.991 295.159 242.194 297.526 242.86 298.274 242.925 299.856 243.063 302.031 243.005 303.432 242.801 306.578 242.343 308.71 241.025 309.978 240.251 311.727 239.184 314.765 236.22 316.178 232.837 316.814 231.314 317.351 229.451 317.657 227.69 317.856 226.545 317.884 224.207 317.884 224.207 317.884 224.207 318.889 223.4 319.335 222.934 319.947 222.293 321 220.854 321 220.854 321 220.854 319.817 221.426 319.191 221.609 318.582 221.788 317.319 221.938 317.319 221.938 317.319 221.938 318.015 221.526 318.314 221.255 318.74 220.871 319.124 220.428 319.433 219.939 319.728 219.472 320.118 218.424 320.118 218.424Z"/></g></svg>