<svg width="224" height="251" xmlns="http://www.w3.org/2000/svg" xmlns:xlink="http://www.w3.org/1999/xlink" overflow="hidden"><defs><clipPath id="clip0"><path d="M991 648 1215 648 1215 899 991 899Z" fill-rule="evenodd" clip-rule="evenodd"/></clipPath><linearGradient x1="1102.5" y1="714" x2="1102.5" y2="847" gradientUnits="userSpaceOnUse" spreadMethod="reflect" id="fill1"><stop offset="0"/><stop offset="0.0354"/><stop offset="0.35398"/><stop offset="1"/></linearGradient></defs><g clip-path="url(#clip0)" transform="translate(-991 -648)"><path d="M1103 648 1214 711.538 1214 834.462 1103 898 992 834.462 992 711.538Z" fill="#FFCC66" fill-rule="evenodd"/><path d="M1141.19 838.968C1140.39 838.979 1139.68 839.184 1139.05 839.583 1138.42 839.983 1137.89 840.51 1137.47 841.165 1137.65 842.801 1138.09 843.958 1138.77 844.634 1139.45 845.311 1140.22 845.639 1141.09 845.617 1142.05 845.61 1142.83 845.321 1143.44 844.75 1144.04 844.18 1144.36 843.37 1144.38 842.321 1144.37 841.269 1144.07 840.45 1143.49 839.863 1142.91 839.276 1142.14 838.977 1141.19 838.968ZM1130.19 838.968C1129.39 838.979 1128.68 839.184 1128.05 839.583 1127.42 839.983 1126.9 840.51 1126.47 841.165 1126.65 842.801 1127.09 843.958 1127.77 844.634 1128.45 845.311 1129.22 845.639 1130.09 845.617 1131.05 845.61 1131.83 845.321 1132.44 844.75 1133.05 844.18 1133.36 843.37 1133.38 842.321 1133.37 841.269 1133.07 840.45 1132.49 839.863 1131.91 839.276 1131.15 838.977 1130.19 838.968ZM1063.39 837.585 1062.72 841.43 1065.76 841.43 1066.43 837.585ZM1086.01 832.678 1095.13 832.678 1095.13 833.36C1095.14 833.49 1095.09 833.605 1094.98 833.708 1094.88 833.811 1094.72 833.866 1094.51 833.872L1087.42 833.872 1087.42 838.684 1094.94 838.684 1094.94 839.328C1094.94 839.457 1094.9 839.573 1094.79 839.676 1094.69 839.779 1094.53 839.833 1094.32 839.839L1087.42 839.839 1087.42 846.432 1086.01 846.432ZM1074.02 832.678 1083.14 832.678 1083.14 833.36C1083.14 833.49 1083.09 833.605 1082.99 833.708 1082.88 833.811 1082.73 833.866 1082.51 833.872L1075.42 833.872 1075.42 838.684 1082.95 838.684 1082.95 839.328C1082.95 839.457 1082.9 839.573 1082.8 839.676 1082.69 839.779 1082.54 839.833 1082.32 839.839L1075.42 839.839 1075.42 846.432 1074.02 846.432ZM1141.4 832.299C1142.01 832.3 1142.59 832.37 1143.14 832.51 1143.7 832.65 1144.17 832.858 1144.57 833.133L1145.03 833.455 1144.72 833.986C1144.65 834.124 1144.54 834.217 1144.4 834.265 1144.26 834.313 1144.09 834.283 1143.89 834.175 1143.52 833.964 1143.13 833.798 1142.72 833.678 1142.31 833.557 1141.87 833.495 1141.4 833.493 1140.31 833.496 1139.4 834.016 1138.65 835.051 1137.9 836.087 1137.49 837.62 1137.43 839.65 1137.79 839.123 1138.3 838.68 1138.97 838.319 1139.63 837.958 1140.37 837.77 1141.19 837.755 1142.56 837.77 1143.66 838.181 1144.49 838.987 1145.32 839.793 1145.75 840.904 1145.77 842.321 1145.74 843.734 1145.3 844.833 1144.44 845.617 1143.57 846.401 1142.46 846.799 1141.09 846.811 1140.16 846.817 1139.31 846.587 1138.55 846.122 1137.79 845.657 1137.19 844.918 1136.73 843.906 1136.28 842.893 1136.05 841.569 1136.04 839.934 1136.05 838.241 1136.3 836.83 1136.77 835.698 1137.25 834.567 1137.89 833.718 1138.69 833.151 1139.5 832.583 1140.4 832.3 1141.4 832.299ZM1130.4 832.299C1131.01 832.3 1131.59 832.37 1132.14 832.51 1132.7 832.65 1133.17 832.858 1133.57 833.133L1134.03 833.455 1133.72 833.986C1133.65 834.124 1133.54 834.217 1133.4 834.265 1133.26 834.313 1133.09 834.283 1132.89 834.175 1132.52 833.964 1132.13 833.798 1131.72 833.678 1131.31 833.557 1130.87 833.495 1130.4 833.493 1129.32 833.496 1128.4 834.016 1127.65 835.051 1126.9 836.087 1126.5 837.62 1126.43 839.65 1126.79 839.123 1127.3 838.68 1127.97 838.319 1128.63 837.958 1129.37 837.77 1130.19 837.755 1131.56 837.77 1132.66 838.181 1133.49 838.987 1134.32 839.793 1134.75 840.904 1134.77 842.321 1134.74 843.734 1134.3 844.833 1133.44 845.617 1132.58 846.401 1131.46 846.799 1130.09 846.811 1129.16 846.817 1128.31 846.587 1127.55 846.122 1126.79 845.657 1126.19 844.918 1125.74 843.906 1125.28 842.893 1125.05 841.569 1125.04 839.934 1125.05 838.241 1125.3 836.83 1125.77 835.698 1126.25 834.567 1126.89 833.718 1127.69 833.151 1128.5 832.583 1129.4 832.3 1130.4 832.299ZM1118.3 832.299C1119.17 832.303 1119.99 832.395 1120.76 832.577 1121.53 832.758 1122.21 833.006 1122.8 833.323L1123.2 833.531 1123.01 834.042C1122.94 834.225 1122.82 834.347 1122.66 834.407 1122.49 834.467 1122.29 834.447 1122.06 834.345 1121.54 834.103 1120.98 833.901 1120.37 833.742 1119.75 833.582 1119.06 833.499 1118.3 833.493 1117.28 833.499 1116.35 833.748 1115.5 834.24 1114.65 834.731 1113.97 835.429 1113.46 836.333 1112.95 837.237 1112.69 838.311 1112.68 839.555 1112.69 840.799 1112.96 841.873 1113.47 842.777 1113.99 843.681 1114.67 844.379 1115.52 844.871 1116.36 845.362 1117.29 845.611 1118.3 845.617 1119.09 845.606 1119.84 845.495 1120.56 845.283 1121.27 845.071 1121.9 844.823 1122.44 844.537 1122.64 844.439 1122.82 844.422 1122.97 844.488 1123.12 844.553 1123.23 844.664 1123.3 844.821L1123.52 845.295 1123.09 845.56C1122.46 845.936 1121.74 846.236 1120.92 846.462 1120.1 846.689 1119.23 846.805 1118.3 846.811 1116.98 846.807 1115.79 846.522 1114.74 845.957 1113.68 845.391 1112.84 844.569 1112.22 843.49 1111.6 842.412 1111.29 841.1 1111.27 839.555 1111.28 838.01 1111.6 836.698 1112.22 835.62 1112.83 834.541 1113.67 833.719 1114.72 833.153 1115.78 832.588 1116.97 832.303 1118.3 832.299ZM1104.3 832.299C1105.17 832.303 1105.99 832.395 1106.76 832.577 1107.53 832.758 1108.21 833.006 1108.8 833.323L1109.2 833.531 1109.01 834.042C1108.94 834.225 1108.83 834.347 1108.66 834.407 1108.49 834.467 1108.29 834.447 1108.06 834.345 1107.55 834.103 1106.98 833.901 1106.37 833.742 1105.76 833.582 1105.07 833.499 1104.3 833.493 1103.28 833.499 1102.35 833.748 1101.5 834.24 1100.65 834.731 1099.98 835.429 1099.46 836.333 1098.95 837.237 1098.69 838.311 1098.68 839.555 1098.69 840.799 1098.96 841.873 1099.47 842.777 1099.99 843.681 1100.67 844.379 1101.52 844.871 1102.37 845.362 1103.29 845.611 1104.3 845.617 1105.09 845.606 1105.84 845.495 1106.56 845.283 1107.27 845.071 1107.9 844.823 1108.44 844.537 1108.65 844.439 1108.82 844.422 1108.97 844.488 1109.12 844.553 1109.23 844.664 1109.3 844.821L1109.53 845.295 1109.09 845.56C1108.46 845.936 1107.74 846.236 1106.92 846.462 1106.1 846.689 1105.23 846.805 1104.3 846.811 1102.98 846.807 1101.8 846.522 1100.74 845.957 1099.68 845.391 1098.85 844.569 1098.23 843.49 1097.6 842.412 1097.29 841.1 1097.27 839.555 1097.29 838.01 1097.6 836.698 1098.22 835.62 1098.83 834.541 1099.67 833.719 1100.72 833.153 1101.78 832.588 1102.97 832.303 1104.3 832.299ZM1062.19 832.11 1064.34 832.11 1063.71 835.728 1066.75 835.728 1067.38 832.11 1069.52 832.11 1068.9 835.728 1071.16 835.728 1071.16 837.073C1071.16 837.202 1071.11 837.318 1071.01 837.421 1070.91 837.524 1070.75 837.579 1070.53 837.585L1068.57 837.585 1067.91 841.43 1070.4 841.43 1070.4 842.775C1070.4 842.905 1070.35 843.021 1070.25 843.124 1070.15 843.227 1069.99 843.281 1069.77 843.287L1067.59 843.287 1066.94 847 1064.79 847 1065.44 843.287 1062.4 843.287 1061.75 847 1059.61 847 1060.25 843.287 1058.81 843.287C1058.55 843.283 1058.35 843.216 1058.21 843.086 1058.07 842.956 1057.99 842.789 1057.99 842.586L1057.99 841.43 1060.58 841.43 1061.24 837.585 1059.57 837.585C1059.31 837.581 1059.11 837.513 1058.97 837.384 1058.83 837.254 1058.75 837.087 1058.75 836.884L1058.75 835.728 1061.56 835.728ZM1126.19 810.053C1125.39 810.065 1124.68 810.27 1124.05 810.669 1123.42 811.069 1122.9 811.596 1122.47 812.251 1122.65 813.887 1123.09 815.043 1123.77 815.72 1124.45 816.397 1125.22 816.724 1126.1 816.703 1127.05 816.696 1127.83 816.407 1128.44 815.836 1129.05 815.265 1129.36 814.456 1129.38 813.406 1129.37 812.355 1129.07 811.536 1128.49 810.948 1127.91 810.361 1127.15 810.063 1126.19 810.053ZM1165.92 804.579C1164.84 804.583 1163.99 805.096 1163.36 806.118 1162.74 807.14 1162.42 808.648 1162.41 810.641 1162.42 812.634 1162.74 814.141 1163.36 815.164 1163.99 816.186 1164.84 816.699 1165.92 816.703 1167 816.699 1167.85 816.186 1168.48 815.164 1169.1 814.141 1169.42 812.634 1169.43 810.641 1169.42 808.648 1169.1 807.14 1168.48 806.118 1167.85 805.096 1167 804.583 1165.92 804.579ZM1136.92 804.579C1135.85 804.583 1134.99 805.096 1134.37 806.118 1133.74 807.14 1133.42 808.648 1133.41 810.641 1133.42 812.634 1133.74 814.141 1134.37 815.164 1134.99 816.186 1135.85 816.699 1136.92 816.703 1138 816.699 1138.85 816.186 1139.48 815.164 1140.1 814.141 1140.42 812.634 1140.44 810.641 1140.42 808.648 1140.1 807.14 1139.48 806.118 1138.85 805.096 1138 804.583 1136.92 804.579ZM1096.93 804.579C1095.85 804.583 1095 805.096 1094.37 806.118 1093.75 807.14 1093.43 808.648 1093.41 810.641 1093.43 812.634 1093.75 814.141 1094.37 815.164 1095 816.186 1095.85 816.699 1096.93 816.703 1098 816.699 1098.86 816.186 1099.48 815.164 1100.11 814.141 1100.43 812.634 1100.44 810.641 1100.43 808.648 1100.11 807.14 1099.48 806.118 1098.86 805.096 1098 804.583 1096.93 804.579ZM1052.93 804.579C1051.85 804.583 1051 805.096 1050.38 806.118 1049.75 807.14 1049.43 808.648 1049.42 810.641 1049.43 812.634 1049.75 814.141 1050.38 815.164 1051 816.186 1051.85 816.699 1052.93 816.703 1054.01 816.699 1054.86 816.186 1055.49 815.164 1056.11 814.141 1056.43 812.634 1056.45 810.641 1056.43 808.648 1056.11 807.14 1055.49 806.118 1054.86 805.096 1054.01 804.583 1052.93 804.579ZM1148.82 803.575 1151.06 803.575 1151.06 809.049 1156.34 803.575 1159.23 803.575 1152.81 810.357 1159.86 817.707 1156.97 817.707 1151.06 811.721 1151.06 816.419C1151.06 816.878 1150.95 817.209 1150.73 817.411 1150.52 817.612 1150.23 817.711 1149.86 817.707L1148.82 817.707ZM1107.61 803.575 1109.89 803.575 1113.76 809.788 1117.64 803.575 1119.92 803.575 1114.92 812.024 1114.92 816.419C1114.92 816.878 1114.81 817.209 1114.59 817.411 1114.38 817.612 1114.09 817.711 1113.72 817.707L1112.6 817.707 1112.6 812.024ZM1064.83 803.575 1067.24 803.575 1071.4 810.963 1071.78 811.758 1072.16 810.963 1076.32 803.575 1078.16 803.575C1078.32 803.578 1078.45 803.633 1078.56 803.738 1078.67 803.844 1078.73 803.978 1078.73 804.143L1078.73 816.419C1078.73 816.878 1078.62 817.209 1078.41 817.411 1078.19 817.612 1077.9 817.711 1077.54 817.707L1076.53 817.707 1076.53 807.458 1072.83 814.335 1070.74 814.335 1067.03 807.458 1067.03 816.419C1067.03 816.878 1066.92 817.209 1066.7 817.411 1066.49 817.612 1066.2 817.711 1065.83 817.707L1064.83 817.707ZM1165.92 803.385C1167.44 803.382 1168.63 803.98 1169.5 805.18 1170.36 806.38 1170.81 808.2 1170.82 810.641 1170.81 813.081 1170.36 814.901 1169.5 816.101 1168.63 817.301 1167.44 817.899 1165.92 817.896 1164.4 817.899 1163.21 817.301 1162.34 816.101 1161.48 814.901 1161.04 813.081 1161.02 810.641 1161.04 808.2 1161.48 806.38 1162.34 805.18 1163.21 803.98 1164.4 803.382 1165.92 803.385ZM1136.92 803.385C1138.44 803.382 1139.63 803.98 1140.5 805.18 1141.37 806.38 1141.81 808.2 1141.82 810.641 1141.81 813.081 1141.37 814.901 1140.5 816.101 1139.63 817.301 1138.44 817.899 1136.92 817.896 1135.41 817.899 1134.21 817.301 1133.35 816.101 1132.48 814.901 1132.04 813.081 1132.02 810.641 1132.04 808.2 1132.48 806.38 1133.35 805.18 1134.21 803.98 1135.41 803.382 1136.92 803.385ZM1126.4 803.385C1127.01 803.386 1127.59 803.456 1128.14 803.596 1128.7 803.736 1129.17 803.944 1129.57 804.219L1130.03 804.541 1129.72 805.071C1129.65 805.209 1129.54 805.302 1129.4 805.351 1129.26 805.399 1129.09 805.369 1128.89 805.261 1128.52 805.05 1128.13 804.884 1127.72 804.763 1127.31 804.643 1126.87 804.581 1126.4 804.579 1125.32 804.582 1124.4 805.101 1123.65 806.137 1122.9 807.172 1122.5 808.705 1122.43 810.735 1122.79 810.209 1123.31 809.765 1123.97 809.405 1124.63 809.044 1125.37 808.856 1126.19 808.841 1127.56 808.856 1128.66 809.266 1129.49 810.072 1130.32 810.878 1130.75 811.99 1130.77 813.406 1130.74 814.82 1130.3 815.919 1129.44 816.703 1128.58 817.487 1127.46 817.884 1126.1 817.896 1125.16 817.902 1124.31 817.673 1123.55 817.208 1122.79 816.743 1122.19 816.004 1121.74 814.992 1121.28 813.979 1121.05 812.655 1121.04 811.02 1121.05 809.327 1121.3 807.915 1121.77 806.784 1122.25 805.653 1122.89 804.803 1123.69 804.236 1124.5 803.669 1125.4 803.385 1126.4 803.385ZM1096.93 803.385C1098.45 803.382 1099.64 803.98 1100.5 805.18 1101.37 806.38 1101.81 808.2 1101.83 810.641 1101.81 813.081 1101.37 814.901 1100.5 816.101 1099.64 817.301 1098.45 817.899 1096.93 817.896 1095.41 817.899 1094.22 817.301 1093.35 816.101 1092.48 814.901 1092.04 813.081 1092.03 810.641 1092.04 808.2 1092.48 806.38 1093.35 805.18 1094.22 803.98 1095.41 803.382 1096.93 803.385ZM1085.89 803.385C1087.24 803.406 1088.28 803.758 1088.98 804.441 1089.69 805.125 1090.05 806.017 1090.05 807.117 1090.05 807.936 1089.88 808.718 1089.54 809.461 1089.19 810.205 1088.65 810.939 1087.92 811.664L1083.31 816.324 1090.3 816.324 1090.3 817.006C1090.3 817.135 1090.25 817.251 1090.15 817.354 1090.05 817.457 1089.89 817.511 1089.67 817.517L1081.69 817.517 1081.69 816.248 1086.88 810.792C1087.44 810.209 1087.88 809.618 1088.18 809.019 1088.49 808.419 1088.64 807.785 1088.65 807.117 1088.64 806.373 1088.39 805.768 1087.9 805.301 1087.41 804.834 1086.74 804.593 1085.89 804.579 1085.3 804.583 1084.75 804.717 1084.25 804.981 1083.75 805.246 1083.28 805.617 1082.83 806.094 1082.66 806.277 1082.48 806.361 1082.3 806.348 1082.12 806.334 1081.95 806.262 1081.81 806.132L1081.43 805.81 1081.67 805.469C1082.16 804.827 1082.76 804.321 1083.48 803.951 1084.19 803.581 1084.99 803.393 1085.89 803.385ZM1052.93 803.385C1054.45 803.382 1055.64 803.98 1056.51 805.18 1057.38 806.38 1057.82 808.2 1057.83 810.641 1057.82 813.081 1057.38 814.901 1056.51 816.101 1055.64 817.301 1054.45 817.899 1052.93 817.896 1051.41 817.899 1050.22 817.301 1049.36 816.101 1048.49 814.901 1048.05 813.081 1048.03 810.641 1048.05 808.2 1048.49 806.38 1049.36 805.18 1050.22 803.98 1051.41 803.382 1052.93 803.385ZM1041.31 803.196C1042.2 803.193 1043.04 803.27 1043.84 803.428 1044.64 803.586 1045.36 803.843 1046 804.2L1046.38 804.408 1045.96 805.488C1045.88 805.714 1045.76 805.854 1045.6 805.909 1045.44 805.965 1045.23 805.944 1044.98 805.848 1044.41 805.642 1043.83 805.466 1043.24 805.32 1042.64 805.173 1041.99 805.097 1041.27 805.09 1040.31 805.103 1039.46 805.364 1038.73 805.872 1038.01 806.38 1037.44 807.059 1037.03 807.908 1036.62 808.757 1036.41 809.7 1036.41 810.735 1036.41 811.763 1036.62 812.686 1037.03 813.505 1037.44 814.325 1038.02 814.974 1038.76 815.455 1039.5 815.935 1040.36 816.18 1041.35 816.191 1042.15 816.181 1042.86 816.083 1043.48 815.895 1044.1 815.708 1044.66 815.491 1045.15 815.244 1045.42 815.113 1045.66 815.091 1045.86 815.175 1046.06 815.26 1046.23 815.441 1046.36 815.718L1046.72 816.532 1046.38 816.76C1045.66 817.237 1044.89 817.579 1044.06 817.785 1043.22 817.991 1042.3 818.091 1041.29 818.086 1039.84 818.075 1038.58 817.758 1037.51 817.135 1036.43 816.512 1035.59 815.649 1035 814.547 1034.4 813.444 1034.1 812.167 1034.09 810.717 1034.12 808.397 1034.78 806.571 1036.07 805.237 1037.37 803.903 1039.11 803.223 1041.31 803.196ZM1123.06 782.484 1123.06 786.936 1126.18 786.936C1127.18 786.952 1127.95 786.801 1128.48 786.484 1129.02 786.166 1129.29 785.584 1129.29 784.739 1129.29 783.89 1129.02 783.299 1128.48 782.965 1127.95 782.631 1127.18 782.47 1126.18 782.484ZM1098.19 781.139C1097.39 781.15 1096.68 781.355 1096.05 781.755 1095.43 782.154 1094.9 782.682 1094.47 783.337 1094.66 784.972 1095.09 786.129 1095.77 786.806 1096.45 787.483 1097.23 787.81 1098.1 787.788 1099.05 787.781 1099.83 787.492 1100.44 786.922 1101.05 786.351 1101.36 785.541 1101.39 784.492 1101.37 783.441 1101.07 782.622 1100.49 782.034 1099.92 781.447 1099.15 781.149 1098.19 781.139ZM1060.85 776.574 1055.53 784.303 1060.85 784.303ZM1123.06 776.517 1123.06 780.59 1125.8 780.59C1126.72 780.601 1127.43 780.451 1127.92 780.14 1128.42 779.829 1128.66 779.291 1128.67 778.525 1128.66 777.762 1128.42 777.233 1127.92 776.938 1127.43 776.644 1126.72 776.503 1125.8 776.517ZM1159.92 775.664C1158.84 775.668 1157.99 776.181 1157.37 777.204 1156.74 778.226 1156.42 779.733 1156.41 781.726 1156.42 783.719 1156.74 785.227 1157.37 786.249 1157.99 787.271 1158.84 787.784 1159.92 787.788 1161 787.784 1161.85 787.271 1162.48 786.249 1163.1 785.227 1163.42 783.719 1163.44 781.726 1163.42 779.733 1163.1 778.226 1162.48 777.204 1161.85 776.181 1161 775.668 1159.92 775.664ZM1148.92 775.664C1147.84 775.668 1146.99 776.181 1146.37 777.204 1145.74 778.226 1145.42 779.733 1145.41 781.726 1145.42 783.719 1145.74 785.227 1146.37 786.249 1146.99 787.271 1147.84 787.784 1148.92 787.788 1150 787.784 1150.85 787.271 1151.48 786.249 1152.1 785.227 1152.42 783.719 1152.44 781.726 1152.42 779.733 1152.1 778.226 1151.48 777.204 1150.85 776.181 1150 775.668 1148.92 775.664ZM1108.93 775.664C1107.85 775.668 1107 776.181 1106.37 777.204 1105.74 778.226 1105.43 779.733 1105.41 781.726 1105.43 783.719 1105.74 785.227 1106.37 786.249 1107 787.271 1107.85 787.784 1108.93 787.788 1110 787.784 1110.86 787.271 1111.48 786.249 1112.11 785.227 1112.43 783.719 1112.44 781.726 1112.43 779.733 1112.11 778.226 1111.48 777.204 1110.86 776.181 1110 775.668 1108.93 775.664ZM1069.93 775.664C1068.85 775.668 1068 776.181 1067.38 777.204 1066.75 778.226 1066.43 779.733 1066.42 781.726 1066.43 783.719 1066.75 785.227 1067.38 786.249 1068 787.271 1068.85 787.784 1069.93 787.788 1071.01 787.784 1071.86 787.271 1072.49 786.249 1073.11 785.227 1073.43 783.719 1073.45 781.726 1073.43 779.733 1073.11 778.226 1072.49 777.204 1071.86 776.181 1071.01 775.668 1069.93 775.664ZM1135.19 774.85 1139.44 774.85 1139.44 788.603 1138.04 788.603 1138.04 776.043 1136 776.043C1135.75 776.039 1135.55 775.972 1135.4 775.842 1135.26 775.712 1135.19 775.546 1135.19 775.342ZM1060.64 774.85 1062.24 774.85 1062.24 784.284 1064.25 784.284 1064.25 784.966C1064.25 785.095 1064.2 785.211 1064.1 785.314 1064 785.417 1063.84 785.471 1063.62 785.477L1062.24 785.477 1062.24 788.603 1060.83 788.603 1060.83 785.477 1054.03 785.477 1054.03 784.227ZM1120.82 774.66 1126.63 774.66C1128 774.675 1129.05 775.015 1129.79 775.681 1130.53 776.347 1130.9 777.251 1130.91 778.392 1130.9 779.078 1130.76 779.672 1130.46 780.175 1130.17 780.679 1129.76 781.069 1129.24 781.348 1129.95 781.591 1130.51 782.003 1130.91 782.584 1131.32 783.164 1131.53 783.926 1131.54 784.871 1131.54 786.062 1131.16 787.009 1130.4 787.713 1129.64 788.416 1128.52 788.776 1127.01 788.792L1120.82 788.792ZM1040.83 774.66 1043.07 774.66 1043.07 780.59 1049.68 780.59 1049.68 774.66 1051.92 774.66 1051.92 787.504C1051.92 787.964 1051.81 788.295 1051.6 788.497 1051.38 788.698 1051.09 788.797 1050.73 788.792L1049.68 788.792 1049.68 782.484 1043.07 782.484 1043.07 787.504C1043.07 787.964 1042.96 788.295 1042.74 788.497 1042.53 788.698 1042.24 788.797 1041.87 788.792L1040.83 788.792ZM1159.92 774.471C1161.44 774.468 1162.63 775.066 1163.5 776.266 1164.36 777.466 1164.81 779.286 1164.82 781.726 1164.81 784.167 1164.36 785.987 1163.5 787.187 1162.63 788.387 1161.44 788.985 1159.92 788.982 1158.4 788.985 1157.21 788.387 1156.34 787.187 1155.48 785.987 1155.04 784.167 1155.02 781.726 1155.04 779.286 1155.48 777.466 1156.34 776.266 1157.21 775.066 1158.4 774.468 1159.92 774.471ZM1148.92 774.471C1150.44 774.468 1151.63 775.066 1152.5 776.266 1153.37 777.466 1153.81 779.286 1153.82 781.726 1153.81 784.167 1153.37 785.987 1152.5 787.187 1151.63 788.387 1150.44 788.985 1148.92 788.982 1147.4 788.985 1146.21 788.387 1145.35 787.187 1144.48 785.987 1144.04 784.167 1144.02 781.726 1144.04 779.286 1144.48 777.466 1145.35 776.266 1146.21 775.066 1147.4 774.468 1148.92 774.471ZM1108.93 774.471C1110.44 774.468 1111.64 775.066 1112.5 776.266 1113.37 777.466 1113.81 779.286 1113.83 781.726 1113.81 784.167 1113.37 785.987 1112.5 787.187 1111.64 788.387 1110.44 788.985 1108.93 788.982 1107.41 788.985 1106.22 788.387 1105.35 787.187 1104.48 785.987 1104.04 784.167 1104.02 781.726 1104.04 779.286 1104.48 777.466 1105.35 776.266 1106.22 775.066 1107.41 774.468 1108.93 774.471ZM1098.4 774.471C1099.01 774.471 1099.59 774.542 1100.15 774.682 1100.7 774.822 1101.18 775.029 1101.58 775.304L1102.03 775.627 1101.73 776.157C1101.65 776.295 1101.54 776.388 1101.4 776.436 1101.26 776.484 1101.09 776.455 1100.89 776.346 1100.52 776.136 1100.13 775.97 1099.73 775.849 1099.32 775.728 1098.88 775.667 1098.4 775.664 1097.32 775.668 1096.4 776.187 1095.65 777.223 1094.91 778.258 1094.5 779.791 1094.43 781.821 1094.8 781.295 1095.31 780.851 1095.97 780.49 1096.63 780.13 1097.37 779.942 1098.19 779.927 1099.56 779.942 1100.66 780.352 1101.49 781.158 1102.32 781.964 1102.75 783.075 1102.77 784.492 1102.74 785.906 1102.3 787.005 1101.44 787.788 1100.58 788.572 1099.47 788.97 1098.1 788.982 1097.16 788.988 1096.32 788.759 1095.56 788.294 1094.8 787.828 1094.19 787.09 1093.74 786.077 1093.29 785.065 1093.06 783.741 1093.05 782.105 1093.06 780.413 1093.3 779.001 1093.78 777.87 1094.25 776.738 1094.89 775.889 1095.7 775.322 1096.5 774.755 1097.4 774.471 1098.4 774.471ZM1069.93 774.471C1071.45 774.468 1072.64 775.066 1073.51 776.266 1074.37 777.466 1074.82 779.286 1074.83 781.726 1074.82 784.167 1074.37 785.987 1073.51 787.187 1072.64 788.387 1071.45 788.985 1069.93 788.982 1068.41 788.985 1067.22 788.387 1066.35 787.187 1065.49 785.987 1065.05 784.167 1065.03 781.726 1065.05 779.286 1065.49 777.466 1066.35 776.266 1067.22 775.066 1068.41 774.468 1069.93 774.471ZM1085.97 774.281C1086.74 774.286 1087.52 774.396 1088.31 774.611 1089.11 774.826 1089.79 775.12 1090.37 775.494L1090.98 775.892 1090.51 776.668C1090.37 776.901 1090.18 777.056 1089.96 777.135 1089.73 777.213 1089.45 777.184 1089.12 777.047 1088.63 776.82 1088.14 776.621 1087.65 776.448 1087.16 776.276 1086.6 776.185 1085.99 776.176 1085.2 776.173 1084.61 776.316 1084.2 776.602 1083.8 776.889 1083.59 777.334 1083.59 777.938 1083.61 778.493 1083.94 778.955 1084.57 779.325 1085.19 779.695 1085.98 780.111 1086.94 780.571 1087.69 780.942 1088.38 781.301 1089.01 781.646 1089.63 781.992 1090.13 782.41 1090.5 782.899 1090.88 783.388 1091.07 784.033 1091.08 784.833 1091.06 785.901 1090.8 786.753 1090.3 787.389 1089.8 788.026 1089.16 788.484 1088.4 788.762 1087.63 789.041 1086.84 789.177 1086.02 789.171 1084.99 789.172 1084.07 789.023 1083.27 788.724 1082.47 788.424 1081.74 787.967 1081.08 787.353L1080.5 786.803 1080.99 786.254C1081.25 785.952 1081.52 785.78 1081.8 785.738 1082.08 785.696 1082.38 785.78 1082.7 785.989 1083.01 786.225 1083.43 786.492 1083.95 786.789 1084.48 787.087 1085.12 787.249 1085.89 787.277 1086.63 787.29 1087.29 787.117 1087.87 786.761 1088.45 786.404 1088.76 785.787 1088.8 784.909 1088.79 784.461 1088.63 784.084 1088.31 783.778 1088 783.472 1087.59 783.199 1087.09 782.958 1086.59 782.718 1086.07 782.471 1085.53 782.219 1084.89 781.923 1084.24 781.597 1083.6 781.24 1082.95 780.883 1082.41 780.452 1081.97 779.946 1081.54 779.439 1081.31 778.814 1081.29 778.07 1081.31 777.099 1081.55 776.337 1082.02 775.783 1082.48 775.229 1083.07 774.839 1083.78 774.611 1084.48 774.384 1085.22 774.274 1085.97 774.281ZM1135.06 753.57 1135.06 758.022 1138.18 758.022C1139.18 758.038 1139.95 757.887 1140.48 757.569 1141.02 757.252 1141.29 756.67 1141.29 755.824 1141.29 754.976 1141.02 754.385 1140.48 754.051 1139.95 753.716 1139.18 753.556 1138.18 753.57ZM1122.84 747.659 1117.52 755.388 1122.84 755.388ZM1135.06 747.603 1135.06 751.675 1137.8 751.675C1138.72 751.687 1139.43 751.537 1139.92 751.226 1140.41 750.915 1140.66 750.376 1140.67 749.611 1140.66 748.847 1140.41 748.318 1139.92 748.024 1139.43 747.73 1138.72 747.589 1137.8 747.603ZM1030.07 747.603 1030.07 752.604 1032.62 752.604C1033.7 752.631 1034.54 752.477 1035.13 752.142 1035.73 751.807 1036.03 751.127 1036.04 750.103 1036.03 749.079 1035.73 748.399 1035.13 748.064 1034.54 747.729 1033.7 747.575 1032.62 747.603ZM1160.92 746.75C1159.84 746.754 1158.99 747.267 1158.37 748.289 1157.74 749.311 1157.42 750.819 1157.41 752.812 1157.42 754.805 1157.74 756.313 1158.37 757.335 1158.99 758.357 1159.84 758.87 1160.92 758.874 1162 758.87 1162.85 758.357 1163.48 757.335 1164.1 756.313 1164.42 754.805 1164.44 752.812 1164.42 750.819 1164.1 749.311 1163.48 748.289 1162.85 747.267 1162 746.754 1160.92 746.75ZM1109.93 746.75C1108.85 746.754 1108 747.267 1107.37 748.289 1106.74 749.311 1106.43 750.819 1106.41 752.812 1106.43 754.805 1106.74 756.313 1107.37 757.335 1108 758.357 1108.85 758.87 1109.93 758.874 1111 758.87 1111.86 758.357 1112.48 757.335 1113.11 756.313 1113.43 754.805 1113.44 752.812 1113.43 750.819 1113.11 749.311 1112.48 748.289 1111.86 747.267 1111 746.754 1109.93 746.75ZM1147.19 745.935 1151.44 745.935 1151.44 759.689 1150.04 759.689 1150.04 747.129 1148 747.129C1147.74 747.125 1147.54 747.057 1147.4 746.928 1147.26 746.798 1147.19 746.631 1147.19 746.428ZM1122.63 745.935 1124.23 745.935 1124.23 755.37 1126.24 755.37 1126.24 756.051C1126.25 756.181 1126.2 756.297 1126.09 756.4 1125.99 756.503 1125.83 756.557 1125.62 756.563L1124.23 756.563 1124.23 759.689 1122.82 759.689 1122.82 756.563 1116.02 756.563 1116.02 755.313ZM1063.8 745.935 1071.17 745.935 1071.17 746.617C1071.17 746.747 1071.12 746.862 1071.02 746.966 1070.92 747.069 1070.76 747.123 1070.54 747.129L1065.03 747.129 1064.5 751.713C1064.8 751.452 1065.16 751.24 1065.6 751.076 1066.04 750.913 1066.47 750.828 1066.91 750.823 1068.35 750.834 1069.49 751.243 1070.33 752.05 1071.17 752.856 1071.6 753.995 1071.62 755.464 1071.6 756.907 1071.17 758.032 1070.33 758.839 1069.49 759.645 1068.35 760.055 1066.91 760.068 1066.06 760.068 1065.27 759.939 1064.51 759.679 1063.76 759.42 1063.12 759.025 1062.6 758.495L1062.24 758.097 1062.62 757.643C1062.77 757.465 1062.94 757.375 1063.11 757.373 1063.29 757.37 1063.45 757.441 1063.61 757.586 1063.99 757.955 1064.47 758.259 1065.05 758.5 1065.62 758.741 1066.25 758.865 1066.91 758.874 1067.91 758.863 1068.7 758.558 1069.3 757.958 1069.9 757.357 1070.2 756.526 1070.22 755.464 1070.2 754.401 1069.9 753.563 1069.3 752.952 1068.7 752.34 1067.91 752.029 1066.91 752.016 1066.36 752.022 1065.83 752.149 1065.33 752.398 1064.82 752.647 1064.41 752.987 1064.08 753.418L1062.94 753.21ZM1052.8 745.935 1060.17 745.935 1060.17 746.617C1060.17 746.747 1060.12 746.862 1060.02 746.966 1059.92 747.069 1059.76 747.123 1059.54 747.129L1054.03 747.129 1053.5 751.713C1053.8 751.452 1054.16 751.24 1054.6 751.076 1055.04 750.913 1055.47 750.828 1055.91 750.823 1057.35 750.834 1058.49 751.243 1059.33 752.05 1060.17 752.856 1060.61 753.995 1060.62 755.464 1060.61 756.907 1060.17 758.032 1059.33 758.839 1058.49 759.645 1057.35 760.055 1055.91 760.068 1055.07 760.068 1054.27 759.939 1053.51 759.679 1052.76 759.42 1052.12 759.025 1051.6 758.495L1051.24 758.097 1051.62 757.643C1051.77 757.465 1051.94 757.375 1052.11 757.373 1052.29 757.37 1052.45 757.441 1052.61 757.586 1052.99 757.955 1053.47 758.259 1054.05 758.5 1054.63 758.741 1055.25 758.865 1055.91 758.874 1056.91 758.863 1057.7 758.558 1058.3 757.958 1058.9 757.357 1059.2 756.526 1059.22 755.464 1059.2 754.401 1058.9 753.563 1058.3 752.952 1057.7 752.34 1056.91 752.029 1055.91 752.016 1055.36 752.022 1054.83 752.149 1054.33 752.398 1053.82 752.647 1053.41 752.987 1053.08 753.418L1051.94 753.21ZM1132.82 745.746 1138.63 745.746C1140 745.761 1141.05 746.101 1141.79 746.767 1142.53 747.432 1142.9 748.336 1142.91 749.478 1142.9 750.164 1142.76 750.758 1142.46 751.261 1142.17 751.764 1141.76 752.155 1141.24 752.433 1141.95 752.677 1142.51 753.089 1142.91 753.669 1143.32 754.249 1143.53 755.012 1143.53 755.957 1143.53 757.148 1143.16 758.095 1142.4 758.798 1141.64 759.502 1140.51 759.862 1139.01 759.878L1132.82 759.878ZM1027.83 745.746 1033.36 745.746C1034.94 745.749 1036.16 746.117 1037 746.852 1037.85 747.586 1038.27 748.67 1038.28 750.103 1038.28 751.108 1038.06 751.944 1037.64 752.611 1037.22 753.277 1036.6 753.768 1035.79 754.081L1039.27 759.878 1036.65 759.878 1033.36 754.46 1030.07 754.46 1030.07 758.59C1030.07 759.05 1029.96 759.38 1029.74 759.582 1029.53 759.784 1029.24 759.883 1028.88 759.878L1027.83 759.878ZM1171.88 745.557C1173.24 745.577 1174.27 745.929 1174.97 746.613 1175.68 747.296 1176.04 748.188 1176.04 749.289 1176.04 750.108 1175.87 750.889 1175.53 751.633 1175.18 752.376 1174.64 753.11 1173.91 753.835L1169.3 758.495 1176.29 758.495 1176.29 759.177C1176.29 759.306 1176.24 759.422 1176.14 759.525 1176.04 759.628 1175.88 759.683 1175.66 759.689L1167.68 759.689 1167.68 758.419 1172.87 752.964C1173.43 752.381 1173.87 751.79 1174.17 751.19 1174.48 750.591 1174.63 749.957 1174.64 749.289 1174.63 748.545 1174.38 747.939 1173.89 747.472 1173.4 747.005 1172.73 746.765 1171.88 746.75 1171.29 746.754 1170.74 746.888 1170.24 747.153 1169.74 747.417 1169.27 747.788 1168.82 748.266 1168.65 748.448 1168.47 748.533 1168.29 748.519 1168.11 748.505 1167.94 748.433 1167.8 748.303L1167.42 747.981 1167.66 747.64C1168.15 746.998 1168.75 746.492 1169.47 746.123 1170.18 745.753 1170.99 745.564 1171.88 745.557ZM1160.92 745.557C1162.44 745.553 1163.63 746.152 1164.5 747.352 1165.36 748.551 1165.81 750.371 1165.82 752.812 1165.81 755.253 1165.36 757.073 1164.5 758.273 1163.63 759.472 1162.44 760.071 1160.92 760.068 1159.4 760.071 1158.21 759.472 1157.34 758.273 1156.48 757.073 1156.04 755.253 1156.02 752.812 1156.04 750.371 1156.48 748.551 1157.34 747.352 1158.21 746.152 1159.4 745.553 1160.92 745.557ZM1109.93 745.557C1111.44 745.553 1112.64 746.152 1113.5 747.352 1114.37 748.551 1114.81 750.371 1114.83 752.812 1114.81 755.253 1114.37 757.073 1113.5 758.273 1112.64 759.472 1111.44 760.071 1109.93 760.068 1108.41 760.071 1107.22 759.472 1106.35 758.273 1105.48 757.073 1105.04 755.253 1105.02 752.812 1105.04 750.371 1105.48 748.551 1106.35 747.352 1107.22 746.152 1108.41 745.553 1109.93 745.557ZM1098.89 745.557C1100.24 745.577 1101.27 745.929 1101.98 746.613 1102.69 747.296 1103.05 748.188 1103.05 749.289 1103.05 750.108 1102.88 750.889 1102.53 751.633 1102.19 752.376 1101.65 753.11 1100.92 753.835L1096.31 758.495 1103.3 758.495 1103.3 759.177C1103.3 759.306 1103.25 759.422 1103.15 759.525 1103.05 759.628 1102.89 759.683 1102.67 759.689L1094.69 759.689 1094.69 758.419 1099.88 752.964C1100.44 752.381 1100.88 751.79 1101.18 751.19 1101.49 750.591 1101.64 749.957 1101.64 749.289 1101.63 748.545 1101.38 747.939 1100.89 747.472 1100.4 747.005 1099.74 746.765 1098.89 746.75 1098.29 746.754 1097.75 746.888 1097.25 747.153 1096.75 747.417 1096.27 747.788 1095.83 748.266 1095.66 748.448 1095.48 748.533 1095.3 748.519 1095.11 748.505 1094.95 748.433 1094.8 748.303L1094.42 747.981 1094.67 747.64C1095.16 746.998 1095.76 746.492 1096.47 746.123 1097.19 745.753 1097.99 745.564 1098.89 745.557ZM1044.9 745.557C1046.25 745.577 1047.28 745.929 1047.99 746.613 1048.69 747.296 1049.05 748.188 1049.06 749.289 1049.06 750.108 1048.89 750.889 1048.54 751.633 1048.19 752.376 1047.66 753.11 1046.93 753.835L1042.31 758.495 1049.3 758.495 1049.3 759.177C1049.3 759.306 1049.25 759.422 1049.15 759.525 1049.05 759.628 1048.89 759.683 1048.68 759.689L1040.7 759.689 1040.7 758.419 1045.88 752.964C1046.45 752.381 1046.88 751.79 1047.19 751.19 1047.49 750.591 1047.65 749.957 1047.65 749.289 1047.64 748.545 1047.39 747.939 1046.9 747.472 1046.41 747.005 1045.74 746.765 1044.9 746.75 1044.3 746.754 1043.75 746.888 1043.25 747.153 1042.75 747.417 1042.28 747.788 1041.84 748.266 1041.66 748.448 1041.48 748.533 1041.3 748.519 1041.12 748.505 1040.96 748.433 1040.81 748.303L1040.43 747.981 1040.68 747.64C1041.17 746.998 1041.77 746.492 1042.48 746.123 1043.19 745.753 1044 745.564 1044.9 745.557ZM1086.3 745.367C1087.19 745.364 1088.04 745.441 1088.84 745.599 1089.63 745.757 1090.35 746.014 1091 746.371L1091.38 746.58 1090.96 747.659C1090.87 747.885 1090.75 748.026 1090.59 748.081 1090.43 748.136 1090.23 748.116 1089.97 748.019 1089.41 747.814 1088.83 747.638 1088.23 747.491 1087.64 747.345 1086.98 747.268 1086.27 747.262 1084.81 747.293 1083.64 747.827 1082.76 748.862 1081.88 749.898 1081.43 751.246 1081.4 752.907 1081.41 753.934 1081.62 754.858 1082.03 755.677 1082.44 756.496 1083.01 757.146 1083.75 757.626 1084.49 758.106 1085.35 758.352 1086.34 758.363 1086.93 758.361 1087.47 758.312 1087.96 758.213 1088.45 758.115 1088.9 757.976 1089.31 757.794L1089.31 753.93 1086.76 753.93C1086.5 753.925 1086.3 753.858 1086.16 753.728 1086.02 753.599 1085.94 753.432 1085.94 753.229L1085.94 752.035 1090.83 752.035C1091.07 752.035 1091.26 752.097 1091.39 752.222 1091.52 752.348 1091.58 752.538 1091.59 752.793L1091.59 758.836C1090.85 759.335 1090.04 759.697 1089.15 759.923 1088.26 760.149 1087.3 760.261 1086.28 760.257 1084.84 760.246 1083.58 759.929 1082.5 759.306 1081.43 758.684 1080.59 757.821 1079.99 756.718 1079.4 755.615 1079.09 754.339 1079.08 752.888 1079.11 750.569 1079.78 748.742 1081.07 747.408 1082.36 746.074 1084.11 745.394 1086.3 745.367ZM1020.48 716.471 1020.48 722.208 1023.12 722.208C1024.32 722.234 1025.25 722.046 1025.9 721.645 1026.56 721.244 1026.89 720.476 1026.9 719.339 1026.89 718.203 1026.56 717.434 1025.9 717.034 1025.25 716.633 1024.32 716.445 1023.12 716.471ZM1158.87 716.094C1157.8 716.107 1156.89 716.386 1156.12 716.932 1155.35 717.478 1154.76 718.215 1154.35 719.143 1153.94 720.071 1153.73 721.113 1153.73 722.271 1153.73 723.414 1153.94 724.443 1154.35 725.358 1154.76 726.273 1155.35 727 1156.11 727.538 1156.88 728.076 1157.8 728.351 1158.87 728.364 1159.96 728.351 1160.89 728.076 1161.65 727.538 1162.41 727 1162.99 726.273 1163.39 725.358 1163.79 724.443 1163.99 723.414 1164 722.271 1163.99 721.113 1163.78 720.071 1163.37 719.143 1162.96 718.215 1162.37 717.478 1161.61 716.932 1160.85 716.386 1159.93 716.107 1158.87 716.094ZM1167.64 714.419 1170.05 714.419 1172.51 725.369 1172.83 727.065 1173.18 725.369 1175.83 714.419 1178.81 714.419 1181.46 725.369 1181.81 727.065 1182.13 725.369 1184.59 714.419 1187 714.419 1183.28 730.039 1180.34 730.039 1177.61 718.816 1177.32 717.371 1177.03 718.837 1174.3 730.039 1171.36 730.039ZM1139.99 714.419 1142.46 714.419 1142.46 727.987 1149.79 727.987 1149.79 729.473C1149.79 729.616 1149.74 729.744 1149.63 729.858 1149.52 729.972 1149.34 730.032 1149.1 730.039L1139.99 730.039ZM1127.99 714.419 1130.47 714.419 1130.47 727.987 1137.79 727.987 1137.79 729.473C1137.8 729.616 1137.74 729.744 1137.63 729.858 1137.52 729.972 1137.34 730.032 1137.1 730.039L1127.99 730.039ZM1113.99 714.419 1124.59 714.419 1124.59 715.905C1124.59 716.048 1124.54 716.176 1124.43 716.29 1124.32 716.404 1124.14 716.464 1123.9 716.471L1116.47 716.471 1116.47 721.014 1124.38 721.014 1124.38 722.459C1124.39 722.602 1124.33 722.73 1124.22 722.844 1124.11 722.958 1123.93 723.018 1123.69 723.024L1116.47 723.024 1116.47 727.987 1124.93 727.987 1124.93 729.473C1124.93 729.616 1124.88 729.744 1124.76 729.858 1124.65 729.972 1124.48 730.032 1124.24 730.039L1113.99 730.039ZM1098.65 714.419 1101.17 714.419 1105.45 721.287 1109.73 714.419 1112.25 714.419 1106.73 723.757 1106.73 728.615C1106.73 729.123 1106.61 729.488 1106.37 729.711 1106.13 729.934 1105.81 730.043 1105.41 730.039L1104.17 730.039 1104.17 723.757ZM1078.99 714.419 1089.6 714.419 1089.6 715.905C1089.6 716.048 1089.54 716.176 1089.43 716.29 1089.32 716.404 1089.14 716.464 1088.9 716.471L1081.47 716.471 1081.47 721.014 1089.39 721.014 1089.39 722.459C1089.39 722.602 1089.33 722.73 1089.22 722.844 1089.11 722.958 1088.93 723.018 1088.69 723.024L1081.47 723.024 1081.47 727.987 1089.93 727.987 1089.93 729.473C1089.93 729.616 1089.88 729.744 1089.77 729.858 1089.66 729.972 1089.48 730.032 1089.24 730.039L1078.99 730.039ZM1066.99 714.419 1069.47 714.419 1069.47 727.987 1076.8 727.987 1076.8 729.473C1076.8 729.616 1076.75 729.744 1076.64 729.858 1076.52 729.972 1076.35 730.032 1076.11 730.039L1066.99 730.039ZM1053 714.419 1055.47 714.419 1055.47 720.47 1061.31 714.419 1064.5 714.419 1057.41 721.915 1065.2 730.039 1062 730.039 1055.47 723.422 1055.47 728.615C1055.47 729.123 1055.35 729.488 1055.11 729.711 1054.88 729.934 1054.56 730.043 1054.15 730.039L1053 730.039ZM1031.94 714.419 1034.46 714.419 1034.46 728.615C1034.45 729.123 1034.33 729.488 1034.09 729.711 1033.86 729.934 1033.54 730.043 1033.13 730.039L1031.94 730.039ZM1018 714.419 1023.94 714.419C1025.69 714.426 1027.04 714.851 1027.97 715.693 1028.9 716.536 1029.37 717.751 1029.38 719.339 1029.37 720.927 1028.9 722.143 1027.97 722.985 1027.04 723.827 1025.69 724.252 1023.94 724.26L1020.48 724.26 1020.48 728.615C1020.47 729.123 1020.35 729.488 1020.12 729.711 1019.88 729.934 1019.56 730.043 1019.15 730.039L1018 730.039ZM1158.87 714C1160.56 714.018 1161.97 714.396 1163.11 715.135 1164.25 715.873 1165.1 716.864 1165.67 718.107 1166.25 719.35 1166.54 720.738 1166.54 722.271 1166.54 723.782 1166.24 725.154 1165.66 726.385 1165.08 727.615 1164.22 728.597 1163.08 729.331 1161.94 730.064 1160.54 730.439 1158.87 730.457 1157.18 730.439 1155.76 730.064 1154.62 729.331 1153.47 728.597 1152.61 727.615 1152.04 726.385 1151.46 725.154 1151.17 723.782 1151.17 722.271 1151.17 720.738 1151.46 719.35 1152.03 718.107 1152.61 716.864 1153.46 715.873 1154.61 715.135 1155.75 714.396 1157.17 714.018 1158.87 714ZM1045.16 714C1046.14 713.997 1047.07 714.082 1047.96 714.257 1048.84 714.431 1049.64 714.715 1050.34 715.11L1050.76 715.34 1050.3 716.534C1050.21 716.783 1050.08 716.938 1049.9 717 1049.72 717.061 1049.49 717.038 1049.21 716.931 1048.59 716.704 1047.95 716.51 1047.29 716.348 1046.63 716.186 1045.91 716.101 1045.12 716.094 1044.05 716.108 1043.12 716.396 1042.31 716.958 1041.51 717.519 1040.88 718.27 1040.43 719.208 1039.98 720.147 1039.75 721.189 1039.74 722.333 1039.75 723.469 1039.98 724.49 1040.43 725.395 1040.89 726.3 1041.52 727.018 1042.34 727.549 1043.15 728.08 1044.11 728.352 1045.2 728.364 1046.09 728.353 1046.87 728.244 1047.56 728.036 1048.25 727.829 1048.86 727.589 1049.4 727.317 1049.7 727.172 1049.97 727.147 1050.19 727.241 1050.41 727.335 1050.6 727.534 1050.74 727.84L1051.14 728.74 1050.76 728.992C1049.97 729.52 1049.12 729.898 1048.19 730.125 1047.27 730.352 1046.25 730.463 1045.14 730.457 1043.54 730.445 1042.14 730.095 1040.96 729.406 1039.77 728.718 1038.84 727.765 1038.18 726.546 1037.52 725.327 1037.19 723.916 1037.18 722.313 1037.21 719.749 1037.94 717.731 1039.37 716.256 1040.8 714.782 1042.73 714.03 1045.16 714Z" fill="url(#fill1)" fill-rule="evenodd"/></g></svg>