<svg width="180" height="201" xmlns="http://www.w3.org/2000/svg" xmlns:xlink="http://www.w3.org/1999/xlink" overflow="hidden"><defs><clipPath id="clip0"><path d="M614 531 794 531 794 732 614 732Z" fill-rule="evenodd" clip-rule="evenodd"/></clipPath><linearGradient x1="703.5" y1="584" x2="703.5" y2="691" gradientUnits="userSpaceOnUse" spreadMethod="reflect" id="fill1"><stop offset="0"/><stop offset="0.0354"/><stop offset="0.35398"/><stop offset="1"/></linearGradient></defs><g clip-path="url(#clip0)" transform="translate(-614 -531)"><path d="M704 531 793 581.83 793 680.17 704 731 615 680.17 615 581.83Z" fill="#FFCC66" fill-rule="evenodd"/><path d="M734.405 684.538C733.766 684.547 733.197 684.712 732.696 685.033 732.196 685.355 731.774 685.779 731.431 686.306 731.58 687.622 731.927 688.552 732.47 689.097 733.014 689.641 733.634 689.905 734.329 689.887 735.089 689.882 735.713 689.649 736.2 689.19 736.687 688.731 736.938 688.079 736.955 687.236 736.943 686.39 736.705 685.731 736.243 685.258 735.781 684.786 735.169 684.546 734.405 684.538ZM725.619 684.538C724.98 684.547 724.411 684.712 723.91 685.033 723.41 685.355 722.988 685.779 722.645 686.306 722.794 687.622 723.141 688.552 723.684 689.097 724.228 689.641 724.848 689.905 725.543 689.887 726.303 689.882 726.927 689.649 727.414 689.19 727.901 688.731 728.152 688.079 728.169 687.236 728.156 686.39 727.919 685.731 727.457 685.258 726.995 684.786 726.383 684.546 725.619 684.538ZM672.256 683.425 671.725 686.519 674.153 686.519 674.684 683.425ZM690.331 679.478 697.616 679.478 697.616 680.027C697.617 680.131 697.577 680.224 697.496 680.307 697.416 680.39 697.288 680.434 697.115 680.438L691.454 680.438 691.454 684.309 697.464 684.309 697.464 684.828C697.465 684.931 697.425 685.025 697.344 685.108 697.264 685.19 697.137 685.234 696.963 685.239L691.454 685.239 691.454 690.543 690.331 690.543ZM680.747 679.478 688.031 679.478 688.031 680.027C688.032 680.131 687.992 680.224 687.911 680.307 687.831 680.39 687.704 680.434 687.53 680.438L681.87 680.438 681.87 684.309 687.879 684.309 687.879 684.828C687.88 684.931 687.84 685.025 687.76 685.108 687.679 685.19 687.552 685.234 687.378 685.239L681.87 685.239 681.87 690.543 680.747 690.543ZM734.572 679.173C735.057 679.174 735.521 679.23 735.965 679.343 736.408 679.456 736.789 679.623 737.107 679.844L737.471 680.103 737.228 680.53C737.167 680.641 737.08 680.716 736.968 680.755 736.856 680.793 736.72 680.769 736.56 680.682 736.266 680.513 735.955 680.379 735.629 680.282 735.302 680.185 734.95 680.135 734.572 680.133 733.707 680.136 732.975 680.554 732.377 681.387 731.78 682.22 731.454 683.453 731.4 685.087 731.691 684.663 732.1 684.306 732.63 684.016 733.159 683.726 733.751 683.575 734.405 683.563 735.5 683.575 736.379 683.905 737.042 684.553 737.705 685.202 738.045 686.096 738.063 687.236 738.041 688.373 737.686 689.257 736.998 689.887 736.311 690.518 735.421 690.838 734.329 690.848 733.582 690.853 732.905 690.668 732.298 690.294 731.691 689.92 731.208 689.325 730.847 688.511 730.486 687.696 730.301 686.631 730.293 685.315 730.302 683.954 730.496 682.818 730.876 681.908 731.256 680.997 731.768 680.314 732.411 679.858 733.054 679.402 733.774 679.173 734.572 679.173ZM725.786 679.173C726.271 679.174 726.735 679.23 727.179 679.343 727.622 679.456 728.003 679.623 728.321 679.844L728.685 680.103 728.442 680.53C728.381 680.641 728.294 680.716 728.182 680.755 728.07 680.793 727.934 680.769 727.774 680.682 727.48 680.513 727.169 680.379 726.843 680.282 726.516 680.185 726.164 680.135 725.786 680.133 724.921 680.136 724.189 680.554 723.591 681.387 722.994 682.22 722.668 683.453 722.614 685.087 722.905 684.663 723.314 684.306 723.844 684.016 724.373 683.726 724.965 683.575 725.619 683.563 726.714 683.575 727.593 683.905 728.256 684.553 728.919 685.202 729.259 686.096 729.277 687.236 729.255 688.373 728.9 689.257 728.212 689.887 727.525 690.518 726.635 690.838 725.543 690.848 724.796 690.853 724.119 690.668 723.512 690.294 722.905 689.92 722.421 689.325 722.061 688.511 721.7 687.696 721.515 686.631 721.507 685.315 721.516 683.954 721.71 682.818 722.09 681.908 722.47 680.997 722.981 680.314 723.624 679.858 724.267 679.402 724.988 679.173 725.786 679.173ZM716.122 679.173C716.817 679.176 717.471 679.25 718.085 679.396 718.699 679.542 719.243 679.742 719.718 679.996L720.037 680.164 719.885 680.575C719.83 680.723 719.736 680.821 719.603 680.869 719.469 680.917 719.311 680.901 719.126 680.819 718.713 680.624 718.261 680.462 717.772 680.333 717.282 680.205 716.732 680.138 716.122 680.133 715.306 680.138 714.561 680.339 713.884 680.734 713.208 681.13 712.666 681.691 712.258 682.418 711.85 683.146 711.64 684.01 711.63 685.01 711.641 686.011 711.853 686.875 712.265 687.602 712.677 688.33 713.221 688.891 713.898 689.287 714.575 689.682 715.316 689.883 716.122 689.887 716.751 689.879 717.351 689.789 717.924 689.619 718.496 689.448 718.998 689.248 719.43 689.019 719.591 688.94 719.732 688.926 719.851 688.979 719.971 689.031 720.058 689.121 720.113 689.247L720.295 689.628 719.946 689.842C719.447 690.144 718.87 690.386 718.216 690.568 717.561 690.749 716.863 690.843 716.122 690.848 715.068 690.844 714.12 690.615 713.276 690.161 712.433 689.706 711.763 689.044 711.267 688.177 710.772 687.309 710.518 686.253 710.506 685.01 710.517 683.768 710.769 682.712 711.261 681.844 711.753 680.976 712.42 680.315 713.263 679.86 714.106 679.405 715.058 679.177 716.122 679.173ZM704.939 679.173C705.635 679.176 706.289 679.25 706.903 679.396 707.516 679.542 708.061 679.742 708.536 679.996L708.855 680.164 708.703 680.575C708.648 680.723 708.553 680.821 708.42 680.869 708.287 680.917 708.128 680.901 707.944 680.819 707.531 680.624 707.079 680.462 706.59 680.333 706.1 680.205 705.55 680.138 704.939 680.133 704.124 680.138 703.379 680.339 702.702 680.734 702.026 681.13 701.484 681.691 701.076 682.418 700.667 683.146 700.458 684.01 700.447 685.01 700.459 686.011 700.67 686.875 701.082 687.602 701.494 688.33 702.039 688.891 702.716 689.287 703.393 689.682 704.134 689.883 704.939 689.887 705.568 689.879 706.169 689.789 706.741 689.619 707.314 689.448 707.816 689.248 708.248 689.019 708.409 688.94 708.549 688.926 708.669 688.979 708.788 689.031 708.876 689.121 708.931 689.247L709.113 689.628 708.764 689.842C708.265 690.144 707.688 690.386 707.034 690.568 706.379 690.749 705.681 690.843 704.939 690.848 703.886 690.844 702.937 690.615 702.094 690.161 701.251 689.706 700.581 689.044 700.085 688.177 699.589 687.309 699.336 686.253 699.324 685.01 699.335 683.768 699.587 682.712 700.079 681.844 700.571 680.976 701.238 680.315 702.081 679.86 702.923 679.405 703.876 679.177 704.939 679.173ZM671.3 679.021 673.015 679.021 672.514 681.932 674.942 681.932 675.443 679.021 677.158 679.021 676.657 681.932 678.463 681.932 678.463 683.014C678.464 683.118 678.424 683.211 678.343 683.294 678.263 683.377 678.136 683.421 677.962 683.425L676.399 683.425 675.868 686.519 677.856 686.519 677.856 687.601C677.857 687.705 677.817 687.799 677.736 687.881 677.656 687.964 677.529 688.008 677.355 688.013L675.61 688.013 675.094 691 673.379 691 673.895 688.013 671.467 688.013 670.951 691 669.236 691 669.752 688.013 668.599 688.013C668.392 688.009 668.232 687.955 668.119 687.851 668.005 687.746 667.948 687.612 667.946 687.449L667.946 686.519 670.01 686.519 670.541 683.425 669.206 683.425C668.999 683.422 668.839 683.368 668.726 683.263 668.612 683.159 668.555 683.025 668.553 682.862L668.553 681.932 670.799 681.932ZM722.424 661.276C721.785 661.285 721.216 661.45 720.715 661.771 720.215 662.093 719.793 662.517 719.45 663.044 719.599 664.36 719.946 665.29 720.489 665.835 721.033 666.38 721.653 666.643 722.348 666.626 723.109 666.62 723.732 666.387 724.219 665.928 724.706 665.469 724.957 664.818 724.974 663.974 724.962 663.128 724.724 662.469 724.263 661.996 723.801 661.524 723.188 661.284 722.424 661.276ZM754.161 656.872C753.301 656.875 752.62 657.288 752.12 658.11 751.62 658.932 751.364 660.145 751.354 661.749 751.364 663.352 751.62 664.565 752.12 665.387 752.62 666.21 753.301 666.622 754.161 666.626 755.022 666.622 755.702 666.21 756.202 665.387 756.702 664.565 756.958 663.352 756.969 661.749 756.958 660.145 756.702 658.932 756.202 658.11 755.702 657.288 755.022 656.875 754.161 656.872ZM730.998 656.872C730.137 656.875 729.457 657.288 728.957 658.11 728.457 658.932 728.201 660.145 728.19 661.749 728.201 663.352 728.457 664.565 728.957 665.387 729.457 666.21 730.137 666.622 730.998 666.626 731.858 666.622 732.539 666.21 733.039 665.387 733.539 664.565 733.795 663.352 733.805 661.749 733.795 660.145 733.539 658.932 733.039 658.11 732.539 657.288 731.858 656.875 730.998 656.872ZM699.049 656.872C698.188 656.875 697.508 657.288 697.007 658.11 696.507 658.932 696.252 660.145 696.241 661.749 696.252 663.352 696.507 664.565 697.007 665.387 697.508 666.21 698.188 666.622 699.049 666.626 699.909 666.622 700.59 666.21 701.09 665.387 701.59 664.565 701.845 663.352 701.856 661.749 701.845 660.145 701.59 658.932 701.09 658.11 700.59 657.288 699.909 656.875 699.049 656.872ZM663.905 656.872C663.044 656.875 662.364 657.288 661.863 658.11 661.363 658.932 661.108 660.145 661.097 661.749 661.108 663.352 661.363 664.565 661.863 665.387 662.364 666.21 663.044 666.622 663.905 666.626 664.765 666.622 665.445 666.21 665.946 665.387 666.446 664.565 666.701 663.352 666.712 661.749 666.701 660.145 666.446 658.932 665.946 658.11 665.445 657.288 664.765 656.875 663.905 656.872ZM740.5 656.064 742.29 656.064 742.29 660.468 746.509 656.064 748.816 656.064 743.687 661.52 749.317 667.433 747.01 667.433 742.29 662.617 742.29 666.397C742.287 666.767 742.199 667.033 742.029 667.195 741.858 667.357 741.626 667.437 741.334 667.433L740.5 667.433ZM707.579 656.064 709.4 656.064 712.496 661.063 715.592 656.064 717.413 656.064 713.422 662.861 713.422 666.397C713.418 666.767 713.331 667.033 713.16 667.195 712.989 667.357 712.758 667.437 712.466 667.433L711.57 667.433 711.57 662.861ZM673.406 656.064 675.334 656.064 678.657 662.008 678.961 662.648 679.264 662.008 682.588 656.064 684.06 656.064C684.185 656.067 684.291 656.11 684.378 656.195 684.466 656.28 684.511 656.389 684.515 656.521L684.515 666.397C684.511 666.767 684.424 667.033 684.253 667.195 684.082 667.357 683.851 667.437 683.559 667.433L682.755 667.433 682.755 659.188 679.795 664.72 678.126 664.72 675.167 659.188 675.167 666.397C675.163 666.767 675.076 667.033 674.905 667.195 674.734 667.357 674.503 667.437 674.211 667.433L673.406 667.433ZM754.161 655.911C755.373 655.909 756.326 656.39 757.018 657.355 757.71 658.321 758.063 659.785 758.076 661.749 758.063 663.712 757.71 665.176 757.018 666.142 756.326 667.107 755.373 667.588 754.161 667.586 752.949 667.588 751.997 667.107 751.304 666.142 750.612 665.176 750.259 663.712 750.246 661.749 750.259 659.785 750.612 658.321 751.304 657.355 751.997 656.39 752.949 655.909 754.161 655.911ZM730.998 655.911C732.21 655.909 733.162 656.39 733.855 657.355 734.547 658.321 734.9 659.785 734.913 661.749 734.9 663.712 734.547 665.176 733.855 666.142 733.162 667.107 732.21 667.588 730.998 667.586 729.786 667.588 728.833 667.107 728.141 666.142 727.449 665.176 727.096 663.712 727.083 661.749 727.096 659.785 727.449 658.321 728.141 657.355 728.833 656.39 729.786 655.909 730.998 655.911ZM722.591 655.911C723.076 655.912 723.54 655.968 723.984 656.081 724.427 656.194 724.808 656.361 725.126 656.582L725.49 656.841 725.247 657.268C725.186 657.379 725.099 657.454 724.987 657.493 724.875 657.531 724.739 657.507 724.579 657.42 724.285 657.251 723.974 657.117 723.648 657.02 723.321 656.923 722.969 656.873 722.591 656.872 721.726 656.874 720.994 657.292 720.396 658.125 719.799 658.958 719.473 660.191 719.419 661.825 719.71 661.401 720.12 661.044 720.649 660.754 721.178 660.464 721.77 660.313 722.424 660.301 723.519 660.313 724.398 660.643 725.061 661.291 725.724 661.94 726.064 662.834 726.082 663.974 726.06 665.111 725.705 665.995 725.017 666.626 724.33 667.256 723.44 667.576 722.348 667.586 721.601 667.591 720.924 667.406 720.317 667.032 719.71 666.658 719.227 666.063 718.866 665.249 718.505 664.434 718.32 663.369 718.312 662.053 718.321 660.692 718.515 659.556 718.895 658.646 719.275 657.736 719.786 657.052 720.43 656.596 721.073 656.14 721.793 655.912 722.591 655.911ZM699.049 655.911C700.261 655.909 701.213 656.39 701.906 657.355 702.598 658.321 702.951 659.785 702.964 661.749 702.951 663.712 702.598 665.176 701.906 666.142 701.213 667.107 700.261 667.588 699.049 667.586 697.836 667.588 696.884 667.107 696.192 666.142 695.499 665.176 695.147 663.712 695.133 661.749 695.147 659.785 695.499 658.321 696.192 657.355 696.884 656.39 697.836 655.909 699.049 655.911ZM690.232 655.911C691.314 655.928 692.137 656.211 692.702 656.761 693.267 657.311 693.552 658.029 693.556 658.914 693.558 659.573 693.421 660.202 693.144 660.8 692.867 661.398 692.438 661.989 691.856 662.572L688.168 666.321 693.753 666.321 693.753 666.869C693.754 666.973 693.714 667.067 693.634 667.149 693.553 667.232 693.426 667.276 693.252 667.281L686.878 667.281 686.878 666.26 691.021 661.87C691.472 661.402 691.819 660.926 692.063 660.444 692.307 659.961 692.43 659.451 692.433 658.914 692.425 658.315 692.225 657.828 691.833 657.453 691.442 657.077 690.908 656.883 690.232 656.872 689.757 656.875 689.319 656.983 688.92 657.195 688.52 657.408 688.143 657.707 687.789 658.091 687.65 658.238 687.507 658.306 687.362 658.295 687.217 658.284 687.086 658.226 686.969 658.121L686.666 657.862 686.863 657.588C687.253 657.071 687.733 656.664 688.303 656.367 688.873 656.069 689.516 655.917 690.232 655.911ZM663.905 655.911C665.117 655.909 666.069 656.39 666.761 657.355 667.454 658.321 667.807 659.785 667.82 661.749 667.807 663.712 667.454 665.176 666.761 666.142 666.069 667.107 665.117 667.588 663.905 667.586 662.692 667.588 661.74 667.107 661.048 666.142 660.355 665.176 660.002 663.712 659.989 661.749 660.002 659.785 660.355 658.321 661.048 657.355 661.74 656.39 662.692 655.909 663.905 655.911ZM654.619 655.759C655.329 655.756 656.003 655.819 656.641 655.946 657.279 656.073 657.855 656.28 658.368 656.567L658.671 656.734 658.337 657.603C658.27 657.785 658.173 657.898 658.045 657.942 657.917 657.987 657.752 657.97 657.548 657.893 657.099 657.727 656.636 657.586 656.16 657.468 655.683 657.35 655.16 657.288 654.589 657.283 653.819 657.293 653.144 657.503 652.563 657.912 651.982 658.321 651.528 658.867 651.202 659.55 650.875 660.233 650.709 660.991 650.704 661.825 650.709 662.651 650.876 663.394 651.204 664.053 651.532 664.712 651.991 665.235 652.581 665.621 653.171 666.008 653.86 666.205 654.65 666.214 655.291 666.206 655.859 666.127 656.355 665.976 656.85 665.825 657.294 665.65 657.685 665.452 657.905 665.347 658.095 665.328 658.256 665.397 658.417 665.465 658.55 665.61 658.656 665.833L658.944 666.488 658.671 666.671C658.099 667.056 657.48 667.331 656.814 667.496 656.148 667.662 655.412 667.742 654.604 667.738 653.449 667.729 652.441 667.474 651.582 666.973 650.722 666.472 650.055 665.778 649.578 664.891 649.101 664.004 648.86 662.977 648.852 661.81 648.876 659.944 649.405 658.474 650.438 657.401 651.471 656.328 652.865 655.781 654.619 655.759ZM719.926 639.096 719.926 642.678 722.415 642.678C723.216 642.691 723.83 642.57 724.257 642.314 724.684 642.058 724.899 641.59 724.904 640.91 724.899 640.228 724.684 639.752 724.257 639.483 723.83 639.214 723.216 639.085 722.415 639.096ZM700.06 638.014C699.421 638.023 698.851 638.188 698.351 638.51 697.85 638.831 697.428 639.255 697.085 639.782 697.235 641.098 697.581 642.028 698.125 642.573 698.669 643.118 699.288 643.381 699.984 643.364 700.744 643.358 701.367 643.125 701.854 642.666 702.341 642.207 702.593 641.556 702.609 640.712 702.597 639.866 702.36 639.207 701.898 638.734 701.436 638.262 700.823 638.022 700.06 638.014ZM670.23 634.341 665.98 640.559 670.23 640.559ZM719.926 634.296 719.926 637.572 722.111 637.572C722.851 637.581 723.417 637.46 723.809 637.21 724.201 636.96 724.399 636.527 724.403 635.911 724.399 635.297 724.201 634.871 723.809 634.635 723.417 634.398 722.851 634.285 722.111 634.296ZM749.369 633.61C748.508 633.613 747.828 634.026 747.328 634.848 746.827 635.67 746.572 636.883 746.561 638.487 746.572 640.09 746.827 641.303 747.328 642.125 747.828 642.948 748.508 643.36 749.369 643.364 750.229 643.36 750.91 642.948 751.41 642.125 751.91 641.303 752.166 640.09 752.176 638.487 752.166 636.883 751.91 635.67 751.41 634.848 750.91 634.026 750.229 633.613 749.369 633.61ZM740.583 633.61C739.722 633.613 739.042 634.026 738.542 634.848 738.041 635.67 737.786 636.883 737.775 638.487 737.786 640.09 738.041 641.303 738.542 642.125 739.042 642.948 739.722 643.36 740.583 643.364 741.443 643.36 742.124 642.948 742.624 642.125 743.124 641.303 743.38 640.09 743.39 638.487 743.38 636.883 743.124 635.67 742.624 634.848 742.124 634.026 741.443 633.613 740.583 633.61ZM708.633 633.61C707.773 633.613 707.092 634.026 706.592 634.848 706.092 635.67 705.837 636.883 705.826 638.487 705.837 640.09 706.092 641.303 706.592 642.125 707.092 642.948 707.773 643.36 708.633 643.364 709.494 643.36 710.174 642.948 710.675 642.125 711.175 641.303 711.43 640.09 711.441 638.487 711.43 636.883 711.175 635.67 710.675 634.848 710.174 634.026 709.494 633.613 708.633 633.61ZM677.483 633.61C676.622 633.613 675.942 634.026 675.442 634.848 674.942 635.67 674.686 636.883 674.675 638.487 674.686 640.09 674.942 641.303 675.442 642.125 675.942 642.948 676.622 643.36 677.483 643.364 678.344 643.36 679.024 642.948 679.524 642.125 680.024 641.303 680.28 640.09 680.29 638.487 680.28 636.883 680.024 635.67 679.524 634.848 679.024 634.026 678.344 633.613 677.483 633.61ZM729.611 632.954 733.011 632.954 733.011 644.019 731.888 644.019 731.888 633.914 730.264 633.914C730.057 633.911 729.897 633.857 729.784 633.753 729.67 633.648 729.613 633.514 729.611 633.351ZM670.063 632.954 671.337 632.954 671.337 640.544 672.946 640.544 672.946 641.093C672.947 641.197 672.907 641.29 672.827 641.373 672.746 641.456 672.619 641.5 672.445 641.504L671.337 641.504 671.337 644.019 670.214 644.019 670.214 641.504 664.781 641.504 664.781 640.498ZM718.135 632.802 722.779 632.802C723.871 632.814 724.711 633.087 725.3 633.623 725.889 634.159 726.187 634.886 726.194 635.804 726.19 636.356 726.072 636.834 725.839 637.239 725.606 637.644 725.279 637.958 724.858 638.182 725.426 638.378 725.872 638.71 726.197 639.176 726.522 639.643 726.688 640.256 726.694 641.017 726.694 641.975 726.391 642.737 725.788 643.303 725.184 643.868 724.282 644.158 723.083 644.171L718.135 644.171ZM654.237 632.802 656.027 632.802 656.027 637.572 661.309 637.572 661.309 632.802 663.099 632.802 663.099 643.135C663.096 643.505 663.008 643.771 662.838 643.933 662.667 644.095 662.435 644.175 662.143 644.171L661.309 644.171 661.309 639.096 656.027 639.096 656.027 643.135C656.024 643.505 655.936 643.771 655.766 643.933 655.595 644.095 655.363 644.175 655.071 644.171L654.237 644.171ZM749.369 632.65C750.581 632.647 751.533 633.128 752.226 634.094 752.918 635.059 753.271 636.523 753.284 638.487 753.271 640.45 752.918 641.914 752.226 642.88 751.533 643.845 750.581 644.326 749.369 644.324 748.157 644.326 747.204 643.845 746.512 642.88 745.819 641.914 745.467 640.45 745.453 638.487 745.467 636.523 745.819 635.059 746.512 634.094 747.204 633.128 748.157 632.647 749.369 632.65ZM740.583 632.65C741.795 632.647 742.747 633.128 743.44 634.094 744.132 635.059 744.485 636.523 744.498 638.487 744.485 640.45 744.132 641.914 743.44 642.88 742.747 643.845 741.795 644.326 740.583 644.324 739.37 644.326 738.418 643.845 737.726 642.88 737.033 641.914 736.681 640.45 736.667 638.487 736.681 636.523 737.033 635.059 737.726 634.094 738.418 633.128 739.37 632.647 740.583 632.65ZM708.633 632.65C709.846 632.647 710.798 633.128 711.49 634.094 712.183 635.059 712.536 636.523 712.549 638.487 712.536 640.45 712.183 641.914 711.49 642.88 710.798 643.845 709.846 644.326 708.633 644.324 707.421 644.326 706.469 643.845 705.777 642.88 705.084 641.914 704.731 640.45 704.718 638.487 704.731 636.523 705.084 635.059 705.777 634.094 706.469 633.128 707.421 632.647 708.633 632.65ZM700.227 632.65C700.712 632.65 701.176 632.706 701.619 632.819 702.062 632.932 702.443 633.099 702.761 633.32L703.125 633.579 702.883 634.006C702.822 634.117 702.735 634.192 702.623 634.231 702.51 634.269 702.375 634.245 702.215 634.158 701.92 633.989 701.61 633.855 701.283 633.758 700.957 633.661 700.605 633.612 700.227 633.61 699.361 633.612 698.63 634.03 698.032 634.863 697.434 635.696 697.108 636.93 697.055 638.563 697.345 638.139 697.755 637.782 698.284 637.492 698.814 637.202 699.405 637.051 700.06 637.039 701.155 637.051 702.034 637.381 702.697 638.029 703.359 638.678 703.7 639.572 703.717 640.712 703.695 641.849 703.341 642.733 702.653 643.364 701.965 643.994 701.076 644.314 699.984 644.324 699.237 644.329 698.559 644.144 697.953 643.77 697.346 643.396 696.862 642.801 696.501 641.987 696.141 641.172 695.956 640.107 695.947 638.791 695.956 637.43 696.151 636.294 696.531 635.384 696.911 634.474 697.422 633.791 698.065 633.334 698.708 632.878 699.429 632.65 700.227 632.65ZM677.483 632.65C678.695 632.647 679.647 633.128 680.34 634.094 681.032 635.059 681.385 636.523 681.398 638.487 681.385 640.45 681.032 641.914 680.34 642.88 679.647 643.845 678.695 644.326 677.483 644.324 676.271 644.326 675.318 643.845 674.626 642.88 673.934 641.914 673.581 640.45 673.568 638.487 673.581 636.523 673.934 635.059 674.626 634.094 675.318 633.128 676.271 632.647 677.483 632.65ZM690.293 632.497C690.908 632.501 691.533 632.589 692.167 632.762 692.801 632.935 693.35 633.172 693.814 633.473L694.299 633.793 693.92 634.417C693.807 634.604 693.661 634.73 693.48 634.793 693.299 634.856 693.076 634.832 692.812 634.722 692.419 634.54 692.026 634.379 691.634 634.24 691.242 634.102 690.8 634.029 690.308 634.021 689.684 634.019 689.21 634.134 688.885 634.364 688.561 634.595 688.398 634.953 688.396 635.439 688.414 635.885 688.674 636.257 689.174 636.555 689.674 636.853 690.305 637.187 691.067 637.557 691.672 637.856 692.223 638.144 692.721 638.422 693.218 638.701 693.617 639.036 693.916 639.43 694.214 639.823 694.368 640.342 694.375 640.986 694.361 641.845 694.154 642.53 693.754 643.042 693.354 643.555 692.847 643.923 692.235 644.147 691.622 644.371 690.99 644.481 690.338 644.476 689.51 644.477 688.777 644.357 688.138 644.116 687.499 643.875 686.918 643.508 686.393 643.013L685.922 642.571 686.317 642.129C686.527 641.886 686.744 641.747 686.966 641.714 687.188 641.68 687.427 641.747 687.683 641.916 687.931 642.106 688.265 642.32 688.684 642.56 689.104 642.799 689.62 642.93 690.232 642.952 690.826 642.962 691.353 642.824 691.814 642.537 692.275 642.25 692.522 641.753 692.554 641.047 692.55 640.686 692.421 640.383 692.167 640.137 691.914 639.891 691.588 639.671 691.191 639.478 690.793 639.284 690.378 639.086 689.944 638.883 689.429 638.645 688.914 638.383 688.399 638.096 687.883 637.808 687.452 637.461 687.103 637.054 686.755 636.647 686.574 636.144 686.56 635.545 686.573 634.764 686.765 634.151 687.136 633.705 687.507 633.26 687.976 632.945 688.543 632.762 689.109 632.579 689.693 632.491 690.293 632.497ZM729.511 615.834 729.511 619.416 732 619.416C732.8 619.429 733.414 619.308 733.841 619.052 734.269 618.796 734.484 618.328 734.488 617.648 734.484 616.966 734.269 616.49 733.841 616.221 733.414 615.952 732.8 615.823 732 615.834ZM719.751 611.079 715.502 617.297 719.751 617.297ZM729.511 611.034 729.511 614.31 731.696 614.31C732.435 614.319 733.001 614.199 733.394 613.948 733.786 613.698 733.984 613.265 733.988 612.649 733.984 612.035 733.786 611.61 733.394 611.373 733.001 611.136 732.435 611.023 731.696 611.034ZM645.644 611.034 645.644 615.057 647.677 615.057C648.542 615.079 649.211 614.955 649.686 614.686 650.162 614.416 650.402 613.869 650.409 613.045 650.402 612.221 650.162 611.675 649.686 611.405 649.211 611.136 648.542 611.012 647.677 611.034ZM750.167 610.348C749.307 610.351 748.626 610.764 748.126 611.586 747.626 612.408 747.371 613.621 747.36 615.225 747.371 616.828 747.626 618.041 748.126 618.863 748.626 619.686 749.307 620.099 750.167 620.102 751.028 620.099 751.708 619.686 752.209 618.863 752.709 618.041 752.964 616.828 752.975 615.225 752.964 613.621 752.709 612.408 752.209 611.586 751.708 610.764 751.028 610.351 750.167 610.348ZM709.432 610.348C708.572 610.351 707.891 610.764 707.391 611.586 706.891 612.408 706.635 613.621 706.625 615.225 706.635 616.828 706.891 618.041 707.391 618.863 707.891 619.686 708.572 620.099 709.432 620.102 710.293 620.099 710.973 619.686 711.473 618.863 711.973 618.041 712.229 616.828 712.24 615.225 712.229 613.621 711.973 612.408 711.473 611.586 710.973 610.764 710.293 610.351 709.432 610.348ZM739.196 609.692 742.596 609.692 742.596 620.757 741.472 620.757 741.472 610.653 739.849 610.653C739.642 610.649 739.482 610.595 739.369 610.491 739.255 610.386 739.198 610.252 739.196 610.089ZM719.584 609.692 720.859 609.692 720.859 617.282 722.467 617.282 722.467 617.831C722.468 617.935 722.429 618.028 722.348 618.111 722.267 618.194 722.14 618.238 721.967 618.242L720.859 618.242 720.859 620.757 719.736 620.757 719.736 618.242 714.303 618.242 714.303 617.237ZM672.583 609.692 678.471 609.692 678.471 610.241C678.472 610.345 678.432 610.438 678.351 610.521 678.271 610.604 678.144 610.648 677.97 610.653L673.569 610.653 673.144 614.341C673.381 614.131 673.674 613.96 674.023 613.828 674.371 613.697 674.721 613.629 675.072 613.625 676.218 613.633 677.128 613.962 677.801 614.611 678.475 615.26 678.82 616.176 678.835 617.358 678.82 618.52 678.475 619.424 677.801 620.073 677.128 620.722 676.218 621.051 675.072 621.062 674.395 621.063 673.756 620.958 673.156 620.749 672.555 620.541 672.045 620.223 671.627 619.797L671.338 619.477 671.642 619.111C671.766 618.968 671.897 618.896 672.036 618.894 672.175 618.892 672.307 618.949 672.431 619.065 672.734 619.362 673.118 619.607 673.581 619.801 674.043 619.994 674.54 620.095 675.072 620.102 675.865 620.093 676.501 619.847 676.978 619.365 677.455 618.882 677.7 618.213 677.712 617.358 677.7 616.503 677.455 615.829 676.978 615.337 676.501 614.845 675.865 614.595 675.072 614.585 674.63 614.589 674.208 614.691 673.804 614.891 673.401 615.092 673.07 615.365 672.81 615.712L671.9 615.545ZM663.797 609.692 669.685 609.692 669.685 610.241C669.686 610.345 669.646 610.438 669.565 610.521 669.485 610.604 669.358 610.648 669.184 610.653L664.783 610.653 664.358 614.341C664.595 614.131 664.888 613.96 665.237 613.828 665.585 613.697 665.935 613.629 666.286 613.625 667.432 613.633 668.342 613.962 669.015 614.611 669.689 615.26 670.034 616.176 670.049 617.358 670.034 618.52 669.689 619.424 669.015 620.073 668.342 620.722 667.432 621.051 666.286 621.062 665.609 621.063 664.97 620.958 664.37 620.749 663.769 620.541 663.259 620.223 662.841 619.797L662.552 619.477 662.856 619.111C662.98 618.968 663.111 618.896 663.25 618.894 663.389 618.892 663.521 618.949 663.645 619.065 663.948 619.362 664.332 619.607 664.794 619.801 665.257 619.994 665.754 620.095 666.286 620.102 667.079 620.093 667.715 619.847 668.192 619.365 668.669 618.882 668.914 618.213 668.926 617.358 668.914 616.503 668.669 615.829 668.192 615.337 667.715 614.845 667.079 614.595 666.286 614.585 665.844 614.589 665.422 614.691 665.018 614.891 664.615 615.092 664.284 615.365 664.024 615.712L663.114 615.545ZM727.72 609.54 732.364 609.54C733.455 609.552 734.296 609.825 734.885 610.361 735.474 610.897 735.772 611.624 735.778 612.542 735.775 613.094 735.657 613.572 735.424 613.977 735.191 614.382 734.864 614.696 734.443 614.92 735.011 615.116 735.457 615.448 735.782 615.914 736.107 616.381 736.273 616.995 736.279 617.755 736.278 618.713 735.976 619.475 735.372 620.041 734.768 620.607 733.867 620.896 732.667 620.909L727.72 620.909ZM643.853 609.54 648.269 609.54C649.535 609.542 650.505 609.839 651.179 610.43 651.853 611.021 652.194 611.892 652.2 613.045 652.198 613.854 652.028 614.527 651.69 615.063 651.352 615.599 650.859 615.993 650.212 616.246L652.989 620.909 650.895 620.909 648.269 616.551 645.644 616.551 645.644 619.873C645.64 620.243 645.553 620.509 645.382 620.671 645.211 620.834 644.98 620.913 644.688 620.909L643.853 620.909ZM758.923 609.388C760.004 609.404 760.828 609.687 761.393 610.237 761.958 610.787 762.243 611.505 762.247 612.39 762.249 613.049 762.112 613.678 761.835 614.276 761.558 614.874 761.129 615.465 760.547 616.048L756.859 619.797 762.444 619.797 762.444 620.346C762.445 620.449 762.405 620.543 762.324 620.626 762.244 620.709 762.117 620.752 761.943 620.757L755.569 620.757 755.569 619.736 759.712 615.347C760.163 614.878 760.51 614.402 760.754 613.92 760.998 613.438 761.121 612.928 761.124 612.39 761.115 611.792 760.916 611.305 760.524 610.929 760.133 610.553 759.599 610.359 758.923 610.348 758.448 610.351 758.01 610.459 757.61 610.672 757.211 610.884 756.834 611.183 756.48 611.567 756.34 611.714 756.198 611.782 756.053 611.771 755.908 611.76 755.777 611.702 755.66 611.598L755.357 611.338 755.554 611.064C755.944 610.547 756.424 610.141 756.994 609.843 757.564 609.545 758.207 609.394 758.923 609.388ZM750.167 609.388C751.38 609.385 752.332 609.866 753.024 610.832 753.717 611.797 754.07 613.261 754.083 615.225 754.07 617.188 753.717 618.653 753.024 619.618 752.332 620.583 751.38 621.064 750.167 621.062 748.955 621.064 748.003 620.583 747.311 619.618 746.618 618.653 746.265 617.188 746.252 615.225 746.265 613.261 746.618 611.797 747.311 610.832 748.003 609.866 748.955 609.385 750.167 609.388ZM709.432 609.388C710.644 609.385 711.597 609.866 712.289 610.832 712.981 611.797 713.334 613.261 713.348 615.225 713.334 617.188 712.981 618.653 712.289 619.618 711.597 620.583 710.644 621.064 709.432 621.062 708.22 621.064 707.268 620.583 706.575 619.618 705.883 618.653 705.53 617.188 705.517 615.225 705.53 613.261 705.883 611.797 706.575 610.832 707.268 609.866 708.22 609.385 709.432 609.388ZM700.616 609.388C701.697 609.404 702.52 609.687 703.086 610.237 703.651 610.787 703.935 611.505 703.939 612.39 703.942 613.049 703.804 613.678 703.528 614.276 703.251 614.874 702.822 615.465 702.24 616.048L698.552 619.797 704.137 619.797 704.137 620.346C704.138 620.449 704.098 620.543 704.017 620.626 703.936 620.709 703.809 620.752 703.636 620.757L697.262 620.757 697.262 619.736 701.405 615.347C701.855 614.878 702.203 614.402 702.446 613.92 702.69 613.438 702.813 612.928 702.816 612.39 702.808 611.792 702.608 611.305 702.217 610.929 701.825 610.553 701.292 610.359 700.616 610.348 700.14 610.351 699.703 610.459 699.303 610.672 698.903 610.884 698.526 611.183 698.172 611.567 698.033 611.714 697.891 611.782 697.746 611.771 697.601 611.76 697.47 611.702 697.353 611.598L697.049 611.338 697.247 611.064C697.637 610.547 698.116 610.141 698.687 609.843 699.257 609.545 699.9 609.394 700.616 609.388ZM657.484 609.388C658.566 609.404 659.389 609.687 659.954 610.237 660.519 610.787 660.804 611.505 660.808 612.39 660.81 613.049 660.673 613.678 660.396 614.276 660.12 614.874 659.69 615.465 659.108 616.048L655.42 619.797 661.005 619.797 661.005 620.346C661.006 620.449 660.966 620.543 660.886 620.626 660.805 620.709 660.678 620.752 660.504 620.757L654.13 620.757 654.13 619.736 658.273 615.347C658.724 614.878 659.071 614.402 659.315 613.92 659.559 613.438 659.682 612.928 659.685 612.39 659.677 611.792 659.477 611.305 659.085 610.929 658.694 610.553 658.16 610.359 657.484 610.348 657.009 610.351 656.571 610.459 656.172 610.672 655.772 610.884 655.395 611.183 655.041 611.567 654.902 611.714 654.759 611.782 654.614 611.771 654.469 611.76 654.338 611.702 654.221 611.598L653.918 611.338 654.115 611.064C654.505 610.547 654.985 610.141 655.555 609.843 656.125 609.545 656.768 609.394 657.484 609.388ZM690.562 609.235C691.272 609.233 691.946 609.295 692.584 609.422 693.222 609.549 693.798 609.756 694.311 610.043L694.614 610.211 694.28 611.079C694.213 611.261 694.116 611.374 693.988 611.418 693.86 611.463 693.695 611.446 693.491 611.369 693.042 611.203 692.579 611.062 692.102 610.944 691.626 610.826 691.103 610.765 690.532 610.759 689.367 610.785 688.433 611.214 687.73 612.047 687.026 612.88 686.665 613.965 686.647 615.301 686.652 616.128 686.819 616.87 687.147 617.529 687.475 618.189 687.934 618.711 688.524 619.098 689.114 619.484 689.803 619.681 690.592 619.69 691.062 619.689 691.493 619.649 691.884 619.57 692.276 619.491 692.635 619.379 692.96 619.233L692.96 616.124 690.926 616.124C690.72 616.12 690.56 616.067 690.446 615.962 690.333 615.858 690.275 615.724 690.274 615.56L690.274 614.6 694.174 614.6C694.372 614.6 694.522 614.65 694.625 614.75 694.729 614.851 694.78 615.004 694.781 615.21L694.781 620.071C694.195 620.472 693.546 620.764 692.835 620.946 692.123 621.128 691.361 621.217 690.547 621.214 689.391 621.205 688.384 620.951 687.525 620.449 686.665 619.948 685.997 619.254 685.521 618.367 685.044 617.48 684.802 616.453 684.795 615.286 684.819 613.42 685.348 611.951 686.381 610.877 687.414 609.804 688.808 609.257 690.562 609.235ZM637.979 585.988 637.979 590.603 640.093 590.603C641.048 590.624 641.788 590.473 642.313 590.151 642.838 589.828 643.105 589.21 643.112 588.295 643.105 587.381 642.838 586.763 642.313 586.44 641.788 586.118 641.048 585.967 640.093 585.988ZM748.532 585.685C747.678 585.695 746.945 585.92 746.333 586.359 745.721 586.798 745.25 587.391 744.921 588.138 744.592 588.884 744.426 589.723 744.422 590.654 744.425 591.573 744.59 592.401 744.917 593.137 745.244 593.874 745.714 594.458 746.326 594.891 746.938 595.324 747.673 595.546 748.532 595.556 749.401 595.546 750.139 595.324 750.748 594.891 751.357 594.458 751.821 593.874 752.141 593.137 752.461 592.401 752.622 591.573 752.624 590.654 752.621 589.723 752.455 588.884 752.126 588.138 751.798 587.391 751.328 586.798 750.718 586.359 750.108 585.92 749.38 585.695 748.532 585.685ZM755.535 584.337 757.464 584.337 759.426 593.147 759.678 594.511 759.963 593.147 762.077 584.337 764.458 584.337 766.572 593.147 766.857 594.511 767.109 593.147 769.071 584.337 771 584.337 768.031 596.903 765.683 596.903 763.502 587.874 763.267 586.712 763.033 587.891 760.852 596.903 758.504 596.903ZM733.445 584.337 735.424 584.337 735.424 595.252 741.278 595.252 741.278 596.448C741.279 596.563 741.235 596.666 741.146 596.758 741.057 596.85 740.917 596.898 740.725 596.903L733.445 596.903ZM723.86 584.337 725.84 584.337 725.84 595.252 731.694 595.252 731.694 596.448C731.695 596.563 731.651 596.666 731.561 596.758 731.472 596.85 731.332 596.898 731.14 596.903L723.86 596.903ZM712.678 584.337 721.149 584.337 721.149 585.533C721.15 585.648 721.106 585.751 721.017 585.843 720.928 585.934 720.787 585.982 720.595 585.988L714.657 585.988 714.657 589.643 720.981 589.643 720.981 590.805C720.982 590.92 720.938 591.023 720.849 591.115 720.76 591.206 720.619 591.255 720.427 591.26L714.657 591.26 714.657 595.252 721.417 595.252 721.417 596.448C721.418 596.563 721.374 596.666 721.285 596.758 721.196 596.85 721.055 596.898 720.864 596.903L712.678 596.903ZM700.422 584.337 702.435 584.337 705.857 589.862 709.279 584.337 711.292 584.337 706.88 591.85 706.88 595.758C706.876 596.167 706.78 596.461 706.591 596.64 706.402 596.819 706.146 596.907 705.823 596.903L704.834 596.903 704.834 591.85ZM684.723 584.337 693.193 584.337 693.193 585.533C693.194 585.648 693.15 585.751 693.061 585.843 692.972 585.934 692.831 585.982 692.64 585.988L686.702 585.988 686.702 589.643 693.025 589.643 693.025 590.805C693.026 590.92 692.982 591.023 692.893 591.115 692.804 591.206 692.664 591.255 692.472 591.26L686.702 591.26 686.702 595.252 693.462 595.252 693.462 596.448C693.463 596.563 693.419 596.666 693.329 596.758 693.24 596.85 693.1 596.898 692.908 596.903L684.723 596.903ZM675.138 584.337 677.117 584.337 677.117 595.252 682.971 595.252 682.971 596.448C682.972 596.563 682.928 596.666 682.839 596.758 682.75 596.85 682.609 596.898 682.417 596.903L675.138 596.903ZM663.956 584.337 665.935 584.337 665.935 589.205 670.598 584.337 673.147 584.337 667.478 590.367 673.701 596.903 671.151 596.903 665.935 591.58 665.935 595.758C665.931 596.167 665.834 596.461 665.646 596.64 665.457 596.819 665.201 596.907 664.878 596.903L663.956 596.903ZM647.132 584.337 649.145 584.337 649.145 595.758C649.141 596.167 649.044 596.461 648.855 596.64 648.667 596.819 648.411 596.907 648.088 596.903L647.132 596.903ZM636 584.337 640.747 584.337C642.146 584.343 643.218 584.685 643.963 585.362 644.708 586.04 645.084 587.018 645.091 588.295 645.084 589.573 644.708 590.551 643.963 591.229 643.218 591.906 642.146 592.248 640.747 592.254L637.979 592.254 637.979 595.758C637.975 596.167 637.879 596.461 637.69 596.64 637.501 596.819 637.245 596.907 636.923 596.903L636 596.903ZM748.532 584C749.88 584.015 751.008 584.319 751.916 584.913 752.823 585.507 753.506 586.304 753.965 587.304 754.424 588.304 754.653 589.421 754.654 590.654 754.652 591.87 754.419 592.973 753.954 593.964 753.489 594.954 752.802 595.744 751.893 596.334 750.984 596.923 749.864 597.226 748.532 597.24 747.178 597.226 746.044 596.923 745.132 596.334 744.219 595.744 743.531 594.954 743.07 593.964 742.608 592.973 742.377 591.87 742.376 590.654 742.376 589.421 742.606 588.304 743.066 587.304 743.526 586.304 744.212 585.507 745.124 584.913 746.037 584.319 747.172 584.015 748.532 584ZM657.694 584C658.479 583.997 659.224 584.066 659.929 584.206 660.635 584.347 661.271 584.576 661.837 584.893L662.173 585.078 661.804 586.038C661.73 586.239 661.622 586.364 661.481 586.413 661.34 586.462 661.157 586.444 660.932 586.358 660.435 586.175 659.923 586.019 659.397 585.889 658.871 585.759 658.292 585.69 657.661 585.685 656.81 585.696 656.064 585.928 655.422 586.38 654.78 586.831 654.278 587.435 653.917 588.19 653.556 588.945 653.373 589.783 653.367 590.704 653.372 591.618 653.557 592.439 653.92 593.167 654.283 593.896 654.79 594.473 655.442 594.901 656.094 595.328 656.856 595.546 657.728 595.556 658.437 595.547 659.065 595.459 659.613 595.292 660.16 595.126 660.65 594.933 661.083 594.713 661.325 594.597 661.536 594.577 661.714 594.652 661.892 594.728 662.039 594.888 662.156 595.135L662.475 595.859 662.173 596.061C661.54 596.486 660.856 596.79 660.12 596.973 659.385 597.156 658.57 597.245 657.678 597.24 656.4 597.23 655.287 596.948 654.337 596.395 653.387 595.841 652.649 595.074 652.122 594.093 651.596 593.113 651.328 591.977 651.32 590.688 651.347 588.625 651.931 587.001 653.073 585.815 654.215 584.629 655.756 584.024 657.694 584Z" fill="url(#fill1)" fill-rule="evenodd"/></g></svg>