<svg xmlns="http://www.w3.org/2000/svg" xmlns:xlink="http://www.w3.org/1999/xlink" width="52" height="51" overflow="hidden"><defs><clipPath id="clip0"><path fill-rule="evenodd" d="M359 205 411 205 411 256 359 256Z" clip-rule="evenodd"/></clipPath></defs><g clip-path="url(#clip0)" transform="translate(-359 -205)"><path fill="#DD3425" fill-rule="evenodd" d="M360 230C360 216.193 371.193 205 385 205 398.807 205 410 216.193 410 230 410 243.807 398.807 255 385 255 371.193 255 360 243.807 360 230Z"/><path fill="#FFF" fill-rule="evenodd" d="M382.025 224.906 382.057 236.069 390.492 230.511ZM385.419 220C389.014 219.992 396.202 220.238 396.202 220.238 399.844 220.52 399.893 226.284 399.972 229.604 400.122 234.602 399.773 240.55 396.188 240.709 396.188 240.709 388.722 240.993 384.987 241 381.374 241.006 374.151 240.757 374.151 240.757 371.847 240.762 370.779 238.532 370.756 237.33 370.756 237.33 370.025 233.255 370 231.194 370.467 223.934 370.315 220.382 374.342 220.295 374.342 220.295 381.725 220.009 385.419 220Z"/></g></svg>